<svg width="73" height="80" viewBox="0 0 73 80" fill="none" xmlns="http://www.w3.org/2000/svg">
<path d="M24.9449 2.10771L24.7554 3.02131L24.2041 3.64186L24.3075 4.46926L25.0827 5.12429V5.38285L25.6684 5.83103L26.1163 7.77887L26.5642 7.53754L26.6331 7.07213L26.5126 6.62395L27.15 6.19302L27.4084 5.84826L27.8563 5.53799L27.8735 4.69335L27.529 4.52097L27.2706 4.00384L26.7882 3.98661L26.5987 3.38329L27.1844 2.83169L27.2706 1.86639L26.9432 1.59059L26.926 1.07346L27.3567 0.521861L27.2878 0.297772L26.5298 0.711475L26.547 0.142635L25.9096 0.0219727L24.9449 0.470147L24.7726 1.03899L24.9449 2.10771Z" fill="#5B822F"/>
<path d="M60.0362 54.2853L60.019 54.3198L60.0017 54.3716H59.95H59.9156H59.8467L59.9845 54.4578L60.0706 54.5441L60.1051 54.5786L60.1223 54.5441L60.1395 54.4233L60.0879 54.2681L60.0362 54.2853Z" fill="#5B822F"/>
<path d="M59.0545 53.7682L59.0717 53.5267L59.0372 53.4922H58.9856L58.9683 53.5094L58.9511 53.5612L58.8994 53.9061L58.9683 54.0096L59.02 54.0269L59.1234 54.0786L59.1578 54.0269L59.1234 53.9061L59.0545 53.7682Z" fill="#5B822F"/>
<path d="M59.3472 54.4575H59.2783V54.492L59.2955 54.561L59.4851 54.5955L59.4161 54.5265L59.3472 54.4575Z" fill="#5B822F"/>
<path d="M72.2158 63.0592L72.1469 62.9385L72.0608 62.9557L72.0091 63.0247L71.9747 63.111L71.8885 63.1627L71.8713 63.2145L71.8368 63.3352L71.8196 63.4042L71.7852 63.4215V63.456L71.8368 63.5077L71.9747 63.525L72.0952 63.4905L72.1469 63.4387L72.1814 63.3697L72.2331 63.318L72.2503 63.1972L72.2158 63.0592Z" fill="#5B822F"/>
<path d="M23.7213 40.5815L23.6352 40.6505L23.5835 40.7195V40.7713L23.6007 40.892L23.6179 40.9437L23.6696 40.9782L23.7558 40.892L23.8419 40.754V40.6678L23.7902 40.5815H23.7213Z" fill="#5B822F"/>
<path d="M24.4973 39.168L24.4626 39.1853L24.4106 39.272L24.428 39.3067L24.4626 39.3414L24.4973 39.3067L24.532 39.2374V39.2027L24.5146 39.1853L24.4973 39.168Z" fill="#5B822F"/>
<path d="M70.8721 46.0803L70.9065 46.132L70.9582 46.1665L70.9754 46.2355L71.0271 46.27V46.1665L70.941 46.0286L70.8721 46.0803Z" fill="#5B822F"/>
<path d="M70.166 63.9555L70.0971 63.9211L69.9593 63.9038L69.8387 63.9555L69.7698 64.059L69.7354 64.1108L69.8043 64.3005L69.8387 64.3522L70.0282 64.4557H70.1143L70.2522 64.4212L70.2866 64.3522L70.3038 64.2142L70.2349 64.0763L70.166 63.9555Z" fill="#5B822F"/>
<path d="M60.6911 54.9575L60.6567 54.9058L60.605 54.9575L60.6567 55.0438L60.6394 55.0956L60.6222 55.1646L60.6394 55.2336L60.6739 55.2681L60.7256 55.2509V55.1991L60.76 55.1128V55.0956L60.7773 55.0093L60.7256 54.9575H60.6911Z" fill="#5B822F"/>
<path d="M66.4794 27.8434H66.1176L65.6697 28.2226L65.1701 28.3261L64.7394 28.4812L64.4293 28.5157L63.8781 28.5501L63.5508 28.7397L63.0684 28.8259L62.2415 29.1534L61.1906 29.2913L60.2948 29.5671H59.8124L59.3645 29.1017L59.1578 28.6536L58.8477 28.4467L58.417 28.1537L58.9511 27.8951L58.9683 27.4297L58.7271 27.1022L58.2448 26.7747L57.9175 26.3955L57.3662 25.7577L56.8149 25.1371L55.454 24.1029L54.9027 23.5685L54.5926 22.5515L53.9552 21.2932L53.5073 21.9137L53.9552 21.2932L53.4212 20.8795L53.0422 20.6037L52.6115 19.2936L52.422 18.1732L52.6115 17.9664L52.2497 16.8976L52.0774 16.6736L50.906 15.691L50.8371 14.967L51.0094 14.7774L50.0963 13.5708L49.7518 12.9503L49.3555 12.347L48.5286 10.6405L47.8568 9.53726L47.3744 8.38235L47.4606 8.27893L48.253 9.84753L48.7181 10.3474L49.0627 10.6922L49.2694 10.5026L49.4761 9.93372L49.5967 9.10632L49.8207 8.67539L49.7001 8.38235L49.0282 6.79651L48.5975 7.07231L47.874 7.00336L47.116 6.7448L46.9265 7.10678L46.6336 6.55518L45.9618 6.41728L45.1521 6.52071L44.7903 6.83098L44.1185 7.17573L43.6706 7.00336L42.7231 6.67584L41.81 6.38281L40.5869 6.41728L40.3285 6.0553L39.3982 5.9174L39.0881 5.72779H38.7436L38.399 5.24514L37.1415 5.02105L36.5213 5.15895L35.8839 5.67608L35.6255 6.21043L35.8839 7.03783L35.4704 7.55495L35.0397 7.83075L34.0233 7.29639L32.6968 6.83098L31.8527 6.62413L31.3704 5.6416L30.13 5.15895L29.3548 4.96934L28.9758 5.07277L27.8732 4.69354L27.856 5.53818L27.4081 5.84845L27.1497 6.1932L26.5123 6.62413L26.6329 7.07231L26.564 7.53772L26.1161 7.77904L26.4434 8.74434L26.5123 9.26146L26.3572 10.1578L26.4434 10.6577L26.34 11.261L26.4261 11.9505L26.0644 12.3987L26.6501 13.2088L26.6846 13.6742L27.0291 14.2948L26.6846 13.6742L26.6501 13.2088L26.0644 12.3987L26.4261 11.9505L26.34 11.261L26.4434 10.6577L26.3572 10.1578L26.5123 9.26146L26.4434 8.74434L26.1161 7.77904L25.6682 5.83121L25.0824 5.38304V5.12448L24.3072 4.46946L24.2038 3.64206L24.7551 3.02151L24.9446 2.10793L24.7723 1.03921L24.9446 0.470372L24.3244 0.539323L23.9454 0.280762H22.9807L22.1366 0.728933L21.6714 0.556559L20.1727 0.642746L18.6395 0.849597L17.7781 1.19435L17.1924 1.64252L16.2104 1.84937L15.3318 2.45268L14.9356 2.43544L13.9881 2.19411L13.1268 2.26307L12.5927 1.79766H11.9209L11.6108 2.46991L10.9734 3.62482L10.2843 4.073L9.354 4.57288L8.75105 5.31409L8.596 5.90016L8.23423 6.83098L8.42373 8.19274L7.61405 9.10632L7.14892 9.39936L6.39092 10.1578L5.51234 10.2785L5.02997 10.6922L5.01275 10.7094L4.39257 11.8298L3.75516 12.2263L3.39339 12.9158L3.35894 13.4846L3.0833 14.1397L2.75598 14.312L2.22194 15.0015L1.8774 15.7772L1.92908 16.1564L1.60176 16.7253L1.22276 17.0183L1.17108 17.5354L1.1194 18.0008L1.60176 18.4662L1.84294 18.9834L1.72235 19.535L1.82572 20.0866L1.91185 21.1725L1.77403 22.1895L1.48117 22.7411L1.55008 23.3272L1.89462 22.9824L1.55008 23.3272L1.32613 23.896L0.843766 24.6545L0.413086 24.8613L0.87822 25.2578L1.25722 26.1197L2.30808 26.0852L2.53203 25.8266L2.84212 25.8094L3.20389 26.0679L3.51398 26.0852L3.82407 25.8956L3.51398 26.0852L3.20389 26.0679L2.84212 25.8094L2.53203 25.8266L2.30808 26.0852L1.25722 26.1197L1.13663 26.6023L1.27445 27.4469L1.79126 27.2573L2.10135 27.2918L2.35976 27.1711L4.13416 27.2229L4.59929 27.2401L5.28838 27.4987L5.51234 27.4814L5.58124 27.3608L6.09806 27.4469L6.23588 27.378L6.28756 27.0332L6.21865 26.6195L5.85688 26.3093L5.66738 25.6715L5.63293 24.9992L5.96024 24.7924L6.13251 24.1546L6.4426 24.1201L6.13251 24.1546L5.96024 24.7924L5.63293 24.9992L5.66738 25.6715L5.85688 26.3093L6.21865 26.6195L6.28756 27.0332L6.23588 27.378L6.28756 27.7745L6.23588 27.378L6.09806 27.4469L5.58124 27.3608L5.51234 27.4814L5.28838 27.4987L4.59929 27.2401L4.13416 27.2229L4.11693 27.5848L4.01357 27.7055L4.11693 27.5848L4.13416 27.2229L2.35976 27.1711L2.10135 27.2918L1.79126 27.2573L1.27445 27.4469L1.32613 27.671L1.61899 27.9124V28.0675L1.82572 28.3778L2.23917 28.4639L2.73876 28.9121L3.18666 28.3778L3.47953 28.395L3.72071 28.2226H3.94466L4.08248 28.0675L3.94466 28.2226H3.72071L3.47953 28.395L3.18666 28.3778L2.73876 28.9121L3.01439 29.1017L3.15221 29.3431L3.2728 29.8257L3.49675 30.0326L3.75516 30.1877L4.11693 30.6186L4.53039 31.2564L4.65098 32.0666L4.80602 32.463L5.30561 33.0663L6.01192 33.4973L6.27033 33.5835L6.49429 33.2387L6.54597 32.9112L6.99387 32.3251L7.44178 31.808L7.64851 31.7735L7.90692 31.6529L7.64851 31.7735L7.44178 31.808L6.99387 32.3251L6.54597 32.9112L6.49429 33.2387L6.27033 33.5835L6.90774 34.2902L7.73464 34.8935L8.61323 35.7209L9.59518 36.2553L9.85359 36.238L10.0431 36.2725L11.0078 35.8588L11.6797 35.5485L12.8167 35.3589L13.4368 35.3417L14.1087 35.5658L14.5566 35.5485L14.5911 35.1176L14.1776 34.1695L14.436 32.9284L14.8322 32.0149L14.5911 30.4463L13.9364 30.1705L14.5911 30.4463L14.8322 32.0149L14.436 32.9284L14.1776 34.1695L14.5911 35.1176L14.5566 35.5485L15.418 35.8588L16.2793 35.5313L16.8306 35.1693L18.3294 34.5143L19.1218 34.2902L19.9143 34.1523L19.966 32.3941L19.9487 31.6873L19.966 32.3941L19.9143 34.1523H20.7584H21.4992L22.171 34.8763L22.4983 35.6692L23.0152 36.3415L23.7904 36.3759L24.1694 36.1346L24.5312 36.1863L25.5303 35.7899L25.7715 35.0142L26.2366 33.9627L25.7715 35.0142L25.5303 35.7899V36.1001L25.7715 36.2553L25.961 36.7379L26.4089 36.9275L26.7879 37.6515L26.6501 38.5134L28.235 38.5478L28.6829 38.4789L29.2686 38.6168L29.8544 38.4789L29.9749 38.5306L31.1981 38.5823L31.9733 38.8754L32.7485 39.1339L31.9733 38.8754L31.1981 38.5823L29.9749 38.5306V38.5478V38.5306L29.8544 38.4789L29.2686 38.6168L28.6829 38.4789L28.235 38.5478L26.6501 38.5134L26.3228 39.7545L26.4951 39.9096L26.3056 40.737L26.0816 41.5299L25.8577 41.8747L25.8232 42.2367L26.4089 43.3743L27.0463 44.2879L28.0455 45.3911L28.838 46.546L29.217 46.0806L29.527 45.891L29.217 46.0806L28.838 46.546L29.0791 47.3734L29.3375 47.2527L29.372 46.7873L29.527 46.4943L29.8716 46.2702L29.527 46.4943L29.372 46.7873L29.3375 47.2527L29.0791 47.3734L29.217 47.7182L29.1308 47.925L29.6132 48.6145L29.8027 49.3557L30.0783 50.4072L29.7855 50.8554L29.7338 51.0795L29.9577 51.7345L30.2161 52.4067L30.4918 52.786L30.5434 53.4065L30.4229 54.2339L30.1128 54.7165L29.5443 55.4405L29.3203 55.8887L28.993 56.8712L28.9413 57.3366L28.5968 58.3537L28.4417 59.3017L28.5279 59.9912L28.993 59.7844L29.5615 59.612L28.993 59.7844L28.5279 59.9912L28.5623 60.8358L29.3203 61.9046L29.5098 62.5941L29.9922 63.9213L30.4573 64.8177L30.8191 65.2659L30.9224 65.8692V67.1792L31.1981 68.8685L31.4048 69.6614L31.5771 70.7301L31.9044 71.5403L32.5763 72.3677L33.0414 71.8161L33.4032 72.1263L33.0414 71.8161L32.5763 72.3677L33.1792 73.7811V73.7984L33.6099 74.712L34.1612 75.7462L34.1267 76.5736L33.8338 76.7805L34.075 77.5044L34.0406 78.1594L34.1439 78.4525L34.1956 78.2974L34.5574 78.7972L34.8675 78.8145L35.2292 79.2109L35.6427 79.1765L36.2456 78.7628L37.0381 78.5904L38.0028 78.1594L38.3818 78.2112L38.9503 78.0733L39.9323 78.2801L40.3974 78.0733L40.9487 78.2456L41.0865 77.9354L41.5516 77.8837L42.5508 77.4527L43.2916 76.9528L43.9979 76.2978L45.1521 75.1774L45.7378 74.3845L46.0479 73.8329L46.4786 73.264L46.6853 73.1089L47.3572 72.5573L47.6328 72.0574L47.8223 71.1611L48.1152 70.3509H47.4089H48.1152L48.2358 69.7821L47.9946 69.6959L47.9429 69.2477L48.3908 68.834L49.5623 68.2479L50.3547 67.8687L50.7854 67.4722L50.9404 67.0241L50.7337 66.8345L50.9232 66.3173L51.0094 65.2486L50.8371 65.3003V64.9728L50.6993 64.335L50.2858 63.5076L50.4064 62.7147L50.8026 62.4734L51.5089 61.6805L51.8879 61.4909L53.0422 60.3187L54.1447 59.7844L55.0405 59.3534L55.6779 58.6812L56.0914 57.9227L56.4187 57.1298L56.2636 56.5954L56.2981 54.8889L56.2292 53.9236L56.2981 52.8377L56.1603 52.3378L55.8157 52.0965L55.4367 51.0105L55.1267 50.3382L55.1956 49.8039L55.1439 49.4764L55.4367 48.8041L55.4023 48.5283L54.7993 48.1318L54.7477 47.5113L55.23 46.1495L55.609 45.7876L55.8157 45.0636L56.1258 44.6154L56.2809 43.8397L56.6426 43.7708L56.8838 43.3054L57.5729 42.8744L57.0044 41.9609L56.97 37.9618L57.4695 37.2206L56.97 37.9618L57.0044 41.9609L57.5729 42.8744L57.7969 42.6159L58.0208 42.0298L59.0717 40.7025L59.9847 39.8751L61.4146 38.7719L62.3793 37.8928L63.4818 36.3932L64.2915 35.1693L65.084 33.5662L65.6352 32.1528L66.0659 30.9289L66.2899 29.7568L66.4794 29.3603L66.4449 28.7742L66.5138 28.1364L66.4794 27.8434ZM62.6205 32.2562L63.4474 32.2389L62.6205 32.2562L59.4335 30.9461L62.6205 32.2562ZM58.2792 28.8432L58.0553 28.9294L58.2792 28.8432ZM58.5032 29.0328L58.7616 28.5846L58.5032 29.0328ZM54.7993 24.8613L54.2481 25.1199L54.7993 24.8613ZM52.4737 23.1548L52.1463 24.7751L52.2669 25.2061L52.1463 26.1541L51.7846 27.2229L51.2333 27.7745L50.8371 28.6019L50.7509 29.05L50.303 29.3603L50.0619 30.5152V30.6359H50.0274H50.0619V30.5152L50.303 29.3603L50.7509 29.05L50.8371 28.6019L51.2333 27.7745L51.7846 27.2229L52.1463 26.1541L52.2669 25.2061L52.1463 24.7751L52.4737 23.1548ZM49.3555 51.6311L49.5623 52.5619L49.39 52.8721L49.1833 53.7513L49.3383 54.6648L49.0282 55.0441L48.7009 56.0611L49.2005 56.3541L48.7009 56.0611L49.0282 55.0441L49.3383 54.6648L49.1833 53.7513L49.39 52.8721L49.5623 52.5619L49.3555 51.6311L48.9076 51.1484L48.3564 50.8209L47.7534 50.6313L47.3744 50.4417L47.7534 50.6313L48.3564 50.8209L48.9076 51.1484L49.8379 51.3552L50.0274 51.6483L50.0963 51.4414L49.9929 51.769L50.0274 51.6483L49.8379 51.3552L48.9076 51.1484L49.3555 51.6311ZM46.3063 58.0261L46.358 58.4398L46.3063 58.0261L46.2546 57.2505L46.3063 58.0261ZM30.13 46.3736L30.4573 45.9599L30.13 46.3736ZM31.3704 15.9496L30.6985 16.3633L31.3704 15.9496ZM31.6804 30.067L32.2145 30.0843L31.6804 30.067L31.4048 30.136L30.9741 30.0326L31.4048 30.136L31.6804 30.067ZM47.1505 42.8917L47.0816 43.5295L47.1505 42.8917L46.7542 42.2711L46.1857 42.5986L45.9446 42.4952L46.1857 42.5986L46.7542 42.2711L47.0988 42.1332L48.1152 42.1505L47.0988 42.1332L46.7542 42.2711L47.1505 42.8917ZM44.3941 54.4752L43.6533 54.3373L43.4466 53.7513L43.6533 54.3373L44.3941 54.4752L44.7387 54.9579L45.1004 55.5612L44.7387 54.9579L44.3941 54.4752ZM37.1242 49.0282L37.2104 48.6317L37.1242 49.0282ZM38.2957 49.0282V49.7177L38.5024 50.1314L38.3474 50.7864L38.399 51.4759L38.7264 51.8724L38.6402 53.1824L38.7264 51.8724L38.399 51.4759L38.3474 50.7864L38.5024 50.1314L38.2957 49.7177V49.0282ZM38.2612 58.6639L38.399 55.1647L40.3974 55.182L38.399 55.1647L38.2612 58.6639ZM40.4663 54.389L40.3113 54.8027L40.4663 54.389ZM40.4319 53.3548L40.3113 53.8719L40.4319 53.3548ZM40.673 53.0273L40.7247 53.372L40.673 53.0273ZM39.8461 35.9622L39.3982 35.8588L39.2604 35.945L38.9848 36.6L38.2612 36.3932L37.5549 36.2897L38.2612 36.3932L38.9848 36.6L39.2604 35.945L39.3982 35.8588L39.8461 35.9622L40.9142 35.4279L39.8461 35.9622ZM38.399 27.2229L38.7436 27.1539L38.399 27.2229ZM48.408 28.2054L48.1669 27.8951L48.408 28.2054L48.5114 28.8777L47.9946 29.481L47.5295 30.2566L47.0471 30.3773L47.5295 30.2566L47.9946 29.481L48.5114 28.8777L48.408 28.2054ZM46.8059 43.6674L46.8576 44.0983L47.0643 44.3569V44.7016L46.8231 44.9429L46.4441 45.5118L46.0824 45.9082L45.9962 45.9255L46.0824 45.9082L46.4441 45.5118L46.8231 44.9429L47.0643 44.7016V44.3569L46.8576 44.0983L46.8059 43.6674ZM45.5139 36.2036L46.0479 35.9795L45.5139 36.2036ZM44.8076 36.3242L45.066 36.1346L44.8076 36.3242ZM45.5311 54.5786L45.7895 54.3718L45.5311 54.5786ZM46.8059 48.6145L46.0479 47.8905L46.8059 48.6145ZM49.1316 32.4803L49.7173 32.5665L49.1316 32.4803ZM48.7526 27.8434L48.8043 27.5848L48.7526 27.8434ZM45.8584 29.9636L45.7723 30.2911L45.2727 30.498L45.2382 30.7221L45.2727 30.498L45.7723 30.2911L45.8584 29.9636L46.2202 29.7395L45.8584 29.9636ZM43.4466 30.4463L43.1021 30.6359L43.4466 30.4463L44.1529 30.498L43.4466 30.4463ZM40.3629 31.5667L40.6558 31.446L40.9831 31.2392L41.2071 30.2566L41.4655 29.7568L42.1546 29.6016L41.4655 29.7568L41.2071 30.2566L40.9831 31.2392L40.6558 31.446L40.3629 31.5667ZM43.6189 34.928L42.8953 34.497L42.6369 33.842L42.2235 33.3766L41.5689 32.7905L41.5516 32.4458L41.0176 31.9976L40.897 31.9114L41.0176 31.9976L41.5516 32.4458L41.5689 32.7905L42.2235 33.3766L42.6369 33.842L42.8953 34.497L43.6189 34.928L43.7739 35.29L43.4638 35.3934L42.8437 35.3762L42.1029 35.2555L41.7584 35.3589L41.6033 35.6175L41.2932 35.652L41.6033 35.6175L41.7584 35.3589L42.1029 35.2555L42.8437 35.3762L43.4638 35.3934L43.7739 35.29L43.6189 34.928ZM46.5992 50.0624L46.737 50.0969L46.5992 50.0624ZM49.5106 43.133L49.8207 42.6676L49.5106 43.133ZM49.5795 40.668L49.166 40.9266L48.5631 41.0817L48.1152 41.7195L48.5631 41.0817L49.166 40.9266L49.5795 40.668ZM48.2185 43.9949L48.2013 43.9604L48.2185 43.9949ZM40.1907 23.896L39.3638 23.8271L40.1907 23.896ZM35.6599 49.7866L35.1431 49.6315L35.6599 49.7866ZM39.4844 60.2498L37.71 60.6807L39.4844 60.2498ZM40.4319 60.6462H40.7075L41.2588 60.3877L40.7075 60.6462H40.4319L39.7944 61.0772L40.4319 60.6462ZM41.1726 53.3548L41.7756 53.4582L42.0857 53.9409L42.8609 54.096L42.0857 53.9409L41.7756 53.4582L41.1726 53.3548ZM43.6706 59.9912L44.5492 59.0776L43.6706 59.9912L43.1193 60.6979L43.6706 59.9912ZM45.0143 58.6122L45.5828 58.1813L45.0143 58.6122L44.8937 58.9914L45.0143 58.6122ZM50.9404 53.6134L50.7682 53.372L50.9404 53.6134ZM50.2858 55.6474L50.303 55.2164V55.1992L50.3375 55.3026L50.2858 55.6474ZM50.6648 54.7165V54.6993V54.7683V54.7165ZM50.9749 56.0955L51.0266 56.2507L50.9749 56.0955ZM50.0619 42.4263L50.303 42.1849L50.0619 42.4263ZM36.1423 17.4492L40.0012 19.5522L36.1423 17.4492L32.3006 15.3463L36.1423 17.4492ZM36.6591 31.1357L35.7288 31.0668L36.6591 31.1357ZM33.4376 32.7905L33.1964 32.5492L33.0414 32.5147L33.1964 32.5492L33.4376 32.7905ZM22.7223 19.535L25.4442 17.3803L28.6485 15.2773L28.2178 14.5878L27.477 14.0879L28.2178 14.5878L28.6485 15.2773L30.1644 15.76L30.4229 16.0702L30.1472 15.76L28.6312 15.2773L25.4442 17.3803L22.7223 19.535L21.3786 20.0176L21.3958 22.5343L20.879 23.2755L20.7929 23.9477L20.879 23.2755L21.3958 22.5343L21.3786 20.0176L20.3277 20.121L21.3786 20.0176L22.7223 19.535ZM27.0291 26.4644L27.5976 26.4989L27.0291 26.4644ZM29.1308 26.723L28.39 26.4127L27.8732 26.3437L28.39 26.4127L29.1308 26.723ZM17.7953 32.894L18.0021 31.9114L17.7953 32.894ZM17.6575 30.6359L17.6747 29.8429L17.6575 30.6359ZM17.2613 29.2741L17.3302 28.9466L17.2613 29.2741ZM11.6452 18.3801L12.0587 23.1203L12.2309 23.2582L12.007 24.0167L8.16532 24.0339L8.01028 24.2753L8.16532 24.0339L12.007 24.0167L12.2309 23.2582L12.0587 23.1203L11.6452 18.3801L11.2318 13.657L12.6788 13.6398L11.2318 13.657L11.6452 18.3801ZM9.37123 32.1183L9.31955 32.6009L9.37123 32.1183L9.30232 31.9114L9.40568 31.7563L9.75023 31.6184L9.52627 30.7393L9.30232 30.2911L9.38845 29.9119L9.57795 29.8257L9.28509 29.5154L9.33677 29.1879L9.21618 29.0673L9.33677 29.1879L9.28509 29.5154L9.57795 29.8257L9.38845 29.9119L9.30232 30.2911L9.52627 30.7393L9.75023 31.6184L9.40568 31.7563L9.30232 31.9114L9.37123 32.1183ZM7.11446 27.9468L6.85606 27.671L7.11446 27.9468ZM7.09724 24.4304L7.64851 24.2063L7.09724 24.4304ZM9.04391 28.8087L9.00946 29.1707L9.04391 28.8087L9.25064 28.5329L8.85441 28.0675L8.75105 27.7745L8.52709 27.5331L8.75105 27.7745L8.85441 28.0675L9.25064 28.5329L9.04391 28.8087ZM9.14727 32.6699L9.1645 32.6009L9.14727 32.6699ZM19.3975 27.1711L19.0185 27.085L19.3975 27.1711ZM18.1743 28.9638H18.1226H18.1743ZM17.6575 24.7751L17.6747 24.6545L17.6575 24.7751ZM15.2112 25.3957L15.4007 25.0509L15.2112 25.3957L14.9528 25.5681L15.2112 25.3957ZM18.0537 29.5327L18.3121 29.8257L18.0537 29.5327ZM18.2949 24.6028L18.6395 24.2235L18.2949 24.6028ZM20.0521 27.6021L20.7929 28.2399L20.0521 27.6021ZM14.4705 6.24491L14.9012 5.83121L16.1071 5.65884L14.9012 5.83121L14.4705 6.24491L13.9364 6.3311L14.4705 6.24491ZM10.7494 8.5892L11.6797 8.41683L12.4377 8.12379L12.7994 7.57219L13.8848 7.14126L12.7994 7.57219L12.4377 8.12379L11.6797 8.41683L10.7494 8.5892L9.21618 9.39936L10.7494 8.5892ZM9.19895 10.6922H9.06114H9.19895ZM7.42455 11.4161L7.75187 11.5713L7.42455 11.4161L6.6321 11.5368L7.42455 11.4161ZM6.30479 12.3987L6.08083 12.4504L6.30479 12.3987ZM5.52956 13.8639L4.18584 15.036L5.52956 13.8639ZM2.35976 23.0686L2.60094 22.948L2.35976 23.0686ZM6.06361 12.5883L9.14727 12.64L6.06361 12.5883ZM6.85606 30.3945L6.59765 29.9981H5.82242L5.59847 30.2049L5.34006 30.2394L5.59847 30.2049L5.82242 29.9981H6.59765L6.85606 30.3945L7.06278 30.86L7.02833 31.1702L7.06278 30.86L6.85606 30.3945ZM8.69937 33.0146L8.88887 32.5665L8.69937 33.0146ZM9.28509 34.2385L9.59518 34.3074L9.28509 34.2385ZM12.7133 30.2566L12.541 29.8947L12.1104 29.6533L12.0414 29.0155L12.3171 28.5501L12.2826 28.1709L13.0578 27.2746L13.1957 26.5161L13.4713 26.2403L13.1957 26.5161L13.0578 27.2746L12.2826 28.1709L12.3171 28.5501L12.0414 29.0155L12.1104 29.6533L12.541 29.8947L12.7133 30.2566L13.144 30.4807L12.7133 30.2566ZM13.9364 26.3955L14.3327 26.1714L14.4705 25.8956L14.3327 26.1714L13.9364 26.3955ZM18.7256 30.791L18.9151 31.0151L18.7256 30.791ZM23.8593 26.6368L23.4975 26.2231L22.5328 25.8094L23.4975 26.2231L23.8593 26.6368L24.3589 26.654L23.8593 26.6368ZM25.9782 26.9643L24.8068 26.3955L25.9782 26.9643L26.4606 26.9298L25.9782 26.9643ZM26.5123 33.9455L27.0808 33.3077L26.5123 33.9455ZM30.13 29.8774L30.0094 30.4463L29.8027 30.6876L29.6132 31.4633L29.0964 31.9114L28.9585 32.463L28.7518 32.9112L28.6657 33.3594L27.9938 33.7386L28.6657 33.3594L28.7518 32.9112L28.9585 32.463L29.0964 31.9114L29.6132 31.4633L29.8027 30.6876L30.0094 30.4463L30.13 29.8774L30.3884 29.1879L31.1809 28.3261L31.2325 27.9641L31.3359 27.7745L30.9397 27.3263L30.7674 27.3608L30.0955 26.1541L29.8716 26.1197L30.0955 26.1541L30.7674 27.3608L30.9397 27.3263L31.3359 27.7745L31.2325 27.9641L31.1809 28.3261L30.3884 29.1879L30.13 29.8774ZM31.9905 45.7876L32.559 45.2532L32.8002 44.9085L32.7658 43.9949L33.1964 42.9262L33.6443 42.3746L34.2817 41.8402L34.3851 41.4954L34.4196 41.0817L34.5746 40.7025L34.5229 40.082L34.6435 39.1167L34.833 38.4272L35.1087 37.8411L35.1603 37.1861L34.5402 37.1171L33.8855 36.9275L33.317 37.5136L32.8174 38.5306L33.317 37.5136L33.8855 36.9275L34.5402 37.1171L35.1603 37.1861L35.2465 36.4104L35.6255 35.8588L36.1423 35.5141L36.9347 35.876L36.1423 35.5141L35.6255 35.8588L35.2465 36.4104L35.1603 37.1861L35.1087 37.8411L34.833 38.4272L34.6435 39.1167L34.5229 40.082L34.5746 40.7025L34.4196 41.0817L34.3851 41.4954L34.2817 41.8402L33.6443 42.3746L33.1964 42.9262L32.7658 43.9949L32.8002 44.9085L32.559 45.2532L31.9905 45.7876L31.4048 46.4771L31.9905 45.7876ZM34.1784 49.8728L33.8166 49.304L33.5927 48.942L33.317 48.287L33.0931 47.4768L33.317 48.287L33.5927 48.942L33.8166 49.304L34.1784 49.8728ZM28.7518 43.788L29.4065 43.6501L28.7518 43.788ZM29.4926 43.1675L30.0094 43.6846L30.8535 43.7363L30.0094 43.6846L29.4926 43.1675ZM30.888 60.0601L30.7329 60.1291L30.888 60.0601L34.7641 60.0084L30.888 60.0601ZM36.0734 68.179L35.8839 72.247L35.0225 72.7986L34.5229 72.8848L33.9544 72.6779L33.541 72.5918L33.9544 72.6779L34.5229 72.8848L35.0225 72.7986L35.8839 72.247L36.0734 68.179L36.1767 64.9901L37.107 64.9556L37.2621 61.0427L37.9684 61.0082L39.4499 60.629L37.9684 61.0082L37.2621 61.0427L37.107 64.9556L36.1767 64.9901L36.0734 68.179L36.3146 68.3514L36.8314 69.4028L36.3146 68.3514L36.0734 68.179ZM44.6353 73.1089L44.3424 72.7814L43.9462 72.4366L43.4983 72.6607L42.9643 73.0916L42.413 73.7811L42.9643 73.0916L43.4983 72.6607L43.9462 72.4366L44.3424 72.7814L44.6353 73.1089ZM46.6164 70.9542L46.0996 70.3509L46.1168 69.9717L46.3925 69.558L46.5131 69.2477L46.7887 69.1615L46.5131 69.2477L46.3925 69.558L46.1168 69.9717L46.0996 70.3509L46.6164 70.9542L47.1849 70.8335L46.6164 70.9542ZM48.6665 60.7496L48.4425 61.5081L48.3564 62.3183L48.4942 62.6458L48.3564 63.2835L48.2013 63.387L47.9257 64.1799L46.8576 65.421L47.2366 66.9724L47.4261 67.748L47.1849 68.9719L47.2538 69.3684L47.1849 68.9719L47.4261 67.748L47.2366 66.9724L46.8576 65.421L46.358 65.3176L46.0307 65.4555L45.5828 65.2659L45.2038 65.2486L43.8256 66.0588L42.9298 66.8689L42.5853 67.6101L42.2924 68.0238L41.7756 68.11L41.5689 68.6272L41.4655 68.9719L40.8453 69.2305L40.0873 69.1788L39.6566 68.8685L39.2604 68.7306L38.7953 68.9891L38.5369 69.5235L38.0717 69.851L37.5894 70.3337L36.9003 70.4543L36.7108 70.0579L36.9003 70.4543L37.5894 70.3337L38.0717 69.851L38.5369 69.5235L38.7953 68.9891L39.2604 68.7306L39.6566 68.8685L40.0873 69.1788L40.8453 69.2305L41.4655 68.9719L41.5689 68.6272L41.7756 68.11L42.2924 68.0238L42.5853 67.6101L42.9298 66.8689L43.8256 66.0588L45.2038 65.2486L44.6181 64.7487L43.8945 64.5936L43.6361 63.8869L43.6533 63.5076L43.2571 63.387L42.2235 62.1804L41.9479 61.5426L41.7584 61.353L41.431 60.4739L41.7584 61.353L41.9479 61.5426L42.2235 62.1804L43.2571 63.387L43.6533 63.5076L43.6361 63.8869L43.8945 64.5936L44.6181 64.7487L45.2038 65.2486L45.5828 65.2659L46.0307 65.4555L46.358 65.3176L46.8576 65.421L47.9257 64.1799L48.2013 63.387L48.3564 63.2835L48.4942 62.6458L48.3564 62.3183L48.4425 61.5081L48.6665 60.7496L48.7181 59.3534L48.2358 59.0087L47.7879 58.9225L47.5984 58.6467L47.1505 58.4226L47.5984 58.6467L47.7879 58.9225L48.2358 59.0087L48.7181 59.3534L48.6665 60.7496ZM49.7173 56.8712L49.9929 56.7678L49.7173 56.8712ZM51.1299 58.6812L50.8026 59.4568L51.1299 58.6812L51.5606 58.4571L51.5434 57.0436L51.1644 56.2507L50.9404 56.0094L51.1644 56.2507L51.5434 57.0436L51.5606 58.4571L51.1299 58.6812ZM51.3022 53.5616L52.4564 53.8719L51.3022 53.5616ZM53.7313 53.3893L54.2997 53.4065L53.7313 53.3893ZM54.9372 37.1861L54.7304 37.0654L54.5065 37.0827H54.1964L52.956 36.1518H52.2842L51.9396 35.7899V35.1693L51.44 34.9797L51.9396 35.1693V35.7899L52.2842 36.1518H52.956L54.1964 37.0827H54.5065L54.7304 37.0654L54.9372 37.1861L55.5918 37.2723L54.9372 37.1861ZM57.1422 36.7207L56.746 36.3587L57.1422 36.7207H57.7969H57.1422Z" fill="#5B822F"/>
</svg>
