<svg width="82" height="76" viewBox="0 0 82 76" fill="none" xmlns="http://www.w3.org/2000/svg">
<path d="M56.7748 74.2843L56.3969 73.8807L56.1324 73.6285L55.8049 73.5654L55.5151 73.7924L55.5277 74.1456L55.427 74.3978L54.7971 74.196L54.0413 73.8429L53.6382 73.7294L54.4948 74.3348L55.049 74.6122L55.7041 74.9149L56.1702 74.9906L56.5481 75.1546L56.8126 75.1924L57.0268 75.205L57.3039 75.0411L57.3417 74.8393L57.6314 75.0158L58.0093 74.9906L58.0975 74.7258L57.4551 74.5996L56.7748 74.2843Z" fill="#60B0B2"/>
<path d="M67.6207 47.3608L67.4318 47.1844L67.0034 47.1718L66.6255 47.0079L65.9831 46.3777L65.2399 45.9113L64.4967 45.9365L63.5393 45.634L62.9724 45.8105L63.048 45.508L62.8086 45.1677L61.9772 44.8273L61.3474 44.6257L60.9821 44.9912L60.9569 44.4366L60.0877 44.3484L59.9365 44.1719L60.3018 43.7181L60.2892 43.3274L60.0247 43.2392L59.7602 42.256L59.6468 41.9535L59.483 41.9787L59.4075 41.7518L58.891 41.2729L58.5257 41.1468L58.3619 41.0838L58.0848 41.5628L58.3619 41.0838L57.8328 40.9326L57.4297 40.9704L57.3793 41.0712L56.7873 40.9704L56.5983 40.7687L56.3464 40.4914L56.1574 40.4788L56.1448 40.1889L55.8551 39.8234L55.5402 39.6091L55.1371 39.9494L55.0867 40.1511L55.2504 40.3527L55.1245 40.4536L54.8221 40.5544V40.8065L54.6836 40.9704L55.0111 41.3989L55.0741 41.5628L55.0111 41.3989L54.6836 40.9704L54.8221 40.8065V40.5544L55.1245 40.4536L55.2504 40.3527L55.0867 40.1511L55.1371 39.9494L55.5402 39.6091L55.3512 39.483L55.0993 39.4956L55.0363 39.0419L54.671 38.7646L54.2805 38.7268L54.1167 38.4621L54.545 38.2982L53.953 38.3108L53.3483 38.3486L53.3357 38.4873L53.0586 38.6511L52.6933 38.5881L52.4161 38.336L51.887 38.3991L51.4461 38.3864L51.4336 38.1974L51.1312 37.8949L50.7911 37.8823L50.6399 37.4915L50.451 37.668L50.5014 37.9327L49.8715 38.1596V38.5881L50.0101 38.7772L49.8841 39.1805L49.67 39.2183L49.5062 38.7772L49.7456 38.4495L49.7707 38.1596L49.6196 37.9075L49.9093 37.8319L49.9345 37.7058L49.607 37.8066L49.9345 37.7058L50.0353 37.5167L49.9219 37.3655L49.7456 37.3277L49.4936 37.605L49.2921 37.731L48.889 38.0083L48.511 37.9705L48.4733 38.0839L48.1583 38.0965L47.8686 38.3612L47.7426 38.8402L47.73 39.0293L47.5159 39.0923L47.1254 39.483L46.8734 39.4704L46.6971 39.3066L46.5459 39.1427L46.3318 39.0419L46.0546 39.0293L46.0798 38.9789L45.8027 38.941L45.6263 39.1049L45.324 39.2183L45.1099 39.357L44.8705 39.3948L44.7445 39.2562L44.7068 39.294L44.5052 39.2688L44.5178 39.1553L44.354 38.9536L44.1651 39.0041L44.354 38.9536L44.1399 38.7142L43.9635 38.4873L43.8628 38.1848L43.7872 38.0839L43.7746 37.9327L43.8754 37.794L43.8628 37.6428L43.9257 37.4033L44.0013 37.3403L44.0139 37.0882L44.0013 36.9369L44.0391 36.6848L44.1147 36.4706L44.2407 36.2815L44.2155 36.0798L44.2533 35.9538L44.3036 35.9034L44.1903 35.7395L44.0265 35.6513L43.9005 35.5252L43.762 35.4244L43.6864 35.4118L43.4722 35.3362L43.3715 35.374L43.2455 35.3866L43.1321 35.3488L42.981 35.311L42.9054 35.374L42.7416 35.437L42.5149 35.4496L42.3007 35.3992L42.2251 35.437L42.1873 35.3866L42.0488 35.3992L41.9354 35.5L41.885 35.4874L41.7591 35.4118L41.7087 35.4874L41.5575 35.3866H41.3937H41.5323L41.6583 35.1975L41.7465 35.1849L41.8598 35.0337L41.948 34.7564L41.9228 34.7059L41.9984 34.5043L41.9606 34.416L42.074 34.1766L42.0992 34.0127H41.9984L42.011 33.9371L42.1118 33.9245L42.2125 34.0631L42.3889 33.622L42.4897 33.3825L42.4141 33.2816L42.5779 32.9413L42.8802 32.601L42.9306 32.3237L42.8298 32.2103L42.5275 32.2481L42.0992 32.2355L41.5701 32.3615L41.2174 32.5128L41.1166 32.6766L41.0158 33.1556L40.8521 33.4833L40.5119 33.7102L40.197 33.811L39.8191 33.9119L39.4412 33.9623L38.9877 34.1261L38.824 33.8993L38.3327 33.748L38.1689 33.4707L38.1059 33.1556L37.8414 32.7396L37.8036 32.2985L37.7028 32.0212L37.665 31.7187L37.7658 31.4414L37.9296 30.6851L38.0933 30.2944L38.3705 29.8028L38.3201 29.6137L38.3579 29.3364L38.446 28.9457L38.6098 28.6936L38.9373 28.4163L39.4664 28.1768L40.0081 27.7609L40.4364 27.6348L40.7387 27.597L41.041 27.7231L41.4693 27.6474L41.7591 27.9499L42.0992 27.9626L42.3133 27.8617L42.4645 27.9373L42.5779 27.8617L42.5023 27.7483L42.5653 27.534L42.5275 27.3827L42.7416 27.2945L43.1069 27.2567L43.5226 27.3197L44.0643 27.2441L44.3288 27.3701L44.5052 27.6348L44.5808 27.66L45.1225 27.408L45.2862 27.4962L45.5508 27.9626L45.6263 28.2651L45.45 28.6306L45.4878 28.8449L45.6263 29.2734L45.8027 29.7524L45.9665 29.8784L46.0042 30.1305L46.231 30.2061L46.3822 30.1305L46.5585 29.7902L46.6215 29.5759L46.6971 29.1978L46.5963 28.5424L46.6341 28.3029L46.5081 27.9121L46.4451 27.4332L46.4577 27.0424L46.6215 26.6517L46.9238 26.3114L47.2513 26.0467L47.856 25.6811L47.9694 25.4921L48.2591 25.2904L48.511 25.2526L48.9016 24.9123L49.4306 24.7484L49.8337 24.3199L49.9093 23.7527L49.9219 23.5636L49.7959 23.5258L49.9219 22.9838L49.6574 22.7947L49.9345 22.883V22.5174L50.0983 22.2779L50.0101 22.7443L50.1864 22.9586L49.9345 23.3493L49.9723 23.3619L50.3628 22.9082L50.577 22.6939L50.6273 22.4796L50.5518 22.3788L50.5392 22.0763L50.6399 22.2149L50.7407 22.2527L50.7281 22.3914L51.1816 21.9628L51.3958 21.5721L51.2698 21.5469L51.4587 21.383L51.421 21.4586H51.7107L52.3909 21.2948L52.2901 21.194L51.5973 21.2948L52.0256 21.1309L52.3027 21.1057L52.5169 21.0805L52.8822 20.9797L53.0964 20.9923L53.4365 20.904L53.5247 20.7528L53.4239 20.6268L53.4113 20.8158L53.2223 20.8032L53.1719 20.5133L53.2727 20.2234L53.3987 20.11L53.7388 19.7823L54.2553 19.6184L54.7844 19.4293L55.3386 19.1646L55.326 18.9882L55.8425 18.9125L56.5605 18.8999L55.641 19.3537L55.515 19.8075L55.8425 19.8453L56.4724 19.4545L56.9888 19.2403L58.0596 18.9125L58.7146 18.547L58.4879 18.3579L58.5761 17.9672L57.9462 18.5848L57.1904 18.6605L56.7117 18.3832L56.6991 17.9798L56.7495 17.3748L57.2912 17.0093L57.0014 16.732L56.3338 16.7824L55.263 17.2362L54.3057 17.9546L53.9026 18.0428L54.5828 17.5387L55.4772 16.8076L56.107 16.5681L56.6109 16.1774L57.0644 16.1396L57.7069 16.1522L58.5887 16.2656L59.3445 16.1774L60.0247 15.7236L60.7931 15.5345L61.1584 15.3455L61.5238 15.1438L61.7001 14.5388L61.5993 14.3371L61.297 14.2615V13.8077L61.0955 13.6439L60.4908 13.5052L60.2389 13.2027L59.8106 12.9002L60.1129 12.5725L59.9365 11.9423L59.7098 11.2868L59.6216 10.8331L59.2437 11.0726L58.5887 11.6398L57.8706 11.9171L57.7321 11.6146L57.4045 11.5263L57.5935 10.8835L57.8202 10.4549L57.14 10.4171L57.1274 10.2281L56.8125 9.93816L56.5479 9.7617L56.1574 9.88775L55.7921 9.84993L55.2127 9.71128L54.8725 9.82472L54.5324 10.6188L54.4442 11.0852L53.6758 11.6272L53.953 12.0179L53.9907 12.4591L53.8396 12.812L53.4239 13.1775L52.7688 13.543L51.9752 13.7951L52.1264 14.0724L51.9374 14.9169L51.4461 15.4715L51.043 15.6354L50.6525 15.1186L50.6399 14.5136L50.7911 13.9842L51.106 13.5304L50.6777 13.48L50.0227 13.4422L49.7078 13.2279L49.2795 13.0893L49.1283 12.8372L48.8386 12.6481L48.2213 12.4212L47.5915 12.5221L47.6545 12.1313L47.7804 11.6524L47.2513 11.5641L47.6796 10.9591L48.1079 10.5558L48.9393 9.98858L49.6952 9.58524L50.1864 9.52222L50.4384 9.1945L50.8919 8.98022L51.4587 8.94241L52.139 8.60209L52.3909 8.38781L53.046 7.97187L53.3231 7.71978L53.6002 7.87103L54.1671 7.7954L55.1119 7.45508L55.3134 7.2156L55.2378 6.96351L55.6787 6.71142L55.8299 6.47193L55.5276 6.24505L55.0489 6.16943L54.5702 6.13161L54.1671 6.6484L53.6002 7.05174L52.9704 7.40467L52.857 7.07695L53.2223 6.72402L53.0334 6.42152L52.265 6.78705L52.6429 6.30808L52.0634 6.21985L52.5673 5.99296L52.5295 5.46358L52.3657 5.26191L51.9752 5.18628L51.2572 5.5266L50.7785 6.04338L51.0304 6.23245L51.169 6.52235L50.6147 7.00132L50.3376 6.98872L49.7959 7.37946L50.1613 6.9257L49.733 6.76184L49.3425 6.83747L49.1283 7.13997L48.6118 7.12737L47.982 7.20299L47.5285 6.98872L47.0876 7.02653L46.9616 6.77444L46.7727 6.661L46.4325 6.69882L45.979 6.72402L45.5885 6.88788L45.7649 7.08955L45.1476 7.34164L45.0217 7.05174L44.6312 7.13997L43.5982 7.19039L43.0314 7.08955L43.7746 6.86267L43.5226 6.61058L43.1321 6.6484L42.7164 6.56017L42.0614 6.39631L41.7213 6.19464L41.3308 6.16943L41.041 6.30808L40.5245 6.3837L40.8647 6.01817L40.0333 6.33329L39.9073 5.91734L39.7183 5.86692L39.3782 6.0812L38.9877 6.18203L38.9751 5.99296L38.2571 6.11901L37.4887 6.32068L37.0352 6.27026L36.4179 6.40891L35.8763 6.61058L35.5487 6.57277L35.259 6.34589L34.7425 6.23245L34.4402 6.16943L34.0749 6.03078L33.508 6.10641L33.3191 6.04338L32.6892 6.00557L32.1475 5.86692L31.7192 5.90473L31.2909 5.82911L31.4673 5.72827L30.913 5.70306L30.6233 5.79129L30.6611 5.57702L30.2706 5.47618L29.3762 5.72827L29.0991 5.70306L28.1291 5.90473L27.7008 5.95515L27.0206 6.16943L26.5923 6.39631L25.8364 6.61058L25.1688 6.62319L24.6145 6.87528L24.8917 7.02653L24.9546 7.2282L24.8791 7.46769L25.0806 7.65676L24.9798 7.95926L24.1736 7.97187L24.5515 7.71978H24.2618L23.1029 7.95926L22.2967 8.16093L22.3849 8.45084L22.2841 8.6399L22.6746 8.76595L23.2792 8.70292L23.443 8.81637L23.6949 8.70292L24.2366 8.60209H24.476L23.9595 8.79116L24.0603 8.87939L23.8461 9.10627L23.3674 9.27013L23.1533 9.23231L22.536 9.4718L22.3723 9.39617L22.0069 9.43398L21.5409 9.69868L20.8732 9.97598L20.3567 10.2785L20.3819 10.4928L20.0292 10.7827L20.1552 10.9087L20.193 11.1482L20.8228 11.0474L20.8606 11.2364L20.5709 11.4255L20.256 11.728H20.5079L21.1378 11.5263L20.9992 11.7784L21.3141 11.5893L21.2763 11.854L21.7046 11.665L21.7424 11.7658L22.3723 11.602L21.8306 11.9045L21.3267 12.2952L20.8228 12.4843L20.6213 12.5851L19.7143 12.9002L19.286 13.1145L18.7191 13.1775L17.9759 13.4674L17.3964 13.6313L16.6784 13.8834L16.6406 13.9716L17.5224 13.8203L18.0515 13.6439L18.6561 13.4674L19.1978 13.3162L19.4498 13.354L20.1678 13.1271L20.5583 12.875L21.4779 12.5977L21.818 12.3708L22.3975 12.207L23.0651 11.9927L23.8461 11.6272L23.8335 11.3751L24.8161 11.0095L25.4711 10.6692L26.2773 10.3919L26.2395 10.518L25.6475 10.6818L24.9169 11.186L24.6397 11.4885L25.2066 11.3751L25.7483 11.2112L26.3151 11.0978L26.5671 11.0726L26.8694 10.707L27.4237 10.6062L27.6504 10.8205L28.1795 11.06L28.7715 11.0221L29.2754 11.1986L29.5526 11.2994L29.8423 11.8414L30.1698 11.9927L30.7997 12.0053L31.165 12.0431L30.9256 12.5221L31.0642 12.9506L30.7745 13.4044L30.9886 13.5683L31.039 13.7573L30.8249 14.0346L31.0138 14.4254L30.7367 14.8539L31.102 15.0808L30.7871 15.4085L30.6737 15.8875L31.2783 16.1017L31.4169 16.3412L31.8956 16.8832H31.9586L31.82 17.337L31.6059 17.7907L31.4043 17.9294L31.5051 17.4126L30.9886 17.2235L30.8626 17.3244L30.8249 17.5765L30.6611 18.0554L30.2958 18.7865L29.9431 19.2781L29.5903 19.7696L29.1117 20.2864L29.0109 20.7024L28.7589 21.1687L28.4188 21.6225L28.507 21.925L28.3432 22.3788L28.4692 22.8577L28.5826 23.0468L28.507 23.1729L28.5448 23.9669L28.7589 24.5341L28.6834 24.8366L28.7715 24.9249L29.1746 24.9879L29.288 25.1391L29.54 25.1644L29.5274 25.3282L29.7163 25.3912L29.9053 25.719L29.8801 25.9963L29.8927 26.5004L29.9557 26.9542L30.0186 27.3197L30.0942 27.6726L30.321 27.8365L30.5729 28.2272L30.4847 28.4793L30.2454 28.681L30.0564 28.6558L30.006 28.6936L30.2076 29.0213L30.4595 29.1474L30.5477 29.2986L30.6233 29.223L30.9004 29.4751L31.0894 29.6516L31.102 29.9541L31.0012 30.37L31.2154 30.5087L31.5051 30.786L31.757 31.1011L31.82 31.4414H31.9082L32.1475 31.2397L32.1853 31.1389L32.0594 30.8868L31.9208 30.6347L31.694 30.6221L31.7318 30.3196L31.6563 30.0549L31.5681 29.8028L31.5303 29.286L31.3035 29.0087L31.2532 28.8071L31.1524 28.6684V28.3029L31.0642 28.3155L31.0516 28.1264L30.9886 28.0886L30.9508 27.9626L30.7115 27.5718L30.6107 27.3449L30.6989 26.9164L30.7115 26.6517L30.8752 26.4248L31.0894 26.5761L31.2532 26.5635L31.5303 26.7777L31.4547 26.992L31.4925 27.4206L31.6185 27.8365L31.5807 28.013L31.7318 28.2903L31.9334 28.5928L32.1727 28.6306L32.1979 29.0213L32.4121 29.2986L32.6262 29.4247L32.4625 29.7776L32.5254 29.9036L32.8908 30.1305L33.0545 30.4834L33.445 30.912L33.7851 31.4792L33.8985 31.7565V31.9708L34.0245 32.2229L33.9993 32.4119L33.8607 32.5506L33.8859 32.7144L33.7222 32.7775L33.7977 33.0548L33.9867 33.4077L34.4528 33.7228L34.6166 33.9749L35.0952 34.1513L35.3598 34.1892L35.4605 34.3404L35.8259 34.6051L36.3423 34.8698L36.6951 34.9454L37.1234 35.1975L37.4761 35.2984L37.8036 35.4496L38.0555 35.3866L38.4838 35.1723L38.761 35.1345L39.1515 35.2731L39.3782 35.4622L39.8569 36.0672L39.8947 35.9034L39.9703 35.7773L39.9073 35.6765L40.197 35.2227L39.9073 35.6765L39.9703 35.7773L39.8947 35.9034L39.8569 36.0672L40.0962 36.2941L40.3104 36.4075L40.6127 36.4201L40.8647 36.521L40.9906 36.6344L41.2678 36.6722L41.4567 36.7857L41.6205 36.8361L41.9102 36.8487L41.9732 36.7227L42.0236 36.5084L41.9732 36.7227L42.1244 36.7731L42.1873 36.9495L42.1496 36.9873L42.074 36.8991L42.011 36.9873L42.2377 37.2394L42.4267 37.4159L42.5149 37.605L42.729 37.8319L42.8928 38.0083L42.7668 38.1092L42.8928 38.1848L42.8172 38.3612L42.8046 38.5377L42.8676 38.6511L43.0188 38.7016L43.1195 38.8654L43.2203 38.7268L43.1951 38.5629L43.3211 38.6637L43.3463 38.8276L43.51 38.9032L43.699 39.0167L43.825 39.1427L43.8376 39.2688L43.7746 39.3696L43.8754 39.483L44.1273 39.6091L44.1777 39.6973L44.2029 39.5713H44.417L44.543 39.6343L44.7445 39.6721L44.8327 39.8864L44.9965 39.9242L45.0721 39.8234L45.1476 40.1637L45.3744 40.1385L45.45 40.0628L45.5759 39.9872L45.3618 39.6847L45.4122 39.5713L45.5256 39.5461L45.7271 39.4074L45.8279 39.2183L46.042 39.1805L46.2814 39.3444L46.3696 39.5335L46.4955 39.5713L46.3696 39.7225L46.4577 40.025L46.6215 40.1889L46.8105 40.4914L46.8608 40.9704L46.7601 41.109L46.8608 41.6258L46.7601 41.9535L46.9364 42.0796L46.7475 42.3695L46.5333 42.7224L46.2814 42.7602L46.1554 42.9619L46.168 43.2392L45.979 43.277L46.0546 43.4534L45.7145 43.6677L45.4374 43.7938L45.4752 44.0206L45.2862 44.3862L45.198 44.7265L45.0343 44.8147L45.1225 45.3315L45.0217 45.4954L45.324 45.7349L45.513 45.4828L45.6263 45.7349L45.3744 46.1508L45.4374 46.3903L45.3114 46.5163L45.324 46.718L45.3114 46.5163L45.4374 46.3903L45.3744 46.1508L44.9839 46.5037L44.8453 46.8945L45.1099 47.4365L44.9587 47.6885L45.324 47.9154L45.7145 48.281L45.8909 48.6969L46.105 48.949L46.6341 50.0708L47.1758 51.1044L47.6545 51.848L47.5789 52.0119L47.8308 52.4782L48.2339 52.8186L49.1787 53.4236L50.199 53.9908L50.262 54.2177L50.7785 54.5454L51.0179 54.4067L51.1186 54.1168L51.3706 53.5118L51.1186 54.1168L51.3958 54.495L51.4965 54.8983L51.7737 55.1378L51.6729 55.6798L52.0004 56.31L52.0508 56.4613L52.0004 56.31L51.6729 55.6798L51.7737 55.1378L51.4965 54.8983L51.3958 54.495L51.1186 54.1168L51.0179 54.4067L50.7785 54.5454L50.9675 55.3395L51.0934 56.2596L51.0808 57.5074V58.667L51.1564 59.751L50.9927 60.4317L51.1816 61.1123L51.1438 61.5787L51.421 62.4106L51.4084 63.2425L51.3076 64.1374L51.2572 65.0575L51.0682 65.0701L51.2824 65.7129L51.5721 66.2675L51.4713 66.6457L51.6351 67.6666L51.7611 68.4355L52.0634 68.5111L51.9626 67.8305L52.3153 67.9691L52.4791 69.0909L51.9122 68.9019L52.0886 69.7968L51.8493 70.2758L52.5673 70.4396L52.265 70.8682L52.2776 71.3975L52.7184 72.3303L53.0838 72.6958L53.0964 73.0109L53.3861 73.3512L54.0411 73.6537L54.6962 74.0193L55.2378 74.1957L55.4142 74.1831L55.2504 73.679L55.5528 73.4899L55.7039 73.3638H56.0693L56.2582 73.4017L55.8425 73.0865L55.4772 72.5319L55.5528 72.2799L55.8551 72.0656L55.8929 71.4354L56.3086 71.1329L56.296 70.6413L55.8425 70.5278L55.2756 70.1371L55.263 69.7212L55.515 69.4439L55.9307 69.4313L55.9433 69.1414L55.8425 68.5994L56.0944 68.259L56.4598 68.0952L56.2456 67.8179L56.0567 67.9943L55.7039 67.8305L55.4898 67.2885L55.6158 67.1498L56.107 67.3515L56.5479 67.2759L56.7621 67.0868L56.5983 66.8095L56.5857 66.381L56.4094 66.0406L56.9258 66.0911L57.8202 65.9776L58.4249 65.6751L58.7146 64.9441L58.6894 64.6668L58.3493 64.4147L58.3367 64.0239L57.6565 63.545L57.6313 63.2551L57.9714 63.5576L58.2863 63.545L58.765 63.7845L59.0044 63.734L59.3697 63.8349L59.8358 63.5324L59.9743 63.1794L59.7854 62.8517L59.9491 62.587L59.609 62.2089L59.1807 61.9064L58.639 61.5409L58.4753 61.5535L57.9336 61.1249L57.6313 61.1879L58.1478 60.4317L58.6138 59.8897L58.1478 60.4317L57.6313 61.1879L57.9336 61.1249L58.4753 61.5535L58.639 61.5409L59.1807 61.9064L59.609 62.2089L59.9491 62.587L59.7854 62.8517L59.9743 63.1794L60.2263 62.8517L60.3522 62.3223L60.6294 62.0576L60.9695 61.6165L61.36 60.6333L61.6623 60.3308L61.7379 60.0535L61.7631 59.4863L61.6497 59.1838L61.6749 58.7553L62.0402 58.2007L62.5693 57.7469L63.0984 57.5831L63.4133 57.331L64.1565 57.1167H64.673L64.7738 56.7764L65.1391 56.5243L65.1895 55.9571L65.643 55.226L65.6808 54.4823L65.8193 54.2555L65.8445 53.8899L65.9453 53.0202L65.8571 51.9741L65.9831 51.5581L66.1091 51.5455L66.4492 51.0665L66.7389 50.4363L67.4191 49.6674L67.6585 49.3019L67.8349 48.3818L67.7467 48.0415L67.6207 47.3608ZM41.5701 34.2396L41.5575 34.3278L41.5701 34.2396ZM50.0227 19.7318L50.4258 19.6562L50.5896 19.757L50.7533 19.631L50.9171 19.5554L50.9927 19.5932L51.0053 19.6058L51.0179 19.6814L50.9675 19.8957L50.5644 20.0722L50.2242 20.0343L49.8715 20.0217L49.6448 20.0848L49.6196 20.2486L49.607 20.299L49.0905 20.6268L48.7 20.7906L48.4481 20.8662L48.1205 21.0175L47.7678 21.0931L47.5537 21.0679L47.3143 20.9545L47.5537 20.7402L47.793 20.778L48.1835 20.6015L48.4355 20.4503L48.574 20.4251L48.8008 20.4755L48.9519 20.3999L49.2039 20.3242L49.6196 20.2486L49.6448 20.0848L49.6196 20.0974L49.4684 20.1226L49.3047 20.0722L49.5062 19.8831L49.67 19.8201L50.0227 19.7318ZM44.4422 17.1605L44.8453 17.2488L45.1854 17.4126L45.5759 17.337L46.042 17.4756L46.3192 17.2614L46.5963 17.1731L46.7601 17.0471L46.886 16.9715L47.2387 17.0723L47.5285 17.0849L47.6041 17.1605L47.6167 17.463L48.0702 17.5513L47.919 17.7025L48.0198 17.8664L47.856 18.068L48.0198 18.1437L47.856 18.3327L47.9568 18.3453L48.0702 18.2697L48.1079 18.3958L48.4103 18.4588L48.7504 18.4714L49.0905 18.5218L49.4432 18.6226L49.5188 18.7991L49.6448 19.2151L49.4306 19.3915L49.0905 19.3159L49.0023 18.9756L48.9267 19.3159L48.5866 19.6184L48.511 19.8705L48.4103 20.0217L48.045 20.1982L48.1079 19.9839L48.1457 19.6814L48.0072 19.6184L47.6293 19.8705H47.5663L47.5915 19.7444L47.9316 19.5302L48.0702 19.2781L48.1331 19.026L47.8938 18.8117L47.5663 18.6983L47.4151 18.9125L47.2891 18.963L47.1002 19.2403L47.138 19.0512L46.9112 19.1772L46.7223 19.3537L46.4955 19.631L46.3822 19.8579L46.3948 20.1982L46.231 20.5511L45.9413 20.8158L45.8153 20.8914L45.6767 20.9545H45.513L45.4878 20.9167L45.4752 20.6268L45.5382 20.4881L45.6011 20.3621L45.6515 20.0974L45.8657 19.7949L46.1176 19.4167L46.5207 19.0008H46.4577L45.979 19.3537L45.9413 19.2907L46.1932 19.089L46.6089 18.7361L46.9364 18.6983L47.3269 18.5848L47.6545 18.6479H47.667L48.0828 18.61L47.9568 18.3958L47.856 18.3832L47.73 18.3579L47.6922 18.2067L47.2387 18.2445L46.7979 18.3706L46.5837 18.1689L46.3696 18.0933L46.6467 17.8034L46.1806 17.9798L45.7523 18.1689L45.3492 18.2949L45.1602 18.1059L44.6816 18.2193L44.7193 18.1437L45.1225 17.9168L45.5382 17.7025L46.0546 17.5134L45.5885 17.3748L45.198 17.4504L44.8579 17.2866L44.4422 17.1605L44.1651 17.1227L44.4422 17.1605ZM44.0013 16.7446H44.1399H44.0013L43.8879 16.9589L44.0013 16.7446ZM30.976 26.0971L31.0642 25.9837L30.976 26.0971L31.5177 26.3366L30.976 26.0971ZM32.538 26.7525L31.7696 26.4374L32.538 26.7525ZM33.8607 26.7525L33.9363 26.5256L33.8607 26.7525ZM40.6505 34.3278L40.6127 34.6429L40.6505 34.3278ZM40.7891 35.2984L40.8269 35.1093L40.7513 35.0715L40.7135 34.9454L40.5497 34.8194L40.386 34.6303L40.5497 34.8194L40.7135 34.9454L40.7513 35.0715L40.8269 35.1093L40.7891 35.2984ZM41.2426 36.2311L41.356 36.0924L41.2426 36.2311L41.3685 36.2689L41.2426 36.2311ZM41.6205 36.5462L41.6079 36.4706L41.6205 36.5462ZM41.3811 35.8656L41.3434 35.9664L41.3811 35.8656L41.6331 35.7017L41.3811 35.8656ZM43.4722 36.0042L43.5478 36.0798L43.4722 36.0042ZM45.9035 47.0835L45.6893 46.8062L45.4878 46.7432L45.6893 46.8062L45.9035 47.0835ZM50.4006 45.8357L50.0983 46.4029L50.4006 45.8357ZM49.3047 38.2478L49.4936 38.0839L49.3047 38.2478ZM48.763 49.0246L48.5362 48.5078L48.763 49.0246L48.8008 49.0624L48.763 49.0246ZM48.9393 48.0163L48.6496 48.1801L48.9393 48.0163ZM49.9849 46.7684L49.5818 46.8693L49.0401 47.2474L49.5818 46.8693L49.9849 46.7684ZM50.325 50.4741L50.3124 49.617L50.325 50.4741ZM50.0479 46.6802L49.9975 46.7558L50.0479 46.6802L50.5014 46.7054L50.0479 46.6802ZM50.5014 43.6929L50.7911 43.756L50.5014 43.6929ZM51.7611 43.34L51.6225 43.1635L51.7611 43.34L51.8493 43.6803L51.7611 43.34ZM57.3415 42.8988L57.5431 42.9493L57.7824 42.8862L58.0596 43.0123L57.7824 42.8862L57.5431 42.9493L57.3415 42.8988L57.3038 43.0627L57.3415 42.8988ZM57.3415 43.2896L57.3793 43.1761L57.3415 43.2896L57.0644 43.2518L57.3415 43.2896ZM56.8503 55.1756L56.9636 54.9235L57.0014 54.4823L56.8629 54.1294L57.0014 54.4823L56.9636 54.9235L56.8503 55.1756ZM56.9133 55.4907L56.8629 55.2386L56.9133 55.4907L56.7747 55.6041L56.9384 55.9193L56.9762 56.6755L56.9384 55.9193L56.7747 55.6041L56.9133 55.4907ZM56.4346 41.7392L56.4094 41.6132L56.4346 41.7392L56.3338 42.0291L56.5479 42.4325L56.7117 42.4451L56.7369 42.5711L56.7117 42.4451L56.5479 42.4325L56.3338 42.0291L56.4346 41.7392ZM56.5857 53.9908L56.5101 53.7639L56.5605 53.4488L56.5101 53.7639L56.5857 53.9908ZM55.5024 41.8275L55.6032 42.0922L55.4646 42.2812L55.3764 42.7602L55.5024 43.0501L55.5276 43.3022L55.8299 43.5669L55.5276 43.3022L55.5024 43.0501L55.3764 42.7602L55.4646 42.2812L55.6032 42.0922L55.5024 41.8275ZM55.5276 52.7555L55.389 52.7681L55.6284 53.4236L55.389 52.7681L55.5276 52.7555ZM55.3512 52.0245L55.389 52.3018L55.3512 52.0245ZM55.4394 52.4152L55.5024 52.5161L55.5276 52.7429L55.5024 52.5161L55.4394 52.4152ZM55.2882 41.3737L55.4016 41.4998L55.326 41.7518L55.4016 41.4998L55.2882 41.3737ZM54.797 55.7932L54.9859 55.3016L55.8173 55.1378L56.2708 55.1504L56.7495 55.4403L56.2708 55.1504L55.8173 55.1378L54.9859 55.3016L54.797 55.7932ZM53.6632 42.9493L53.6884 43.0753L53.6632 42.9493L53.2349 42.9114L53.1719 42.5585L53.1971 42.2308L53.1719 42.5585L53.2349 42.9114L53.6632 42.9493ZM52.9956 42.0417L53.2097 42.1804L52.9956 42.0417ZM52.8444 49.7809L52.8066 50.1968L52.8822 50.4111L52.857 50.7892L52.8822 50.4111L52.8066 50.1968L52.8444 49.7809ZM56.7117 58.1881L56.0818 57.7721L55.6787 57.6839L54.6962 56.7638L54.608 56.6503L54.0537 56.6251L53.9152 57.0789L53.5876 56.6755L52.9326 56.5495L52.5799 57.0537L52.2398 57.1293L52.5799 57.0537L52.9326 56.5495L53.5876 56.6755L53.9152 57.0789L54.0537 56.6251L54.608 56.6503L54.6962 56.7638L54.8221 56.0957L54.8096 55.831L54.8221 56.0957L54.6962 56.7638L55.6787 57.6839L56.0818 57.7721L56.7117 58.1881L57.2282 58.4023L57.329 58.6544L57.2282 58.4023L56.7117 58.1881ZM57.4549 59.6502L56.951 59.4863L57.4549 59.6502L57.9966 59.7384L57.4549 59.6502ZM58.3115 57.7217L58.2359 57.5074L58.1478 56.9906L58.047 56.8268L58.1478 56.9906L58.2359 57.5074L58.3115 57.7217L58.4879 57.7469L58.3115 57.7217ZM59.3319 59.3855L59.2815 58.9443L59.0044 58.6166L58.7776 58.7175L58.7524 59.2216L58.7776 58.7175L58.8406 58.4023L58.8658 58.062L58.8406 57.7595L58.6516 57.6587L58.8406 57.7595L58.8658 58.062L58.8406 58.4023L58.7776 58.7175L59.0044 58.6166L59.2815 58.9443L59.3319 59.3855Z" fill="#60B0B2"/>
<path d="M51.4588 3.91365L51.7359 3.98932L52.3406 3.93887L52.8444 3.61099L53.0964 3.3966L53.0838 3.19482L52.983 3.25788L52.5547 3.22005L51.8871 3.37138L51.5596 3.35877L51.1816 3.68665L51.7611 3.66143L51.4588 3.91365Z" fill="#60B0B2"/>
<path d="M52.4919 2.52773L52.8446 2.65386L53.3107 2.70432L53.3988 2.52773L53.4114 2.33853L52.7564 2.18717L52.2273 2.13672L52.0384 2.28808L52.2903 2.37637L51.8242 2.5025L52.4919 2.52773Z" fill="#60B0B2"/>
<path d="M50.5142 4.95957L49.8592 4.89651L49.708 5.04786L50.2245 5.38839L50.3001 5.56497L50.6024 5.61542L51.333 5.43884L51.7865 5.02264L51.4464 4.83345L51.9755 4.61904L52.0259 4.4803L51.3582 4.54337L51.0559 4.45508L50.426 4.65688L50.5142 4.95957Z" fill="#60B0B2"/>
<path d="M54.3811 3.37159L54.5071 3.54815L54.3055 3.76255L54.1796 4.01478L54.9228 4.1535L55.4141 4.20395L56.1195 4.19134L57.1399 4.12828L57.5178 4.17873L58.0972 4.09045L58.4122 3.96433L58.5003 3.78777L58.2988 3.62382L57.7823 3.5986L57.0769 3.63643L56.4722 3.72471L56.0187 3.68688L55.5904 3.66166L55.4896 3.57338L55.2125 3.47248L55.4645 3.30853L55.3385 3.16981H54.696L54.4945 3.03108L53.8646 3.00586L53.5371 3.18242L53.7639 3.30853L54.3811 3.37159Z" fill="#60B0B2"/>
<path d="M49.1409 6.18204L48.7 5.96777L48.3347 5.74089L48.5488 5.41318L48.7882 4.97203L48.5866 4.79557L48.3221 4.71994L47.9568 4.78296L47.7048 5.24932L47.3269 5.43839L47.5285 4.98463L47.3773 4.83338L46.7349 5.07286L46.5081 4.84598L45.5886 4.97203L46.0043 4.77036L45.7523 4.68213L44.5178 4.95942L44.0643 5.13588L43.3841 5.4762L43.8628 5.60224L44.4044 5.58964L43.3841 5.7787V5.94256L43.888 5.95516L44.669 5.91735L45.2484 6.03079L44.7068 6.11902L44.2155 6.08121L43.5982 6.16943L43.2959 6.21985L43.3589 6.58538L43.7242 6.53496L44.0895 6.67361L44.0643 6.88788L44.7446 6.85007L45.7271 6.77444L46.5585 6.61058L46.9994 6.58538L47.5033 6.71142L48.0954 6.78704L48.3599 6.61058L48.2969 6.43412L48.9142 6.39631L49.1409 6.18204Z" fill="#60B0B2"/>
<path d="M54.6082 2.64039L54.8727 2.48906L54.6711 2.35033L54.52 2.32511L54.1295 2.3125L53.9531 2.46383L53.8901 2.62778L54.0287 2.72867L54.6082 2.64039Z" fill="#60B0B2"/>
<path d="M45.7271 3.48506L46.5963 3.29586L46.9238 3.27064L47.3899 3.13189L47.8938 2.80396L47.3647 2.86702L46.886 2.85441L45.8153 3.13189L44.7949 3.45984L45.1098 3.54813L45.7271 3.48506Z" fill="#60B0B2"/>
<path d="M54.2427 2.84176L54.8095 2.86697L54.9733 2.85436L55.0615 2.81654L54.9355 2.72827H54.3057L54.2427 2.84176Z" fill="#60B0B2"/>
<path d="M41.7464 5.77945L42.9179 5.56505L43.1572 5.36326L43.9508 5.03535L45.1727 4.72005L45.727 4.60654L45.5884 4.41736L45.4247 4.29124L44.5933 4.27863L44.2406 4.17773L43.0061 4.24079L42.9809 4.51826L42.3132 4.80833L41.6582 5.14885L41.2803 5.33803L41.7968 5.57766L41.7464 5.77945Z" fill="#60B0B2"/>
<path d="M46.9745 3.42167L45.9541 3.83787L46.3194 3.91354L47.8814 3.86309L46.9493 4.06488L46.8233 4.20361L47.3398 4.191L48.4105 4.00182L49.6324 3.92615L50.0733 3.72436L50.2749 3.52257L49.96 3.49734L49.582 3.57302L49.6324 3.40906L49.7962 3.20727L49.5191 3.16943L49.0278 3.30816L48.9648 3.72436L48.4231 3.68652L48.1712 3.43428L47.4531 3.29555L46.9745 3.42167Z" fill="#60B0B2"/>
<path d="M49.8462 2.7916L50.1234 2.6655L49.7581 2.58984L49.2416 2.64028L48.7881 2.76638L49.0778 2.90509L49.8462 2.7916Z" fill="#60B0B2"/>
<path d="M49.9471 6.63609L50.3124 6.78745L50.6778 6.61087L50.6022 6.43429L50.577 6.34601L50.4384 6.25772L50.1739 6.13159L49.7456 6.33339L49.3047 6.48474L49.607 6.69916L49.9471 6.63609Z" fill="#60B0B2"/>
<path d="M49.2923 4.54346L48.8136 4.55607L48.6372 4.61913L48.8262 4.93442L49.4434 4.63174L49.2923 4.54346Z" fill="#60B0B2"/>
<path d="M50.5267 2.41347L50.237 2.33781L50.0984 2.3252L49.5945 2.43869L49.5063 2.48914H50.0354L50.5267 2.41347Z" fill="#60B0B2"/>
<path d="M52.6304 9.87534V10.0015L52.8949 10.0267L53.5122 9.73663L53.5877 9.64835L53.0587 9.63574L52.6304 9.87534Z" fill="#60B0B2"/>
<path d="M57.5808 7.34183L57.7068 7.14003L57.5052 7.01392L57.1399 7.07698L56.7998 7.34183L56.7368 7.58145L57.1651 7.55623L57.4926 7.40489L57.5808 7.34183Z" fill="#60B0B2"/>
<path d="M53.8397 3.95123L53.8649 3.81249L53.7515 3.66113L53.1343 3.77465L52.7563 3.96385L53.0335 4.07736L53.487 4.1152L53.8397 3.95123Z" fill="#60B0B2"/>
<path d="M52.3408 4.6317L52.1141 4.85871L51.9629 5.24968L52.3408 5.2749L53.021 4.92177L53.5123 4.83349L54.3941 4.44252L53.8524 4.32902L53.1722 4.31641L52.7061 4.44252L52.3408 4.6317Z" fill="#60B0B2"/>
<path d="M58.1353 4.88405H58.5006L58.8659 4.89666L58.9163 4.77054L58.5384 4.53092L57.7952 4.48047L57.6062 4.50569L57.4551 4.66965L57.6314 4.92189L57.7196 4.94711L58.1353 4.88405Z" fill="#60B0B2"/>
<path d="M57.0642 18.2951L57.0013 18.0303L56.7871 18.1942L56.8249 18.3834L57.3162 18.6104L57.4925 18.5726L57.7823 18.3582H57.3666L57.0642 18.2951Z" fill="#60B0B2"/>
<path d="M57.9589 1.5435L58.3368 1.68215L59.4327 1.64434L60.0626 1.69476L59.4327 1.8208L59.2438 1.79559L58.425 1.77038L58.3242 1.97206L58.5887 2.1107L58.3368 2.26196L57.6817 2.35019L57.2534 2.50144L57.6691 2.57707L57.8203 2.84176L57.1653 2.6653L56.9385 2.70311L56.7622 2.99302L56.0567 3.09385L55.8804 3.29552L56.4724 3.32073L56.9007 3.37115L57.9337 3.30813L58.6769 3.43417L59.7854 3.16948L59.8736 3.06864L59.3068 3.08125L59.3571 2.99302L59.924 2.86697L60.2389 2.70311L60.8436 2.57707L61.2845 2.43842L61.2089 2.24935L61.4986 2.17373L61.1207 2.12331L62.1033 2.0855L62.3804 2.00987L63.0733 1.93424L63.8921 1.63173L64.4967 1.5309L65.4037 1.31662H64.7487L65.0888 1.241L65.8824 1.16537L66.739 1.02672L66.8272 0.925883L66.3737 0.837653L65.7816 0.799839L65.0384 0.77463L64.4211 0.762026L63.8165 0.736816L62.9221 0.787234L62.7961 0.749422L61.8891 0.77463L61.3223 0.799839L60.8688 0.862861L60.4405 1.03932L60.2263 0.951093L59.8862 0.925883L59.2942 1.05193L58.6517 1.10235L58.2864 1.11495L57.7573 1.17797L57.6691 1.29141L57.8833 1.40485L57.9589 1.5435Z" fill="#60B0B2"/>
<path d="M61.675 7.66935L61.3978 7.21559L60.8688 7.11475L60.2011 6.79963L60.9947 6.58535L60.9192 6.14419L60.7302 5.95512L59.9996 5.76605L59.8232 5.47614L59.1052 5.58959L59.206 5.38791L58.891 5.16103L58.2864 4.93414L57.8329 5.12321L57.0393 5.24926L57.329 4.94675L57.1274 4.48038L56.1071 4.66945L55.4772 5.03498L55.452 4.74508L55.9559 4.46777L54.9734 4.58121L54.4569 4.77028L53.8396 5.17363L53.5499 5.6274L54.0412 5.64L53.4995 5.84168L53.6633 6.00554L54.1797 6.08117L54.8222 6.20721L56.0315 6.32066L56.7243 6.25763L57.0141 6.11898L57.1904 6.28284L57.4802 6.30805L57.6565 6.59796L57.3416 6.724L57.9715 6.87526L58.3746 7.11475L58.4249 7.27861L58.3872 7.49289L57.6313 7.95926L57.3416 8.19875L57.3668 8.37521L56.548 8.43824L55.8552 8.45084L55.3765 8.81637L55.5906 8.98024L56.7243 8.90461L56.8125 8.76596L57.2282 9.00544L57.6313 9.25754L57.4298 9.39619L57.7573 9.64828L58.4249 9.93819L59.3697 10.1399L59.3949 9.9634L59.1556 9.64828L58.8406 9.21972L59.5839 9.62307L59.9996 9.76172L60.3145 9.39619V8.90461L60.2263 8.77856L59.8484 8.55168L59.6091 8.26177L59.8106 7.98447L60.3145 7.92144L60.6546 8.40042L61.0073 8.6021L61.9521 8.03489L62.2418 7.69456L61.675 7.66935Z" fill="#60B0B2"/>
<path d="M61.5361 18.2571L61.7377 18.2319L62.04 17.753L62.0022 17.4126L62.0274 17.1227L61.6999 17.211L61.9518 16.8076L61.5739 16.6438L61.3346 16.7824L60.9944 16.6312L61.196 16.4421L60.9441 16.3287L60.6165 16.5051L61.0448 16.0262L61.3849 15.6984L61.5109 15.5472L61.322 15.522L60.8937 15.711L60.5284 16.0135L59.8103 16.8833L59.3442 17.211L59.4828 17.3622L59.1553 17.5513L59.1679 17.7151L60.0119 17.7278L60.4906 17.7025L60.8685 17.8286L60.4906 18.0933L60.7425 18.1059L61.3849 17.6269L61.4857 17.7025L61.2716 18.1437L61.5361 18.2571Z" fill="#60B0B2"/>
<path d="M54.3561 9.06893L54.0538 9.10677L54.1672 8.86715L53.8396 8.71581L53.5499 8.55186L53.4113 8.42575L53.172 8.50142L53.2476 8.27441L53.0082 8.23657L52.5673 8.69059L52.2524 9.08154L51.7485 9.33377L52.3028 9.27072L52.2398 9.57339L52.9578 9.30855L53.4995 9.04371L53.5751 9.27072L54.0916 9.38422L54.5199 9.23288L54.3561 9.06893Z" fill="#60B0B2"/>
<path d="M53.9275 10.0642L53.9023 10.0894V10.2408L54.0535 10.2912L54.3684 10.0264L54.3306 9.91284H54.1795L53.9275 10.0642Z" fill="#60B0B2"/>
<path d="M29.6408 14.1606L29.477 14.3372L29.3511 14.5642L29.4393 14.7282L29.3763 14.9804L29.4393 15.2327H29.6156L29.5904 14.7913L30.2203 14.1859L29.792 14.2363L29.6408 14.1606Z" fill="#60B0B2"/>
<path d="M56.1069 2.11152L55.729 2.21242L55.54 2.35115L55.6786 2.52771L56.2707 2.57816L56.8753 2.54032L57.7949 2.23764L58.3618 2.12414L58.135 1.99802L58.1854 1.74579L57.7697 1.68273L57.354 1.59445L57.2154 1.40527L56.4974 1.41788L56.5226 1.50617L56.1699 1.53139L55.8172 1.64489L55.3889 1.80885L55.3511 1.9728L55.5274 2.11152H56.1069Z" fill="#60B0B2"/>
<path d="M58.3367 16.8961L58.3493 16.7952L57.984 16.5682L57.4675 16.4294L57.3037 16.4799L57.606 16.7321L58.1099 16.8961H58.3367Z" fill="#60B0B2"/>
<path d="M31.203 17.2999L31.4675 17.2116L31.4801 16.9215L31.203 16.6945L31.1652 16.4297V16.2531L30.7999 16.1901L30.5857 16.1018L30.2204 15.9883L30.107 16.1144L30.0566 16.4045L30.4346 16.5054L30.3968 16.6567L30.6487 16.8585V17.0477L31.203 17.2999Z" fill="#60B0B2"/>
<path d="M48.2715 33.1682L48.599 33.143L48.9391 33.08L49.0021 32.9413L48.662 32.7145L48.3092 32.6893L48.3596 32.538L48.0951 32.4246H47.9187L47.6542 32.1725L47.2889 31.8196L47.1251 31.6935L46.6716 31.7566L46.5079 31.5549L46.0796 31.3658L45.6891 31.3532L45.286 31.3154L45.16 31.3784L44.7947 31.4289L44.5301 31.5423L44.2908 31.6683L44.1522 31.87L43.8877 32.0465L44.0767 32.0969L44.3286 32.0339L44.4168 31.8952L44.6183 31.8826L44.9962 31.5927L45.4749 31.6179L45.2734 31.7566L45.4371 31.8826L46.0418 31.9582L46.1804 32.0843L46.6087 32.2229L46.8858 32.2103L46.9614 32.5254L47.1125 32.6893L47.4149 32.7271L47.6038 32.8657L47.2385 33.1808L47.9439 33.1304L48.2715 33.1682Z" fill="#60B0B2"/>
<path d="M51.7612 33.8744L51.5344 33.6726L51.3329 33.66L51.3581 33.4834L51.0935 33.496L51.0179 33.3069H50.892L50.6274 33.1681L50.2369 33.1555L50.1614 33.2564L49.7582 33.1681L49.4559 33.1555L49.3425 33.3069L49.6323 33.3951L49.6071 33.5969L49.8086 33.8492L49.6197 33.9753L49.2544 33.9248L48.8135 33.8492L48.7505 34.0383L48.9898 34.2023L49.2292 34.1014L49.5189 34.1392L49.7582 34.1014L50.0732 34.2023V34.3536L50.1991 34.4419L50.4259 34.0635L50.6022 33.9753L50.6526 34.1266L50.8542 34.0888L50.955 33.9753L51.1061 34.0131L51.3329 33.9879L51.5596 34.1014L51.7612 33.8744Z" fill="#60B0B2"/>
<path d="M81.2129 1.24106L80.3311 1.17804L78.8446 1.30408L78.0384 1.44273L78.4289 1.24106L78.2274 1.11502L77.6101 1.21585L76.7535 1.08981L75.6954 1.14023L75.5694 1.0772L77.1818 1.03939L78.3155 1.02679L78.895 0.900742L77.1566 0.648653L74.8766 0.61084L73.831 0.636049L73.3901 0.749489L72.3824 0.736884L71.2612 0.92595L71.1227 1.0772L71.7147 1.26627L71.1731 1.15283L70.7699 1.12762L70.1527 1.00158L69.2205 1.17804L68.9938 1.0772H68.0742L67.1168 1.12762L66.3358 1.21585L66.3106 1.37971L65.8445 1.41752L64.5596 1.68222L64.1565 1.82086L64.8746 1.95951L64.6226 2.09816L63.3125 2.28723L61.952 2.4889L61.7505 2.64015L62.3174 2.81661L63.5897 2.91745L62.9346 2.93005L61.9772 3.0687L62.3048 3.346L62.5693 3.47204L63.4007 3.44683L64.2951 3.43423L64.9627 3.45944L65.6556 3.71153L65.5422 3.90059L65.8571 4.06445L65.9831 4.53082L66.0713 4.84593L66.1846 5.00978L65.5674 5.43833L65.8067 5.55177L66.1846 5.47615L66.424 5.64L66.8901 5.94251L66.2224 5.81647H65.8949L65.6304 6.05595L65.4918 6.38366L65.8697 6.53492L66.2098 6.4719L66.4492 6.39627L66.9279 6.23241L66.6885 6.59794L66.4492 6.79961L65.8319 6.97607L65.2147 7.53067L65.391 7.70713L65.0887 8.06005L65.4162 8.51381L65.2776 8.95497L65.3406 9.28268L65.7689 9.9129L65.8319 10.4045L66.1091 10.6818H66.8901L67.331 11.0977L67.9104 11.0725L68.2631 10.5683L68.5781 10.1524L68.5529 9.76165L69.3087 9.35831L69.5984 9.03059L69.7244 8.69027L70.1275 8.37516L70.707 8.26172L71.236 8.13568L71.5006 8.12307L72.4076 7.78276L73.05 7.27858L73.4783 7.08951L73.8814 7.07691L74.9773 6.92565L76.0481 6.54752L77.0936 6.14418L76.6024 6.11897L75.6702 6.09376L76.1363 5.85428L76.0985 5.52656L76.4638 5.79126L76.7031 5.98032L77.3456 5.89209L77.2952 5.51396L76.9047 5.23666L76.4638 5.12322L76.6653 5.00978L77.3078 5.18624L77.3456 4.98457L76.9803 4.68207H77.4589L77.9502 4.61905L78.1014 4.45519L77.7487 4.27873L78.5045 4.24091L78.1518 3.86278L78.5171 3.82497L78.5297 3.45944L77.9754 3.23256L78.5423 3.09391L79.0588 3.08131L78.7438 2.80401L78.832 2.35025L79.147 2.09816L79.5878 1.82086L78.8824 1.79566L79.8776 1.73263L80.0665 1.6444L81.3514 1.39231L81.2129 1.24106Z" fill="#60B0B2"/>
<path d="M47.2387 33.9495L47.138 33.9243L46.9238 33.9622L46.8608 34.1009L47.1128 34.3027L47.3773 34.391L47.5285 34.3027L47.8812 34.2901L47.8056 34.1261L47.5663 34L47.2387 33.9495Z" fill="#60B0B2"/>
<path d="M19.8025 9.40884L19.8403 9.50975L19.9789 9.61066L20.4198 9.50975L20.5205 9.44668L20.2308 9.38362L20.0922 9.24487L19.7899 9.29533L19.6765 9.20703L19.3994 9.39623L19.4372 9.44668L19.8025 9.40884Z" fill="#60B0B2"/>
<path d="M19.223 11.2493L19.5757 11.1736L19.7773 10.9592L19.5128 10.9214L19.0215 11.0097L19.0845 11.1484L19.223 11.2493Z" fill="#60B0B2"/>
<path d="M9.6116 33.1052L9.54861 33.0548L9.38485 32.9539H9.34706L9.30927 33.0043V33.1178L9.20849 33.2061L9.1707 33.2692L9.20849 33.471L9.14551 33.6349L9.25888 33.7106L9.34706 33.6097L9.52342 33.534L9.73757 33.4079L9.76276 33.3701L9.67458 33.1809L9.6116 33.1052Z" fill="#60B0B2"/>
<path d="M23.0527 12.2449L22.4858 12.434L22.2969 12.6737L22.3599 12.8124L22.9771 12.6106L23.5818 12.371V12.207L23.355 12.1692L23.0527 12.2449Z" fill="#60B0B2"/>
<path d="M9.34705 32.6766L9.23368 32.5883L9.08252 32.5378L9.01953 32.5757V32.6135L9.05732 32.664L9.12031 32.7776L9.29667 32.7397L9.34705 32.6766Z" fill="#60B0B2"/>
<path d="M8.49052 32.1348L8.33936 32.223L8.35195 32.2357L8.38974 32.3744L8.54091 32.387L8.5787 32.3996L8.61649 32.3618L8.51571 32.1726L8.49052 32.1348Z" fill="#60B0B2"/>
<path d="M7.70918 31.9078L7.67139 31.9456L7.80995 32.0465L7.88553 31.9961L7.91073 31.8573L7.79736 31.8447L7.70918 31.9078Z" fill="#60B0B2"/>
<path d="M8.80517 32.4246L8.74219 32.4871L9.00672 32.4996L9.03192 32.4371L8.80517 32.4246Z" fill="#60B0B2"/>
<path d="M50.6273 37.2393V37.2518L50.6147 37.2769L50.6398 37.302L50.6649 37.3396H50.6899V37.327V37.3145L50.6523 37.2643L50.6273 37.2393Z" fill="#60B0B2"/>
<path d="M54.3304 34.0754L54.3178 34.063L54.2427 34.1128V34.1252L54.3304 34.1003V34.0754Z" fill="#60B0B2"/>
<path d="M54.8722 34.3909H54.8597H54.8472L54.8597 34.4415L54.8973 34.4795L54.9098 34.4542V34.4162L54.8973 34.3909H54.8722Z" fill="#60B0B2"/>
<path d="M54.8096 34.7434L54.8221 34.7684L54.8722 34.781L54.8847 34.7684L54.9098 34.7559V34.7434V34.7308L54.8973 34.7183L54.8847 34.7057L54.8597 34.6807L54.8096 34.7308V34.7434Z" fill="#60B0B2"/>
<path d="M49.6322 32.2851L49.6948 32.2602L49.6572 32.2229L49.6196 32.2602L49.6322 32.2851Z" fill="#60B0B2"/>
<path d="M49.2545 31.7187L49.2293 31.7313V31.7439L49.2041 31.7565L49.1663 31.7944L49.0907 31.8448L49.0781 31.8826L49.1159 31.8574L49.1663 31.807L49.2293 31.7818L49.3175 31.6809L49.3049 31.6052L49.3175 31.5674L49.2671 31.58L49.2545 31.6052V31.6304L49.2797 31.6683V31.6809L49.2545 31.7187Z" fill="#60B0B2"/>
<path d="M48.7 31.3156L48.6874 31.3282L48.7252 31.3534L48.8008 31.3787L48.8512 31.4922V31.4795V31.4165L48.8134 31.3787L48.763 31.3408V31.2399L48.7252 31.1769L48.7126 31.1138L48.6748 31.0508V31.0886L48.6874 31.1012L48.7 31.1517L48.7252 31.2399L48.7378 31.2652L48.7252 31.303L48.7 31.3156Z" fill="#60B0B2"/>
<path d="M49.7205 31.7697L49.7583 31.7824L49.8087 31.8206L49.8339 31.7951H49.8213L49.7835 31.7569H49.7331H49.7205L49.6953 31.7442L49.6575 31.7314L49.6323 31.7697L49.6575 31.7824L49.7205 31.7697Z" fill="#60B0B2"/>
<path d="M49.1155 30.7983H49.0905L49.0654 30.887H49.0905L49.1406 30.8237L49.1281 30.7983H49.1155Z" fill="#60B0B2"/>
<path d="M49.1657 31.5547L49.1406 31.5296L49.1156 31.5171L49.103 31.5296V31.5547L49.1156 31.5798H49.1281L49.2032 31.6174L49.2283 31.5798H49.2158L49.1657 31.5547Z" fill="#60B0B2"/>
<path d="M49.5691 32.4371L49.5187 32.4623H49.4935L49.4306 32.4371H49.3802L49.3424 32.4749L49.292 32.4875H49.3046V32.5127L49.292 32.538V32.5506V32.5758H49.4306L49.5439 32.5506L49.6069 32.4749L49.6195 32.4371L49.6321 32.374H49.6069L49.5691 32.4371Z" fill="#60B0B2"/>
<path d="M47.9694 29.3366L47.9442 29.324L47.919 29.2735L47.8812 29.2357L47.8183 29.2231H47.7679L47.7301 29.2104L47.6797 29.2357H47.7553L47.8812 29.2609L47.9442 29.3996L47.9946 29.4248L48.0072 29.4627L47.982 29.5005V29.5384L47.9568 29.5762L47.9442 29.6519L47.919 29.6897L47.856 29.7275L47.8938 29.7401L47.919 29.8032L47.9442 29.7906L47.9568 29.7654L47.9946 29.6014L48.0576 29.551L48.0702 29.4501L48.0324 29.3996L47.9946 29.387L47.982 29.3618L47.9946 29.3492L47.9694 29.3366Z" fill="#60B0B2"/>
<path d="M47.6796 29.349L47.667 29.3238L47.5914 29.3364H47.5032L47.4906 29.349H47.4528L47.4024 29.3364L47.3646 29.2986L47.3394 29.3364L47.3268 29.3616L47.2891 29.3994L47.2387 29.412L47.1883 29.3616L47.1631 29.349L47.2387 29.4499H47.2639H47.3017L47.3772 29.4246L47.5158 29.3868L47.667 29.3616L47.6796 29.349Z" fill="#60B0B2"/>
<path d="M47.4025 30.6601L47.4151 30.698L47.4403 30.6727L47.4907 30.6475L47.5033 30.6349L47.5663 30.5971V30.5845L47.5789 30.534L47.5915 30.471L47.5411 30.4205L47.5159 30.3322L47.5033 30.2944V30.2566L47.4781 30.2187L47.4277 30.1809L47.4025 30.1935L47.4151 30.2944L47.3899 30.3449L47.327 30.4457V30.471L47.3395 30.4962L47.3018 30.534V30.5088H47.2388L47.2766 30.5592L47.327 30.5971H47.3521L47.3773 30.5845V30.6223L47.4025 30.6601Z" fill="#60B0B2"/>
<path d="M47.5914 31.0005L47.6292 30.9374V30.9122V30.8996V30.8869V30.8617V30.786L47.604 30.7356L47.5662 30.7987L47.5284 30.7608L47.5914 30.7356V30.723L47.5662 30.6978L47.541 30.7104H47.5032L47.478 30.723H47.4528L47.415 30.7356L47.4528 30.8113L47.478 30.8365L47.4906 30.9248L47.5032 30.9374V31.0005H47.5914Z" fill="#60B0B2"/>
<path d="M48.5866 30.4707H48.5614L48.5488 30.4959L48.5866 30.5338V30.559L48.6118 30.5842L48.6496 30.6852L48.6748 30.7104V30.7356L48.637 30.7608L48.6244 30.7861H48.637L48.6874 30.7735H48.7252V30.7482L48.637 30.6221V30.6095L48.5866 30.4707Z" fill="#60B0B2"/>
<path d="M48.3725 30.1936L48.3095 30.118L48.2465 30.0927L48.1709 30.0297L48.1457 29.9792V29.9919L48.1331 30.0297L48.1079 30.0675L48.1457 30.0549L48.1835 30.0675L48.2339 30.1054L48.2969 30.118L48.3221 30.181L48.3851 30.2315V30.2819L48.3473 30.3324L48.3347 30.3954L48.2843 30.408L48.2969 30.4206L48.3221 30.4459V30.4711L48.3473 30.4963V30.4333L48.3725 30.3576L48.4102 30.2441L48.3976 30.2189L48.3725 30.1936Z" fill="#60B0B2"/>
<path d="M48.3475 31.0508L48.3223 31.0886H48.3601L48.4356 31.1517L48.4734 31.1769H48.4986L48.4482 31.1517L48.4356 31.1139L48.3727 31.0634L48.3475 31.0508Z" fill="#60B0B2"/>
<path d="M47.7176 30.2694L47.7051 30.2822V30.295H47.7427H47.7928L47.8429 30.2694L47.8178 30.2566H47.7552L47.7176 30.2694Z" fill="#60B0B2"/>
<path d="M54.5698 26.1729H54.5572L54.5071 26.2101L54.457 26.235H54.4696H54.4821L54.5322 26.2226L54.5698 26.1729Z" fill="#60B0B2"/>
<path d="M55.7544 36.8485V36.9363L55.7669 36.9614L55.8045 36.9865L55.8296 36.9739L55.8546 36.9363L55.8296 36.9112L55.7794 36.8359L55.7544 36.8485Z" fill="#60B0B2"/>
<path d="M46.1051 33.2695H46.0926L46.0801 33.2827H46.0926L46.1302 33.2695H46.1552L46.1427 33.2563H46.1302L46.1051 33.2695Z" fill="#60B0B2"/>
<path d="M45.4876 33.4704L45.4625 33.4828L45.45 33.4704L45.4375 33.4456V33.458V33.5077H45.4751H45.4876L45.5252 33.4828H45.5753L45.5628 33.4704L45.4876 33.458V33.4704Z" fill="#60B0B2"/>
<path d="M46.2435 33.244H46.2309L46.1934 33.2697H46.2059L46.2184 33.2569L46.2685 33.244L46.256 33.2312L46.2435 33.244Z" fill="#60B0B2"/>
<path d="M55.0364 35.6133L55.0238 35.5755L54.9482 35.5503V35.5629V35.6133L54.9734 35.6764V35.7773L55.0238 35.7647L55.049 35.7016L55.0364 35.6133Z" fill="#60B0B2"/>
<path d="M59.47 72.9597L59.4825 72.9348L59.47 72.9099L59.4324 72.8975H59.3823L59.4074 72.9348L59.4199 72.9597H59.47Z" fill="#60B0B2"/>
<path d="M60.2767 73.2881L60.2642 73.3005L60.2892 73.3254L60.3143 73.3378L60.3017 73.2881H60.2767Z" fill="#60B0B2"/>
<path d="M60.4655 73.074L60.4277 73.0614L60.4403 73.0362L60.4781 73.0236L60.4025 72.9731L60.3773 72.9605L60.2891 72.9731H60.2639V72.9984L60.2765 73.0236L60.3017 73.0488L60.3143 73.0614H60.2891L60.201 73.0236L60.1758 73.011L60.1632 72.9731H60.1758H60.201L60.2136 72.9479L60.1758 72.9227L60.138 72.9101L60.0624 72.9227L59.9994 72.8975H59.9616L59.9994 72.9353L59.9238 73.011L59.9364 73.0614L59.9742 73.0993V73.1119V73.1245L59.9364 73.1371L59.9112 73.1497L59.886 73.1749L59.8105 73.2506L59.823 73.2632L59.7979 73.3263L59.823 73.3515L59.886 73.4146L59.9616 73.4524V73.3894L59.9994 73.3767L60.0246 73.402L60.0624 73.3767L59.9868 73.2885H60.012L60.2262 73.3389V73.3011L60.2136 73.2885L60.1884 73.2506L60.3143 73.2128L60.3647 73.1876L60.3773 73.1623L60.4403 73.1497L60.5033 73.1245L60.4907 73.1119L60.5033 73.0867L60.4655 73.074Z" fill="#60B0B2"/>
<path d="M59.7728 73.3638L59.7603 73.3513V73.3762L59.7728 73.4011L59.7853 73.4135L59.7978 73.426L59.8229 73.4011L59.8104 73.3762L59.7728 73.3638Z" fill="#60B0B2"/>
<path d="M59.7727 73.0867L59.7979 73.0614L59.8105 73.0488L59.8231 73.0236L59.8483 72.9984V72.9731L59.8105 72.9605L59.7853 72.9353L59.7601 72.9731L59.7349 72.9605L59.6594 72.9858H59.6216L59.5964 72.9731L59.5586 72.9605L59.5334 72.9731L59.483 73.011L59.42 72.9984L59.3318 72.9731L59.294 72.9353H59.2688L59.3066 72.9731L59.3192 72.9984L59.3318 73.011L59.3822 73.0362L59.4326 73.0614L59.4704 73.0867L59.4578 73.0993L59.3822 73.1245H59.357L59.3444 73.1371L59.3822 73.1497H59.4326L59.4452 73.1371H59.4704L59.4956 73.1497V73.1623L59.483 73.1749L59.4704 73.2002L59.4326 73.2254L59.3822 73.2632H59.3066L59.2437 73.3263L59.3318 73.3641L59.3822 73.3893H59.4704V73.3767H59.483H59.5082L59.5208 73.3641L59.5334 73.3263V73.2758H59.5586L59.5838 73.2884L59.6468 73.2758L59.6719 73.2632L59.7223 73.1875L59.7601 73.1119L59.7727 73.0867Z" fill="#60B0B2"/>
<path d="M59.2054 73.1748H59.1678L59.1553 73.1875L59.1177 73.2001L59.1427 73.2255L59.1928 73.2635H59.2304L59.2429 73.2382L59.2304 73.1748H59.2054Z" fill="#60B0B2"/>
<path d="M54.6958 37.5664L54.7459 37.5539L54.7584 37.4536H54.7334L54.7083 37.4787L54.6833 37.5163V37.5539L54.6582 37.579L54.6958 37.5664Z" fill="#60B0B2"/>
<path d="M54.4563 34.6299L54.4438 34.6174L54.4188 34.5923L54.3937 34.5547L54.3687 34.5672V34.5798V34.5923L54.3937 34.6174H54.4188L54.4438 34.655H54.4563V34.6299Z" fill="#60B0B2"/>
<path d="M54.5071 34.7053V34.6804L54.4821 34.668H54.457V34.7053L54.4821 34.7303L54.5071 34.7053Z" fill="#60B0B2"/>
<path d="M55.1624 36.5588L55.175 36.4579L55.1624 36.4075L55.1498 36.4201L55.1246 36.4579L55.0868 36.5084L55.0742 36.5336V36.584L55.1246 36.6219L55.1624 36.5588Z" fill="#60B0B2"/>
<path d="M54.6583 34.8823L54.6333 34.9196V34.9445L54.6583 34.9569L54.6709 34.9321L54.6583 34.8823Z" fill="#60B0B2"/>
<path d="M23.1785 57.9233L23.166 57.9358L23.1785 57.9607L23.1911 57.9731H23.2036V57.9607L23.1911 57.9358L23.1785 57.9233Z" fill="#60B0B2"/>
<path d="M53.0713 34.1518L53.0838 34.1646H53.0963H53.1339L53.1965 34.1518V34.139L53.1715 34.1262H53.1089L53.0713 34.1518Z" fill="#60B0B2"/>
<path d="M52.2651 34.227L52.2903 34.2396H52.3533H52.3785L52.4037 34.2522L52.4415 34.2396L52.4793 34.227L52.5549 34.2396L52.6053 34.227L52.6556 34.2522L52.6934 34.2396L52.706 34.2522H52.7312H52.7942L52.8698 34.2396L52.9328 34.1892L52.958 34.1513L52.9958 34.1261L53.0462 34.0883V34.0126L52.9958 34L52.9328 33.9748L52.8446 33.9622H52.832L52.8446 33.9748H52.832H52.8194L52.8068 33.9495H52.7942H52.4793L52.3659 33.9243L52.3407 33.9369L52.3155 33.9495L52.3029 33.9748L52.2903 34L52.2651 34.0126V34.0378L52.2777 34.063L52.2903 34.1009V34.1387L52.2651 34.227Z" fill="#60B0B2"/>
<path d="M51.9121 34.1514V34.1642V34.1769L51.9372 34.1897H51.9497V34.1769L51.9622 34.1642V34.1514H51.9497H51.9246H51.9121Z" fill="#60B0B2"/>
<path d="M11.0474 53.6882V53.7504L11.0724 53.7628L11.0975 53.7504H11.11L11.0724 53.7007L11.0474 53.6882Z" fill="#60B0B2"/>
<path d="M11.0473 53.5998L11.0098 53.5874L11.0223 53.6123V53.6372H11.0473V53.6123V53.5998Z" fill="#60B0B2"/>
<path d="M11.8916 54.0918V54.1042L11.9041 54.1291H11.9167L11.9417 54.154L11.9542 54.1291V54.1042L11.9417 54.0918H11.8916Z" fill="#60B0B2"/>
<path d="M12.2067 54.2177L12.1815 54.1547L12.1563 54.1169L12.0934 54.1042L12.043 54.1295V54.1421V54.1799L12.0934 54.2429H12.1311H12.2067L12.2445 54.2934L12.2571 54.306H12.2949L12.3075 54.2808L12.2823 54.2429L12.2067 54.2177Z" fill="#60B0B2"/>
<path d="M13.8816 53.3978L13.8691 53.3602L13.8315 53.3101L13.8441 53.3477V53.3602L13.8691 53.3728L13.8816 53.4104L13.8942 53.4355L13.9192 53.4605H13.9317L13.9067 53.4229L13.8816 53.3978Z" fill="#60B0B2"/>
<path d="M18.2402 54.5454L18.3029 54.5839L18.2653 54.5454H18.2402Z" fill="#60B0B2"/>
<path d="M17.8123 55.9443H17.7998L17.8123 55.9568L17.8249 55.9817V55.9941H17.8374L17.8249 55.9692L17.8123 55.9443Z" fill="#60B0B2"/>
<path d="M18.6058 54.6587H18.5807L18.5682 54.6462L18.5557 54.6587H18.5682H18.5807L18.6058 54.6835H18.6308L18.6559 54.696L18.6308 54.6835L18.6058 54.6587Z" fill="#60B0B2"/>
<path d="M16.0105 49.277V49.2517V49.239L15.9229 49.2263V49.2643L15.9354 49.315H15.9604L16.0105 49.3023V49.277Z" fill="#60B0B2"/>
<path d="M16.3887 54.2302L16.3636 54.2427V54.2678L16.3511 54.2929L16.3636 54.3054V54.318H16.3887L16.3761 54.3054H16.3636V54.2803L16.3887 54.2427L16.4388 54.2176V54.2051L16.4137 54.2176L16.3887 54.2302Z" fill="#60B0B2"/>
<path d="M16.4517 54.5706V54.5954L16.4892 54.6079L16.5018 54.6203V54.5954L16.4517 54.5706Z" fill="#60B0B2"/>
<path d="M16.3633 54.4574L16.3507 54.4321L16.3257 54.4194V54.4321L16.3633 54.4701L16.3883 54.5081H16.4134L16.4008 54.4954L16.3633 54.4574Z" fill="#60B0B2"/>
<path d="M16.5399 49.8564L16.5273 49.8689V49.9062L16.5649 49.8689L16.5524 49.8564H16.5399Z" fill="#60B0B2"/>
<path d="M16.7666 50.1465L16.7791 50.2087L16.8042 50.1963V50.1838V50.1589L16.7666 50.1465Z" fill="#60B0B2"/>
<path d="M14.0205 53.1338L14.033 53.1462L14.0831 53.196V53.2085V53.1836L14.033 53.1338H14.0205Z" fill="#60B0B2"/>
<path d="M16.5649 49.7305L16.502 49.7814L16.5146 49.8069L16.5523 49.8196L16.5649 49.8069L16.6405 49.7942L16.6657 49.7559L16.6405 49.7687L16.5649 49.7305Z" fill="#60B0B2"/>
<path d="M16.2376 49.2642V49.2766L16.2251 49.289L16.2376 49.3139H16.2627L16.2877 49.3015V49.289L16.2752 49.2766L16.2376 49.2642Z" fill="#60B0B2"/>
<path d="M15.998 49.5412V49.5661L16.0231 49.6034L16.0356 49.5786L16.0482 49.5412L16.0356 49.5288L15.998 49.5412Z" fill="#60B0B2"/>
<path d="M15.3558 53.3234L15.3683 53.2849H15.3433L15.3558 53.3234Z" fill="#60B0B2"/>
<path d="M14.839 53.6001H14.814L14.8766 53.6265H14.9016L14.8766 53.6133L14.839 53.6001Z" fill="#60B0B2"/>
<path d="M14.9399 53.6125H14.9149H14.9023L14.9525 53.6257L14.99 53.6389L14.965 53.6125H14.9399Z" fill="#60B0B2"/>
<path d="M54.3055 34.2153V34.2022V34.189H54.2554L54.2804 34.2022L54.3055 34.2153Z" fill="#60B0B2"/>
<path d="M50.337 32.0964L50.312 32.0839L50.2493 32.0591L50.2368 32.0715V32.0964H50.2869L50.312 32.1088L50.337 32.0964Z" fill="#60B0B2"/>
<path d="M50.0725 32.1088L50.0851 32.0964V32.0839L50.0475 32.0964L49.9974 32.0591L49.9849 32.0964V32.1088L50.0099 32.1212L50.06 32.1088H50.0725Z" fill="#60B0B2"/>
<path d="M50.1737 32.0458L50.1862 32.0583L50.2112 32.0831L50.2238 32.0707L50.2112 32.0583L50.1987 32.0085H50.1611V32.021V32.0458H50.1737Z" fill="#60B0B2"/>
<path d="M0.112738 56.1586H0.100211L0.0751585 56.1335H0.0375792L0.0125263 56.1209V56.1084L0 56.1335L0.0125263 56.1586L0.100211 56.1962L0.125264 56.2087L0.137791 56.1586V56.146H0.112738V56.1586Z" fill="#60B0B2"/>
<path d="M0.226562 56.2597V56.285L0.264141 56.323L0.251615 56.2344L0.226562 56.2597Z" fill="#60B0B2"/>
<path d="M0.302396 54.7092L0.277344 54.7465V54.759L0.302396 54.7714H0.314922L0.327448 54.7465L0.339973 54.7341V54.7217L0.302396 54.7092Z" fill="#60B0B2"/>
<path d="M55.2498 37.996L55.2623 37.958H55.2372L55.1746 37.9834L55.1245 38.0341V38.0468L55.1496 38.0341L55.2498 37.996Z" fill="#60B0B2"/>
<path d="M54.9984 38.336L55.011 38.2982L55.0614 38.2351H54.9732L54.9228 38.2477L54.8347 38.2603L54.7843 38.2729L54.7213 38.2856L54.6835 38.2982L54.6961 38.3108L54.7465 38.336L54.7591 38.3486L54.7717 38.3612V38.3991L54.7465 38.5504V38.5631H54.6835L54.6709 38.5883L54.5449 38.664L54.6205 38.6514L54.6961 38.664L54.9102 38.6514L54.9858 38.6261L54.9984 38.6135V38.5631L55.011 38.5252L54.9984 38.4874L54.9858 38.4369L54.9984 38.3865V38.336Z" fill="#60B0B2"/>
<path d="M54.9608 37.0122V37.0246H54.9482L54.9608 37.0371L54.9733 37.0246V37.0122L54.9858 36.9997L54.9733 36.9873V36.9997L54.9608 37.0122Z" fill="#60B0B2"/>
<path d="M55.0234 36.9113L55.0359 36.8611L55.0234 36.8235H55.0109L54.9733 36.836L54.9608 36.8611L54.9482 36.8987L54.9983 36.9238L55.0234 36.9113Z" fill="#60B0B2"/>
<path d="M54.9102 37.1775V37.1912H54.9232V37.1775V37.1638H54.9102V37.1775Z" fill="#60B0B2"/>
<path d="M53.5874 33.9749H53.5748H53.5373L53.5122 33.988V34.0012H53.5623L53.5874 33.9749Z" fill="#60B0B2"/>
<path d="M53.6382 33.9498V33.9625H53.6507H53.6632L53.6883 33.9243L53.6507 33.9371L53.6382 33.9498Z" fill="#60B0B2"/>
<path d="M53.7257 33.8246V33.7983H53.7132H53.6631L53.6756 33.8115H53.7007L53.7257 33.8246Z" fill="#60B0B2"/>
<path d="M53.5245 34.0258L53.487 34.0127L53.4619 34.039H53.487L53.5245 34.0258Z" fill="#60B0B2"/>
<path d="M53.4358 34.039L53.4108 34.0127H53.3857H53.3481L53.3982 34.039H53.4358Z" fill="#60B0B2"/>
<path d="M53.5373 34.3529H53.4869L53.4491 34.3279L53.3861 34.3529L53.3735 34.3904H53.4743L53.5373 34.3529Z" fill="#60B0B2"/>
<path d="M55.0865 36.105L55.1243 36.1302L55.0991 36.1681V36.1933H55.1873L55.1999 36.2311L55.2125 36.2185V36.1807L55.1999 36.1176L55.1873 36.105L55.1747 36.0798L55.1873 36.0546V36.042H55.1621L55.1369 35.9915L55.0865 35.9663H55.0613L55.0361 35.9915V36.0167L55.0613 36.0924L55.0865 36.105Z" fill="#60B0B2"/>
<path d="M54.9482 35.2101L54.986 35.2227L55.049 35.2101L55.1246 35.1975L55.0364 35.1471L55.0238 35.1093V35.0841L54.986 35.0588L54.9734 35.0714L54.9608 35.0967L54.9734 35.1471L54.9482 35.1723V35.2101Z" fill="#60B0B2"/>
<path d="M55.0737 35.4108L55.0988 35.3859V35.3611L55.0737 35.3362L55.0612 35.3486L55.0361 35.3735V35.3984L55.0487 35.4108H55.0737Z" fill="#60B0B2"/>
<path d="M54.923 35.21L54.9356 35.1848L54.923 35.1722L54.8978 35.1596L54.8475 35.147H54.8349L54.8223 35.1722L54.8349 35.3109L54.8475 35.3488L54.8601 35.3614L54.9104 35.3362L54.923 35.3236V35.21Z" fill="#60B0B2"/>
<path d="M51.4837 37.5665L51.5088 37.5038V37.4536L51.4336 37.416V37.4411L51.4461 37.4536L51.4712 37.4662V37.4787V37.5414L51.4837 37.5665Z" fill="#60B0B2"/>
</svg>
