<svg width="83" height="69" viewBox="0 0 83 69" fill="none" xmlns="http://www.w3.org/2000/svg">
<path d="M40.7219 54.3128L40.2066 53.8726L39.9678 55.168L40.1437 56.3125L40.4957 56.9539L41.099 56.7653L41.3881 56.5389L41.4635 55.7088L41.0865 54.8787L40.7219 54.3128Z" fill="#CC5636"/>
<path d="M9.57476 6.31936L10.5677 6.49543L10.8443 6.7847L12.5286 6.87274L12.8051 6.82243L11.5607 6.28163L11.1711 5.74082L11.5859 5.12455L11.9378 4.49571L13.0188 3.9046L14.2506 3.60275L15.671 3.30091L15.8344 3.11225L15.3064 2.87329L14.4769 2.94875L13.8609 3.17514L12.3903 3.28833L11.1208 3.67821L10.2661 4.01779L10.5803 4.29448L9.75073 4.84786L10.2409 4.9359L9.56219 5.47671L9.7633 5.82886L9.33594 5.96721L9.57476 6.31936Z" fill="#CC5636"/>
<path d="M25.1983 1.4274L26.2038 1.64133L27.6493 1.80493L28.5417 1.72943L27.9761 1.22604L26.2667 0.710077L25.0851 0.445801L24.3058 0.559063L23.6396 0.924014L24.3687 1.02469L25.1983 1.4274Z" fill="#CC5636"/>
<path d="M31.282 2.0566L31.0934 1.83007L29.5223 1.50284L29.1452 1.46509L28.8687 1.52802L29.0195 2.28314L31.282 2.0566Z" fill="#CC5636"/>
<path d="M5.03716 9.84149L5.50223 9.47654L5.30112 9.02349L4.79834 8.69629L5.03716 9.84149Z" fill="#CC5636"/>
<path d="M4.16943 0.974391L4.72249 1.10022L5.17499 1.01214L5.18756 0.924058L5.55207 0.886309L6.07999 0.810813L6.19312 0.735315L5.47666 0.62207L5.12471 0.71015L4.96131 0.835979L4.77276 0.684985L4.11915 0.697566L3.33984 0.79823L4.30769 0.810813L4.16943 0.974391Z" fill="#CC5636"/>
<path d="M51.9966 4.84783L51.896 5.09952L52.0343 5.12469L53.1404 5.2002H53.8694L53.5552 5.02402L52.5119 4.78491L51.9966 4.84783Z" fill="#CC5636"/>
<path d="M50.2995 4.30756L50.8651 4.15655L52.6499 4.18172L52.2729 3.71612L50.0229 3.38894L48.7408 3.36377L48.3135 3.47702L48.7408 3.90487L50.2995 4.30756Z" fill="#CC5636"/>
<path d="M82.6032 12.4568L82.1255 12.1675L81.6102 11.9663L80.4664 11.3878L79.4482 11.0104L80.215 11.0608L80.4664 10.7463L76.331 7.99199L75.1495 7.70272L73.1761 7.37572L72.1831 7.41345L70.2725 7.23737L70.4988 7.52664L71.5672 7.95426L71.2529 8.18064L69.4681 7.57695L68.6134 7.65241L67.457 7.51407L66.5771 7.53922L66.0869 7.67756L65.1819 7.47633L64.5408 6.99841L63.7238 6.72172L62.5674 6.60852L60.7197 6.73429L58.696 6.23122L57.7156 5.85391L52.6753 5.42629L52.4113 5.70299L53.5803 6.30668L52.6376 6.21864L52.5119 6.4073L51.2926 6.20606L50.6642 6.38214L49.4952 6.08029L49.8723 6.77203L48.7536 6.50791L47.4966 5.99226L47.4464 5.71556L46.6922 5.30053L45.4604 4.97352H44.6937L43.5247 4.86033L44.1155 5.35083L41.9535 5.25022L41.4633 4.96095L39.7916 4.84776L39.1254 4.94837L39.1128 5.11187L38.3838 4.70941L38.0947 4.8226L37.1897 4.67168L36.4858 4.58364L36.6241 4.39499L37.4536 4.04283L37.7427 3.85418L37.4411 3.53976L36.7497 3.30079L35.3043 3.01153L33.9468 2.99895L33.7079 3.14987L33.1926 2.84802L32.0362 2.75999L32.4636 2.60906L31.4329 2.42041L30.6661 2.65937L30.5404 2.91091L30.729 3.17503L29.8617 3.16245L29.1955 3.48945L28.655 3.3511L27.486 3.41399L27.5238 3.57749L26.3674 3.66553L25.7515 3.96737L25.2235 3.99253L25.0727 4.40756L25.764 4.73456L24.7962 4.8226L23.6021 4.78487L22.8731 4.92322L23.4764 5.60237L24.3437 6.14318L23.137 5.76587L22.144 5.8036L21.503 6.05514L22.0686 6.53306L21.4527 6.4073L21.1887 5.77845L20.6608 5.42629L20.4346 5.43887L20.8871 5.90422L20.3089 6.34441L21.327 6.87264L21.3773 7.55179L21.7418 7.91653L22.3326 7.97941L22.3828 8.4196L22.9359 8.80949L22.6971 9.13649L22.7599 9.47606L22.2949 9.65214L22.232 9.90368L21.5658 9.80307L22.0058 8.82206L21.9429 8.36929L21.1008 7.95426L20.6231 7.03614L20.158 6.5708L19.7055 6.36956L19.8061 5.84133L19.4416 5.4766L18.0212 5.30053L17.7573 5.42629L17.8201 6.01741L17.2796 6.60852L17.4305 6.82233L18.0212 7.33799L18.0338 7.66499L18.7 7.72787L18.8005 7.86622L19.5296 8.23095L19.4039 8.5831L17.0785 7.81591L16.2489 7.6021L14.6401 7.40087L14.4892 7.61468L15.2308 8.00456L14.8914 8.45733L14.087 8.05487L13.4585 8.33157L12.5032 8.34414L12.2393 8.5831L11.5731 8.50764L11.8873 8.0926L11.4851 8.06745L9.93907 8.64599L8.98379 8.97299L9.03407 9.41318L8.2799 9.5641L7.77712 9.32514L7.62628 8.94783L8.25476 8.8598L7.80226 8.48249L6.26878 8.2561L6.80927 8.68372L6.70871 9.08618L7.29948 9.50122L7.16121 9.97914L6.58302 9.74018L6.08024 9.70245L5.07468 10.3816L5.6026 10.8973L5.20038 11.0733L5.13753 20.9336L5.41406 21.2732L5.4392 21.4241L6.26878 21.7008L6.70871 21.5751L7.16121 21.9398L7.52573 21.9272L8.48101 22.1788L8.53129 22.4177L8.36788 22.8202L8.59413 23.2478L8.55643 23.5119L7.96566 23.5748L7.68913 23.7886L7.73941 24.1408L8.26733 24.015L8.31761 24.1785L7.46288 24.5055L7.86511 24.8073L7.46288 25.4613L7.03552 25.5871L7.66399 26.0399L8.4433 26.3417L9.37344 26.9831L9.64997 27.2221L10.0271 27.3101L10.4544 27.5994L10.7184 28.1276L10.6807 28.4672L9.98935 28.8697L9.42372 28.7942L8.69469 28.92L7.71427 28.6181L6.49503 28.0648L5.42663 28.0899L4.71017 28.3037L4.00628 28.8068L2.7619 28.7062L2.56079 29.3099L1.5678 29.335L0.926758 30.1022L1.37926 30.4795L1.12787 31.1084L1.65579 31.5611L2.12086 32.3661L2.84989 32.3535L3.52864 32.7937L3.98114 32.6931L4.09426 32.3535L4.81072 32.3786L5.38892 32.8188L6.39448 32.7308L6.78413 32.2655L7.36233 32.4541L7.76455 32.3786L7.55087 32.6805L7.83997 33.0578L7.71427 33.3848L7.85254 34.0136L8.1542 34.0514L8.30504 34.3658L7.97823 34.6676L7.86511 35.1078L7.68913 35.1204L7.63885 35.2588H7.4126L7.40004 35.2713L7.32462 35.4726L7.2492 36.0763L7.11094 36.441L7.16121 36.4913L6.98524 36.7554L7.47545 37.9125L7.56344 38.1263L7.77712 36.8435L7.72684 36.5416L7.77712 36.8435L7.56344 38.1263L7.60115 38.2395L7.5383 38.5539V38.8306L7.46288 39.2708H7.80226L8.20448 39.8242L8.66955 40.4656L8.98379 41.0567L9.19747 41.2454L9.41115 41.6604L9.38601 41.8365L9.64997 42.3018L10.0271 42.4653L10.379 42.7798L10.8315 43.6601V44.1381L10.9446 44.6915L11.4474 45.4586L11.7616 45.5844L12.277 46.1378L12.5158 46.7918L12.918 47.4584L13.2951 47.7476L13.3705 48.0621L13.5968 48.301L13.7099 48.6532L13.999 48.3891L13.7099 48.6532L13.7602 48.9928L13.6848 49.1563L13.7728 49.521L13.6345 49.5587L13.8482 49.8857L14.0116 50.4768L14.1373 50.7158V51.1434L14.3384 51.6213L14.8286 51.6591L15.0548 51.5459L15.3942 51.571L15.4948 51.3572L15.6833 51.3069L15.8216 51.0931L15.9976 51.0428L16.5883 51.0051L17.0283 50.8542L17.4179 50.5146L17.6316 50.5649L17.9333 50.5271L18.524 49.9612L19.6301 49.5839L20.2963 49.2443V48.9802L20.4094 48.6155L20.8996 48.4017L21.2139 48.3639L21.6664 48.0872L22.056 48.1627L22.3703 47.9363L22.3451 47.6219L22.6091 47.4206H23.0365L23.1873 47.2572L23.2124 46.8673L23.6272 46.5654H23.954L24.0043 46.4648L23.8786 45.9366L23.954 45.5341L24.0797 45.3455L24.394 45.3832L24.6076 44.8298L24.8716 44.5783L24.9722 44.3519L25.1733 43.874L25.1607 43.6979L24.8967 43.5973L24.6956 43.3331L24.3311 42.8678L23.9163 42.7295L23.401 42.6163L22.9862 42.327L22.6217 41.7862H22.2697H22.6217L22.4583 41.1573L22.5211 41.0064L22.5462 40.6794L22.4583 40.604L22.2949 40.8806L21.9178 41.3711L21.4527 41.8868L21.0379 42.4276L20.6231 42.4025L20.0449 42.3773L19.517 42.5031L19.4793 42.2893L19.3536 42.327L19.2028 42.0251L19.3033 41.5472L19.2405 41.0819L19.0017 40.8303L18.8257 40.9184L18.6874 41.3334L18.788 41.9245L18.6623 41.7233L18.5492 41.4592L18.3355 41.2328L18.2098 40.9687L18.2601 40.7046L18.1846 40.365L17.6819 40.038L17.531 39.7487L17.1665 39.5726L16.8271 38.8809L16.5255 38.2772L16.5632 38.0886L16.3872 37.7364L16.7894 37.7867L16.3621 37.3591L16.2992 36.9441H16.0855L16.1107 36.3655L15.6707 35.7493L14.7909 35.3216L14.2127 34.5545L14.2755 33.9256L14.5646 33.6489L14.4389 33.171L13.9739 32.932L13.3831 31.951L13.094 32.0894L13.0186 32.0265L13.094 32.0894L13.3831 31.951L12.918 31.297L13.006 31.0455L12.6415 30.1274L13.0563 29.901L12.7546 29.662L12.2267 29.4734L12.7546 29.662L13.0563 29.901L12.6415 30.1274L13.006 31.0455L12.918 31.297L13.3831 31.951L13.9739 32.932L14.4389 33.171L14.5646 33.6489L14.2755 33.9256L14.2127 34.5545L14.7909 35.3216L15.6707 35.7493L16.1107 36.3655L16.0855 36.9441H16.2992L16.3621 37.3591L16.7894 37.7867L17.0031 37.4723L17.4682 37.7364L17.8201 37.6106L18.4612 38.6671L19.0017 39.4343L19.693 39.6607L20.4597 40.277L21.327 40.5411L21.9681 40.1512L22.4708 40.0128L22.8228 40.1512L23.225 41.1322L24.0169 41.2328L24.7836 41.4215L26.1034 41.6604L27.0587 41.5472L28.1774 41.5346L29.4217 41.3837L30.0377 41.9874L30.3016 42.566L30.8295 42.7672L31.2318 42.239H32.7401L32.5138 41.5472L32.0739 41.1448L31.9105 40.5285L31.4077 40.1638L32.0236 39.3337L32.8281 39.3966L33.3937 38.5539L33.6577 37.7364L34.1479 36.9441L34.0222 36.3781L34.4872 35.9128L33.8588 35.5229L33.4943 34.9821L33.092 34.2778L33.3309 33.9256L34.3993 34.1268L35.1157 34.0011L35.5808 33.3219L35.1157 34.0011L34.3993 34.1268L33.3309 33.9256L33.092 34.2778L33.4943 34.9821L33.8588 35.5229L34.4872 35.9128L34.0222 36.3781L34.1479 36.9441L33.6577 37.7364L33.3937 38.5539L32.8281 39.3966L32.0236 39.3337L31.4077 40.1638L31.9105 40.5285L32.0739 41.1448L32.5138 41.5472L32.7401 42.239H31.2318L30.8295 42.7672L31.722 43.4463L31.9608 43.7608L31.6591 44.05L32.6647 45.0185L33.1675 45.1191L34.1227 44.6411L34.3364 45.3832L34.437 46.3642L34.7512 47.3829L35.2037 48.9299L35.9327 50.0367L36.0961 50.5271L36.3475 51.5333L36.7749 52.3005L37.0514 52.6778L37.3657 53.4827L37.7553 54.6021L38.4466 55.3567L38.7232 55.1303L38.9368 54.5769L39.5653 54.3505L39.3391 54.0864L39.6156 53.4827L39.9801 53.445L39.8921 52.0867L40.1309 51.3195L40.0429 50.6529L39.8041 49.6216L39.955 49.0053L40.2692 48.9676L40.8725 48.6783L41.1993 48.4771L41.1616 48.1124L41.7901 47.5842L42.2552 47.0811L42.9214 46.1378L43.8515 45.6096L44.1532 45.1317L44.04 44.528L44.8696 44.3645L45.3347 44.377L45.3975 44.0752L45.6741 44.1506L45.8878 44.2387L45.9632 44.0878L46.2774 44.2513L46.4408 43.8111L46.3277 43.4841L46.9687 43.5092L47.3207 43.9746L47.5092 44.3645L47.6098 44.7669L47.8612 45.182L47.7229 44.5405L47.8612 45.182L48.4394 45.836L48.8667 45.9492L48.8164 46.2258L49.4952 47.1565L49.734 47.8986L49.6209 48.8921L50.0734 49.0808L50.4756 49.1563L51.2046 48.5777L51.6069 48.1878L51.9965 48.8418L52.2479 49.8606L52.5747 50.8164L52.9015 51.2315L52.9267 52.0993L53.2032 52.5772L53.0398 53.1809L53.1529 53.7846L52.9895 54.5518L52.9518 55.0423L53.1026 55.495L53.1906 55.0171L53.5551 55.407L53.9574 55.8472L54.0956 56.2496L54.3973 56.5515L54.5104 56.4132L54.3973 56.5515L54.5733 56.8911L54.523 57.4822L54.7869 57.9098L54.9126 58.5764L55.34 59.1172L55.4405 59.5196L56.2827 60.1485L56.9615 60.7522L57.4642 60.6893L57.4768 60.4252L57.1877 59.7209L56.9237 59.4945L56.8609 59.0166L56.7855 58.7525L56.8483 58.3877L56.7855 57.8469L56.4587 57.3061L56.0188 56.8282L55.8553 56.7527L55.6417 57.0797L55.1766 57.1803L55.6417 57.0797L55.8553 56.7527L55.4657 56.3377L55.0383 56.2371L54.6235 55.7843L54.4476 55.0926L54.1208 54.3631L53.6557 54.338L53.5677 53.7594L53.7437 53.0551L54.0202 51.8855L53.9951 51.0051L54.611 50.9925L54.5733 51.6213L55.164 51.6088L55.8302 51.9735L55.5662 51.0051L55.9433 50.3511L55.5662 51.0051L55.8302 51.9735L56.2576 52.8036L56.5844 53.2186L57.1751 53.3318L57.7659 53.0174L58.4949 52.9545L58.143 52.4766L59.2617 51.8603L59.2491 50.8919L59.0228 50.3636L58.3692 50.0744L59.0228 50.3636L59.2491 50.8919L59.2617 51.8603L58.143 52.4766L58.4949 52.9545L57.7659 53.0174L57.1751 53.3318L57.7408 53.7971L57.5774 54.338L57.8665 54.841L58.696 54.099L59.2114 53.4324L59.9781 52.9168L60.5186 52.3885L60.4683 50.9799L59.9656 49.5084L59.4502 48.867L58.7463 48.3639L57.9419 47.32L57.2757 46.4774L57.3385 45.924L57.8036 45.1694L58.6206 44.4776L58.9223 44.3519L59.8901 44.6034L59.777 44.9178L60.0535 45.4964L60.4306 45.4461L60.5312 44.6034L61.2351 44.4902L62.1401 44.0878L62.4543 43.6853L62.5549 43.7733L62.5423 43.7859V43.8111L62.58 43.8362L62.6177 43.8236L62.6554 43.8614L62.5423 43.8991L62.5297 43.9368V43.9494L62.5549 43.962H62.6429L62.6303 43.8991L62.6554 43.8614L62.7434 43.9494L62.756 43.9368L62.7811 43.9746L62.8063 43.962V43.9368V43.9117L62.7937 43.8991L62.8188 43.874H62.8314V43.8614L63.1079 43.5721L63.8747 43.4841L64.7043 42.8175L65.4961 42.0755L65.9109 41.1196L66.2 40.0631L66.464 39.1953L66.8159 39.1325L66.8034 38.491L66.7028 37.8496L66.2252 37.5981L65.9109 37.1705L66.2629 36.9566L66.0617 36.3655L65.383 35.7493L64.7043 35.0198L64.1261 34.2275L63.2336 33.7873L63.3468 33.2087L63.8244 32.8063L63.9501 32.3661L64.7922 32.1397L64.4906 31.7121L64.0632 31.6869L63.3342 31.3725L62.844 31.951L62.2281 31.7121L62.0395 31.3473L61.4488 31.2216L60.858 30.6682L61.0088 30.2909L61.6373 30.2531L61.7881 29.7375L62.2406 29.1841L62.668 28.9074L63.2211 29.3225L62.9822 29.8507L63.2713 30.1651L63.0954 30.5424L63.6987 30.316L64.0004 29.9513L64.7922 29.7123L65.0562 29.2093L65.5338 28.7816L65.6595 28.2283L65.5338 28.7816L65.0562 29.2093L64.7922 29.7123L65.207 29.9261L65.6344 30.0142L65.7349 30.14L65.7852 30.5801L65.9235 30.7311L65.8104 30.8191L65.7978 31.1838L66.0366 31.3096L66.2377 31.3851L66.3383 31.536L66.5017 31.4731V31.3096L66.8913 31.4731L67.6706 32.1648L67.2433 32.3032L67.8969 33.1584L68.0352 33.7621L68.2991 34.2023L68.8647 34.1394L69.267 33.7998L69.7949 33.6489L69.8577 33.1961L69.4304 32.2529L69.0156 31.7246L67.9849 30.7688L67.4444 30.4166L67.1176 30.2909L67.1427 30.2028L66.9919 29.8507L67.1553 29.6369L67.5198 29.5111L67.6455 29.2721L67.6832 29.1338L67.922 28.9577L67.5701 28.3918L67.6078 28.1276L67.7209 27.8761L67.9975 27.9138L67.8215 27.7755L67.5827 27.3856L67.8215 27.7755L67.9975 27.9138L67.9472 27.6623L68.4499 27.0963L69.091 27.4736L69.4932 27.4611L70.0463 27.0083L70.172 26.543L70.4359 25.65L70.6748 24.7445L70.5113 24.2036L70.637 23.0717L69.9834 21.8266L69.2921 20.9085L69.1287 20.1287L68.5379 19.4873L66.9416 18.6446L66.2377 18.5943L66.2 18.9716L65.4584 18.8207L64.742 18.3428L63.7364 18.2548L64.3523 16.4814L64.7922 15.0351L66.4388 14.8087L68.3117 14.9345L68.6259 14.5823L69.6189 14.6829L70.1594 15.2237L70.9638 15.1483L72.0197 14.947L71.0518 14.5068V13.2743L72.1957 13.0353L73.7166 13.9283L74.1691 13.1234L73.7668 12.5323L74.3576 12.4694L75.1746 13.4881L74.873 14.0666L74.7724 14.8213L74.8101 15.7645L74.0936 15.928L74.4456 16.2676L74.433 16.7204L75.2375 17.7643L77.2486 19.4496L78.5684 20.5563L79.2848 21.0971L79.4859 20.3803L78.9203 19.6005L79.6368 19.4118L78.958 18.544L79.5865 18.1541L78.9957 17.8271L78.5684 17.1983L79.0837 17.1731L77.9525 16.0915L77.1103 15.9154L76.7458 15.6136L76.6075 14.9093L76.2179 14.4188L77.0978 14.5194L77.2612 14.205L77.8519 14.4817L78.6187 13.9031L80.0516 14.4062L79.8379 14.0792L80.0893 13.6264L80.2778 13.1234L80.6675 13.0353L81.4845 12.4945L82.7163 12.6454L82.6032 12.4568ZM36.5738 35.6361L37.0891 35.7493L36.5738 35.6361ZM30.1005 31.4983L30.0251 31.6115L30.1005 31.4983L30.0754 31.1713L30.289 30.882L30.0754 31.1713L30.1005 31.4983ZM19.1022 28.0648L18.6246 27.851L19.1022 28.0648L19.7181 28.681L19.1022 28.0648ZM20.0324 28.6433L19.253 25.7758L20.0324 28.6433L20.7614 28.6307L20.0324 28.6433ZM35.7568 23.9647L37.1017 24.2162L35.7568 23.9647ZM30.7541 30.2406L29.8617 29.989L29.1829 30.0519L29.1075 29.5866L29.1829 30.0519L29.8617 29.989L30.7541 30.2406L31.9482 30.1274L30.7541 30.2406ZM30.3016 28.5678L29.8994 28.7691L30.3016 28.5678ZM28.014 30.0016L28.567 30.0393L28.014 30.0016ZM28.8184 29.0961L29.6229 28.9074L29.5977 29.2721L29.7611 29.4985L30.0251 29.4734L30.5404 29.5488L30.0251 29.4734L29.7611 29.4985L29.5977 29.2721L29.6229 28.9074L28.8184 29.0961ZM29.9622 29.5614L29.8491 29.7249L29.9622 29.5614ZM32.8406 29.2218L32.4384 29.3728L32.8406 29.2218L33.5571 29.335L32.8406 29.2218ZM33.6325 28.832L34.437 28.7313L33.6325 28.832ZM34.5627 28.4295L35.4174 28.0019L34.5627 28.4295ZM20.3717 21.2229L21.239 21.2606L20.3717 21.2229ZM25.7263 33.3974L25.7766 33.0201L25.7263 33.3974ZM26.581 32.0013L26.5936 32.6553L26.2794 32.9069L25.8269 33.0075L26.2794 32.9069L26.5936 32.6553L26.581 32.0013L27.0964 31.8504L27.1341 31.5611L27.0964 31.8504L26.581 32.0013ZM27.5992 31.297L26.6313 30.9575L25.852 30.555L25.3241 30.1777L24.4442 29.6243L23.9037 28.8194L23.6524 28.6685L22.961 28.7062L22.6719 28.5427L22.4331 27.9264L21.4527 27.5114L22.4331 27.9264L22.6719 28.5427L22.961 28.7062L23.6524 28.6685L23.9037 28.8194L24.4442 29.6243L25.3241 30.1777L25.852 30.555L26.6313 30.9575L27.5992 31.297L27.6997 31.8001H28.0642L28.6047 31.9762L28.0642 31.8001H27.6997L27.5992 31.297ZM29.2458 31.8127L28.831 32.0768L29.2458 31.8127ZM29.5097 31.9762L29.6229 31.5989L29.5097 31.9762ZM31.5334 32.1397L31.7974 32.0516L32.1116 31.6869L31.7974 32.0516L31.5334 32.1397L31.3449 32.3032L31.5334 32.1397ZM37.9061 22.4177L38.3209 22.9711L39.0374 23.3861L40.0555 23.6754L40.7846 24.3043L40.948 25.2224L41.325 25.562L42.1295 25.6877L43.0345 25.8009L44.0275 26.2788L44.4548 26.3669L45.0707 27.0838L45.6615 27.5365L45.0707 27.0838L44.4548 26.3669L44.0275 26.2788L43.0345 25.8009L42.1295 25.6877L41.325 25.562L40.948 25.2224L40.7846 24.3043L40.0555 23.6754L39.0374 23.3861L38.3209 22.9711L37.9061 22.4177ZM44.5931 40.038L45.2844 40.3524L44.5931 40.038L44.5554 39.8871L44.8822 39.2834L45.209 39.0821L44.8822 39.2834L44.5554 39.8871L44.5931 40.038ZM45.121 40.9058L44.5177 40.5662L45.121 40.9058ZM44.3668 39.2456L44.0149 39.4091L44.3668 39.2456ZM44.945 41.5346L44.6434 41.3083L44.945 41.5346ZM45.6866 40.2266L46.2774 40.277L46.8305 40.2518L46.2774 40.277L45.6866 40.2266ZM46.9687 39.4091L47.4589 38.8055L48.1251 38.3024L47.4589 38.8055L46.9687 39.4091ZM49.2564 27.7L48.565 27.5868L47.7606 27.6875L46.3528 27.524L45.6866 27.5365L46.3528 27.524L47.7606 27.6875L48.565 27.5868L49.2564 27.7L50.4253 28.178L49.2564 27.7ZM49.1432 38.164L48.741 38.491L49.1432 38.164ZM51.2046 28.1654L50.4505 28.178L51.2046 28.1654L51.6069 28.4169L51.2046 28.1654ZM52.1599 28.0019L53.0649 27.7252L54.0076 27.7L54.6235 27.4233L54.0076 27.7L53.0649 27.7252L52.1599 28.0019ZM56.4964 43.0439L55.981 43.4715L56.4964 43.0439ZM56.9489 25.2098L56.7603 25.2853L56.9489 25.2098ZM55.8931 23.6503L56.1947 23.5496L55.8931 23.6503ZM55.7674 25.9267L55.0258 25.7632L54.6235 25.7003L55.0258 25.7632L55.7674 25.9267ZM52.537 45.924L52.0468 45.9617L52.537 45.924ZM53.8065 44.2513L53.3289 44.4776L53.8065 44.2513ZM54.3344 44.7795L54.0956 43.874L54.435 43.7482L54.7744 43.5595L54.435 43.7482L54.0956 43.874L54.3344 44.7795ZM56.8735 23.6754L57.1877 23.3861L56.8735 23.6754ZM54.259 21.7637L54.7492 22.0278L55.4405 21.965L56.3581 22.2542L55.4405 21.965L54.7492 22.0278L54.259 21.7637L53.8442 21.6757L54.259 21.7637ZM49.2564 21.6631L50.0734 22.0404L50.6893 22.4303H51.2549L52.0971 22.5561L51.2549 22.4303H50.6893L50.0734 22.0404L49.2564 21.6631L48.5776 21.5625L49.2564 21.6631ZM44.4171 20.6066L45.0205 20.7073L45.85 20.8959L46.3151 21.4745L47.3709 21.8015L46.3151 21.4745L45.85 20.8959L45.0205 20.7073L44.4171 20.6066L43.5498 20.2922L44.4171 20.6066ZM40.7343 21.487L41.3753 21.4996L41.9661 21.8643L42.5946 21.8895L43.5875 22.0907L42.5946 21.8895L41.9661 21.8643L41.3753 21.4996L40.7343 21.487L40.0681 21.2481L40.7343 21.487ZM33.7959 21.2481L34.5752 21.0468L34.9775 21.1852L35.4928 21.638L35.983 21.7889L36.3978 22.1159L37.152 22.0027L37.6925 22.4806L37.152 22.0027L36.3978 22.1159L35.983 21.7889L35.4928 21.638L34.9775 21.1852L34.5752 21.0468L33.7959 21.2481L32.7527 20.7953L33.7959 21.2481ZM30.3393 19.2609L32.6144 21.2103L30.3393 19.2609L29.2961 18.6698L29.3966 18.4308L29.2961 18.6698L30.3393 19.2609ZM25.5881 17.9152L26.1285 18.7075L26.669 18.5189L27.5489 18.783L27.6997 19.198L28.2528 19.1477L27.6997 19.198L27.5489 18.783L26.669 18.5189L26.1285 18.7075L25.5881 17.9152L24.4568 17.7517L25.5881 17.9152ZM24.0672 18.0661L22.7096 18.3428L24.0672 18.0661ZM22.496 18.5315L20.3843 18.7956L22.496 18.5315ZM19.3536 21.0468L20.2712 21.4493L19.3536 21.0468L18.3983 21.072L19.3536 21.0468ZM15.5325 20.5438L17.0283 21.0846L17.8578 21.3864L17.0283 21.0846L15.5325 20.5438L14.5898 20.5689L15.5325 20.5438ZM13.6596 21.9775L12.9055 21.5248L13.6596 21.9775ZM13.0563 27.7126L13.3203 28.027L13.7602 28.2031L13.9487 28.2283L14.4892 28.7062L14.7909 28.7565L14.4892 28.7062L13.9487 28.2283L13.7602 28.2031L13.3203 28.027L13.0563 27.7126L12.4153 27.5491L13.0563 27.7126ZM14.0241 28.7439L13.6219 28.3163L14.0241 28.7439ZM13.3831 29.0332L13.2951 29.2218L13.3831 29.0332ZM13.6848 29.4985L13.5591 29.7501L13.6848 29.4985ZM13.6973 30.0896L13.7225 30.2154L14.0744 30.6808L13.7225 30.2154L13.6973 30.0896ZM10.0019 27.0335L9.43629 26.8951L10.0019 27.0335L10.9698 27.1592L11.9125 27.524L12.0507 27.6749L11.9125 27.524L10.9698 27.1592L10.0019 27.0335ZM8.14163 32.6931L8.12906 32.2403L8.14163 32.6931ZM7.4126 36.2398L7.50059 35.699L7.4126 36.2398L7.58858 36.3278L7.43774 36.4284L7.42517 36.6422L7.43774 36.4284L7.58858 36.3278L7.4126 36.2398ZM8.80782 36.5165L9.57455 37.3214L8.80782 36.5165ZM9.83851 35.0324L8.63184 35.875L7.83997 35.5606L7.75198 35.8121L7.83997 35.5606H7.8274L7.90281 35.4348L7.87767 35.2085L7.90281 35.4348L7.8274 35.5606H7.83997L8.63184 35.875L9.83851 35.0324L11.2212 34.1897L11.3343 33.2087L11.1834 32.6176L11.5228 32.4164L11.7868 31.9007L12.0507 31.775L11.7868 31.9007L11.5228 32.4164L11.1834 32.6176L11.3343 33.2087L11.2212 34.1897L9.83851 35.0324L10.2282 36.0008L10.115 36.1266L10.2282 36.0008L9.83851 35.0324ZM22.3954 42.415L22.0937 42.5785L22.3954 42.415ZM16.9403 48.0369L17.3802 47.1943L18.0087 46.8295L19.9821 46.5277L22.0058 45.7228L19.9821 46.5277L18.0087 46.8295L17.3802 47.1943L16.9403 48.0369L16.626 48.1627L16.4249 47.8986L16.161 47.9363L15.4822 47.8608L15.3565 47.7728L14.5521 47.798L14.3635 47.8734L14.0619 47.6596L13.911 48.0495L14.0619 47.6596L14.3635 47.8734L14.5521 47.798L15.3565 47.7728L15.4822 47.8608L16.161 47.9363L16.4249 47.8986L16.626 48.1627L16.9403 48.0369ZM15.9221 37.6735L15.5199 38.4407L15.5828 38.4533L15.5199 38.4407L15.9221 37.6735ZM12.2267 29.0835L12.0633 28.8068L12.2267 29.0835ZM13.4082 30.0896L13.182 29.8758L13.4082 30.0896ZM13.7602 30.6053L14.0744 30.6808L13.7602 30.6053ZM15.2937 30.6305L15.4445 30.2406L15.2057 30.0016L15.4445 30.2406L15.2937 30.6305L15.7713 31.0581L15.2937 30.6305ZM18.3983 32.3409L17.443 32.2026L16.9026 31.7875L16.2489 31.624L15.9347 31.0203L15.8342 30.6179L16.0478 30.4292L16.0981 30.1525L16.0855 29.5237L16.6135 29.4608L16.3621 29.247L16.0478 29.2218L15.6079 28.6559L15.1805 28.2534L14.263 27.3353L14.2127 26.8196L13.4711 26.0776L13.911 25.2853L14.4892 25.1469L14.6652 24.6816L15.2182 24.5181L15.8467 24.1785L16.4375 24.3671L17.0534 24.3294L17.2922 24.8199L17.3676 25.5745L16.7894 25.4613L16.2866 25.5871L16.3998 26.1531L15.7713 26.0776L15.8467 26.3291L16.2489 26.5304L16.714 27.2221L17.5185 27.4862L17.707 27.7503L17.619 28.0773L17.707 28.266L18.0212 28.7691L17.9584 28.2031L18.4235 28.0019L18.7251 28.4546L19.3033 28.92L18.8005 29.1715L18.1344 28.9829L18.1469 29.6369L18.5869 29.6872L18.5366 30.2406L19.1022 30.5047L19.1902 31.3599L19.4164 31.9259L19.3913 32.1271L18.3983 32.3409ZM19.9695 31.775L20.3466 31.3096L19.9695 31.775ZM20.7865 31.3348L21.0505 31.1838L20.7865 31.3348ZM27.4358 38.2521L27.5489 38.076L27.4358 38.2521ZM28.8561 37.8119L28.7556 37.1327L29.0447 36.68L28.7556 37.1327L28.8561 37.8119ZM29.5474 36.68L29.5726 36.4661L29.5474 36.68ZM30.6033 35.2462L30.4147 35.7241L30.553 36.202L30.3393 36.4284L30.553 36.202L30.4147 35.7241L30.6033 35.2462L30.9804 35.045L30.6033 34.5167L30.9804 35.045L30.6033 35.2462ZM31.2569 33.9382L31.3574 34.2526L31.2443 34.5419L31.3574 34.2526L31.2569 33.9382L31.5083 33.5986L31.3323 33.1961L31.0935 32.844L31.3952 32.4918L31.0935 32.844L31.3323 33.1961L31.5083 33.5986L31.2569 33.9382ZM43.6001 40.604L42.7454 40.4153L42.2049 40.3398L41.7273 39.9374L40.772 39.8242L39.8041 39.384L39.0751 38.9941L38.3586 38.6797L38.4718 37.9376L38.8237 37.5729L39.0625 37.3843L38.8237 37.5729L38.4718 37.9376L38.3586 38.6797L39.0751 38.9941L39.8041 39.384L40.772 39.8242L41.7273 39.9374L42.2049 40.3398L42.7454 40.4153L43.6001 40.604L44.1783 40.5914L43.6001 40.604ZM44.4548 42.1258L44.9199 42.3396L44.4548 42.1258ZM45.4604 40.9561L45.6112 41.5095L45.4604 40.9561ZM46.843 42.4653L47.1447 42.415L47.3458 41.7485L47.1447 42.415L46.843 42.4653L46.7048 42.9181L46.843 42.4653ZM48.2257 43.8991L47.924 44.0878L47.9869 44.6663L47.924 44.0878L47.3584 42.8175L47.924 44.0878L48.2257 43.8991L48.1126 43.5595L48.2257 43.2954L48.1126 42.4653L48.2257 43.2954L48.1126 43.5595L48.2257 43.8991ZM48.9924 40.4656L49.1055 40.9184L48.8416 41.5975L48.8793 41.9874L48.6907 42.6414L48.8793 41.9874L48.8416 41.5975L49.1055 40.9184L48.9924 40.4656L49.7591 39.9122L48.9924 40.4656ZM50.2745 40.0506L50.1111 39.5601L50.3122 39.4091L50.1991 39.1073H50.2242H50.1991L50.3122 39.4091L50.1111 39.5601L50.2745 40.0506ZM51.0915 42.6037L51.7954 42.4779L51.0915 42.6037ZM54.1333 46.993L54.1836 46.1504L53.706 46.1126L53.5928 45.6347L53.266 45.3958L53.5928 45.6347L53.706 46.1126L54.1836 46.1504L54.1333 46.993L54.259 47.7099L54.1333 46.993ZM55.1515 47.3829L54.9252 47.232L55.1515 47.3829L55.5537 47.3578L55.1515 47.3829ZM57.5019 50.3133L57.6905 49.9486L57.6276 49.2695L56.974 48.5777L56.8106 47.7854L56.1947 47.1314L55.6542 47.0811L56.1947 47.1314L56.8106 47.7854L56.974 48.5777L57.6276 49.2695L57.6905 49.9486L57.5019 50.3133L58.1178 50.6152L57.5019 50.3133ZM58.2813 24.3671L58.8217 24.4552L58.2813 24.3671ZM66.6777 28.5175L66.3383 28.1025L66.6777 28.5175ZM67.1302 27.7755L67.1176 27.3353L67.1302 27.7755ZM67.8843 27.3856L67.4067 26.4675L66.8159 25.8009L67.1804 25.5242L66.8159 25.8009L67.4067 26.4675L67.8843 27.3856ZM67.4947 23.0591L67.6581 23.7635L67.6078 24.0527L67.9598 24.908L68.0352 25.6626L67.9598 24.908L67.6078 24.0527L67.6581 23.7635L67.4947 23.0591L66.6274 23.2855L67.4947 23.0591ZM64.6037 22.8705L65.3579 23.6H66.3006H65.3579L64.6037 22.8705L63.485 22.3045L62.2406 22.0656L61.4739 21.2984L60.9208 20.833L60.4432 20.4935L59.4754 19.7263L58.7338 19.437L57.6653 19.2106L56.886 19.2358L57.6653 19.2106L58.7338 19.437L59.4754 19.7263L60.4432 20.4935L60.9208 20.833L61.4739 21.2984L62.2406 22.0656L63.485 22.3045L64.6037 22.8705Z" fill="#CC5636"/>
<path d="M74.3071 6.74735L73.5529 6.29419L73.377 6.57112L73.8169 6.77252L74.3071 6.74735Z" fill="#CC5636"/>
<path d="M54.4478 4.20655L55.3025 4.2569L55.4408 4.00516L53.9701 3.84153L52.9395 3.75342L53.1531 3.95481L54.4478 4.20655Z" fill="#CC5636"/>
<path d="M69.4429 20.3803L70.4233 21.1349L71.2278 22.1788L71.5294 22.7574L72.2207 23.6126L72.6984 24.3672L73.2766 25.0212L73.264 24.4175L74.081 24.8955L73.7039 24.3421L72.5098 23.5497L72.0448 22.4178L73.1635 22.6693L71.454 21.2984L70.549 20.5187L69.908 19.764L69.0532 19.0346L68.4373 18.5315L68.2739 18.6321L68.827 18.9843L68.5882 19.3364L69.4429 20.3803Z" fill="#CC5636"/>
<path d="M60.7071 45.66L60.3049 45.6475L59.5758 45.874L59.2993 46.2263L59.425 46.9184L60.0409 47.17L60.5814 46.78L60.6568 46.327L60.9082 45.9746L60.7071 45.66Z" fill="#CC5636"/>
<path d="M58.5451 65.1791L58.7588 64.173L58.432 63.6699L57.9166 63.607L57.6778 63.1543L57.5647 62.6009L57.3133 62.5757L56.9111 62.299L57.2002 61.645L56.6597 61.2803L56.2449 60.6137L55.6416 60.0604L54.9251 60.0478L54.2338 59.1926L53.8316 58.853L53.2659 58.3122L52.6123 57.5324L51.5062 57.3815L51.0537 57.3438L51.1291 57.7462L51.8959 58.6266L52.4489 59.0794L52.8386 59.7711L53.4796 60.2742L53.7561 60.8904L53.9698 61.5822L54.5857 62.2487L55.1011 63.3681L55.4405 63.9718L55.9558 64.6258L56.2323 65.1037L57.1122 65.7577L57.6778 66.4243L58.4571 66.4117L58.5451 65.1791Z" fill="#CC5636"/>
<path d="M63.4349 67.8078L63.2087 67.2921L61.914 66.9022L61.7506 67.2292L60.4057 67.1538L60.3177 66.8645L60.0286 66.8016L59.4755 66.4998L58.6208 66.4495L58.1055 67.2167L58.7465 67.267L58.8471 67.6191L60.104 67.9461L60.4057 67.8455L60.921 67.921L61.7129 68.2228L62.3665 68.3737L63.0955 68.4366L63.7366 68.4115L64.4782 68.7259L65.3078 68.424L64.4782 67.9461L63.4349 67.8078Z" fill="#CC5636"/>
<path d="M67.9094 61.0038L67.0924 60.2617L67.2055 59.897L66.665 59.1424L67.0421 58.4129L67.5449 58.1488L67.394 57.7589L67.8717 57.7086L67.9094 57.4067L67.306 57.1552L66.8284 56.9414L66.7781 56.5892L66.3885 56.1868H66.0994L65.7851 56.8156L65.2698 57.369L65.2572 57.7589L65.2446 58.2746L64.9053 58.2494L64.767 58.5261L64.4276 58.1111L64.1008 58.6141L63.6232 59.243L62.781 59.4191L62.4794 59.57L62.3662 60.2492L61.8132 60.4001L61.2978 60.1234L60.883 60.6516L60.8076 61.3937L60.9082 62.098L61.235 62.7772L61.5869 63.0035L61.6749 64.0726L62.2531 64.1732L62.7056 64.1229L62.957 64.5128L63.7992 64.2235L64.1511 64.4751L64.6539 64.5254L64.9053 65.0159L65.7223 64.6511L65.8228 64.9404L66.1371 63.7204L66.1748 62.9155L66.8661 62.3747L66.841 61.6452L67.0672 61.1044L67.9094 61.0038Z" fill="#CC5636"/>
<path d="M71.4919 60.9911L70.6749 61.0289L69.7825 60.9157L69.2294 60.6767L68.6386 61.2804L68.4878 61.6074L68.1233 62.8148L68.0102 63.4436L67.7085 63.9718L67.9096 64.5126L68.1987 64.5252L68.2741 65.2924L68.0353 66.0344L68.3244 66.2734L68.7769 66.1476L68.8146 65.0031L68.7895 64.0724L69.2671 63.8335L69.1791 64.6132L69.6693 65.0786L69.5688 65.393L69.7322 65.6068L70.4361 65.305L70.059 65.959L70.323 66.2356L70.7126 65.9967L70.7503 65.481L70.1595 64.5504L70.2978 64.2737L69.6568 63.2549L70.2852 62.9405L70.612 62.4752L70.9137 62.5884L70.9766 62.2237L69.6568 62.4878L69.2671 62.8525L68.6386 62.1482L68.7518 61.5445L69.3677 61.4187L70.5366 61.381L71.2154 61.5445L71.7559 61.381L72.3089 60.5887L72.1832 60.4126L71.4919 60.9911Z" fill="#CC5636"/>
<path d="M73.2516 34.24L73.1134 34.5797L72.6986 34.4791L72.5352 34.9573L72.686 35.3348L73.2139 35.5613L73.2013 35.0957L73.4653 34.9069L73.855 35.1712L74.0184 34.6804L73.8172 34.4036L73.2516 34.24Z" fill="#CC5636"/>
<path d="M76.1302 27.3353L76.9346 27.1215L76.1804 26.2537L75.9668 26.5807L75.4011 26.4172L74.735 26.1531L73.4277 25.3481L73.6665 25.9518L74.207 27.0209L73.5534 27.0712L73.6288 27.6623L74.207 28.4295H74.9235L74.7224 27.5743L76.0799 28.1025L76.1302 27.3353Z" fill="#CC5636"/>
<path d="M76.8844 31.9763L76.4318 31.1337L76.5952 30.3287L76.2433 29.6747L75.2252 28.5806L74.6218 28.7315L74.647 29.222L75.288 30.1149L75.4137 31.1085L75.2 31.4229L74.6344 32.2404L74.0059 31.8505V33.2969L73.2141 33.1334L72.0074 33.3723L71.7686 33.9257L71.2784 34.3408L71.1401 34.8438L70.5996 35.0954L71.1024 35.6362L71.6177 35.8751L71.7309 36.592L72.1708 36.9064L72.485 36.5669L72.3845 35.2086L71.4669 34.6174L72.2336 34.6049L72.8621 34.2276L73.9431 34.0515L74.2448 34.6552L74.823 34.957L75.376 34.0389L76.5198 33.9886L77.1986 33.6113L77.274 33.0328L76.9598 32.6303L76.8844 31.9763Z" fill="#CC5636"/>
<path d="M70.5992 54.2751L70.7751 53.7721L71.0014 53.5079V52.7407L70.5489 53.5079L70.6117 52.9797L70.2346 53.0174L70.1969 53.5205L70.0461 53.7469L69.9204 53.9607L70.398 54.5141L70.5992 54.2751Z" fill="#CC5636"/>
<path d="M69.6064 53.3701L70.0212 53.131L70.3228 52.7912L70.2977 52.4641H69.8452L69.4053 52.2124L69.5561 52.5899L69.5435 53.0051L69.6064 53.3701Z" fill="#CC5636"/>
<path d="M67.6704 49.3951L67.8212 49.7473L68.236 50.2126L68.2863 49.9234L68.5125 50.0994L68.324 50.3133L68.3365 50.6403L68.7011 50.8163L69.3295 50.7031L69.8323 51.1811L69.9706 50.8792L70.2848 51.3068L70.8881 51.6967L70.9133 51.332L70.6619 51.1308L70.6745 50.7031L69.7318 50.2504L69.4427 50.351L69.053 50.2629L68.8016 49.6215L68.8142 48.9801L69.1913 48.716L69.2667 48.0494L68.9273 47.4709L68.9776 47.1439L68.8896 46.9426L68.7011 47.1439L68.236 46.9175H67.8212L67.7081 47.6469L67.8463 48.8921L67.5195 48.6405L67.6704 49.3951Z" fill="#CC5636"/>
<path d="M71.9192 51.9985L71.6929 51.6967L71.0142 51.6841L71.5169 52.2878L71.5546 52.5896L71.1399 52.5267L71.2907 53.0172L71.5044 53.055L71.5923 53.6209L71.9066 53.4448L71.6929 52.9418L71.6426 52.6777L72.2083 52.8915L71.9192 51.9985Z" fill="#CC5636"/>
<path d="M68.588 51.5589L68.9399 51.9615L69.0405 51.2694L68.764 50.98L68.1606 50.9548L68.588 51.5589Z" fill="#CC5636"/>
<path d="M66.3384 55.0297L67.2182 54.275L67.545 53.7216L67.9724 53.2814L67.7839 52.6274L67.4822 53.4198L67.1177 53.9732L66.64 54.4763L66.3384 55.0297Z" fill="#CC5636"/>
<path d="M72.8241 54.9918L72.7487 54.7026L72.6482 54.3001L72.0448 53.9229L72.1454 54.5391L71.6552 54.5643L71.5672 54.9164L71.0393 55.1302L70.7628 54.7781L70.4108 55.0799L69.9835 55.2937L69.7446 55.9728L69.8829 56.2118L70.3731 55.759L70.7125 55.7967L70.901 55.4572L71.3787 55.8345L71.1901 56.2243L71.4289 56.8029L72.2837 57.2682L72.4596 56.8909L72.1957 56.2998L72.4973 55.8974L72.8116 56.7022L73.0001 55.9728L72.9247 55.5326L72.8241 54.9918Z" fill="#CC5636"/>
<path d="M66.8912 42.0881L66.6523 42.8805L66.8409 43.4716L67.3437 44.1508L67.5071 43.4967L67.6579 42.2139L67.6705 41.7233L67.306 41.4844L66.8912 42.0881Z" fill="#CC5636"/>
<path d="M6.62059 33.2591L6.57031 33.2843L6.48233 33.3346L6.19323 33.4353L6.09267 33.4478H5.99212L5.86642 33.4353L5.7533 33.4101V33.4982L5.72816 33.5737L5.65274 33.5989L5.61503 33.5863L5.57733 33.5737L5.51448 33.5989L5.4642 33.6492L5.41392 33.6869L5.35107 33.6492L5.37621 33.7624L5.45163 33.9009L5.47677 33.9386L5.51448 33.9638L5.65274 34.0015H5.69045H5.76587L5.79101 34.0141L5.81615 34.0645H5.86642V34.0519V34.0141L5.89156 33.989L5.92927 33.9638H5.96698L6.0424 33.9512L6.11781 33.926L6.18066 33.8757L6.29379 33.7499H6.3315H6.3692H6.44462L6.52004 33.7373L6.4949 33.6869L6.48233 33.6744L6.43205 33.6114L6.40691 33.5611L6.41948 33.4856L6.73372 33.2465L6.79657 33.1836L6.69601 33.2088L6.62059 33.2591Z" fill="#CC5636"/>
</svg>
