<svg width="80" height="82" viewBox="0 0 80 82" fill="none" xmlns="http://www.w3.org/2000/svg">
<path d="M20.5593 36.1875L21.2345 35.4599L21.5982 35.8757L21.1566 36.5773L21.4163 36.9931L22.8968 37.279H22.9227L23.7279 38.2665L23.5201 39.1761L21.6761 39.0202L21.4163 40.0597L22.0916 40.9173L20.767 41.411L21.1047 42.0347L23.0526 42.2946L21.9358 42.6324L20.0398 44.3216L20.6891 44.6335L21.5982 44.0358L22.7669 44.2177L23.624 43.464L24.1954 43.7759L26.351 43.3341L28.0392 43.3601L29.156 42.5025L28.6625 41.6969L29.2859 41.2291L29.4157 40.2156L27.9093 39.9037L27.5717 39.306L26.8185 37.5129L25.9874 37.253L24.9226 35.4079L24.8187 35.252L23.572 35.148L24.6628 33.7707L25.0005 32.4973H23.7019L22.4812 32.7052L23.7798 31.042L22.3513 31.1719L21.4163 31.068L20.4554 32.3154L19.9619 33.9006L20.5333 34.6802L20.5593 36.1875Z" fill="#FFAF3B"/>
<path d="M16.6112 41.9046L18.8708 40.9691L19.8837 39.5657L19.7019 38.4483L20.4031 37.3568L19.1305 36.3953L18.1176 36.4732L17.1566 37.2009L15.4165 38.4223L15.9619 40.0075L14.8711 41.6707L16.6112 41.9046Z" fill="#FFAF3B"/>
<path d="M38.9992 59.2123L38.272 59.1343L38.6096 60.0699L38.7135 62.0449L39.2589 62.4867L39.7784 61.941L40.4017 62.0449L40.5056 59.862L39.6485 58.7185L38.9992 59.2123Z" fill="#FFAF3B"/>
<path d="M47.3622 63.7601L46.0117 63.942L44.4014 63.7861L44.2456 64.6696L46.1935 65.5272L46.8948 65.7091L47.9856 66.3328L48.2193 65.4752L47.9856 64.9555L48.4011 63.6301L47.3622 63.7601Z" fill="#FFAF3B"/>
<path d="M78.3728 47.206L78.0092 46.5304L78.3468 45.6988L78.2429 45.205L76.269 44.6852L75.5158 44.7112L74.5809 43.9576L75.5158 44.7112L76.269 44.6852L78.2429 45.205L78.3468 45.6988L78.0092 46.5304L78.3728 47.206L79.2558 18.8537L77.8274 19.1396L76.7885 18.6458L76.4768 17.8662L77.7754 17.6843L76.8404 16.9047L73.6718 16.4369L74.7886 17.3205L74.5809 18.1521L75.8015 19.0097L75.5158 19.9972L74.3211 19.5034L73.2823 19.4255L71.2045 20.8288L72.2953 21.8943L71.4642 22.2581L68.5034 21.3485L67.958 21.8943L68.8151 22.518L68.867 23.2196L67.8801 22.8558L66.3218 22.414L65.8283 20.9067L65.5686 20.2311L63.4908 19.1916L64.244 19.0097L69.4644 20.1011L71.1266 19.7113L72.0875 18.9577L71.672 18.0221L70.6331 17.3465L66.062 15.7612L63.0493 15.4234L61.0754 14.5918L60.1404 15.0596L58.4782 15.6313L57.6471 15.7612L57.751 16.7228L59.621 17.6843L58.8938 18.7498L60.556 20.387L60.1144 21.6344L61.3871 22.6999L61.1533 23.6614L63.0493 24.6749L62.8155 25.4286L61.9585 26.2861L59.9067 28.2092L61.2832 28.9369L60.1144 29.7685L60.3482 30.0283L59.6729 30.9119L60.3222 32.3412L59.9067 32.835L60.53 33.1988L60.7897 33.9264L61.3351 34.862L62.6857 35.2518L62.9454 35.6156L62.6857 35.2518L61.3351 34.862L60.7897 33.9264L60.53 33.1988L59.9067 32.835L60.3222 32.3412L59.6729 30.9119L60.3482 30.0283L60.1144 29.7685L58.9197 29.8204L57.5952 29.5606L56.1667 29.7944L54.7642 30.2102L54.998 31.0938L55.855 31.6396L56.2446 31.4317L56.2706 32.3412L56.2186 33.5366L55.2836 33.5626L54.1409 32.3932L53.102 32.9389L52.6605 33.9005L52.7903 35.0699L53.2319 36.3693L51.5956 36.889L51.4138 37.5647L52.9462 37.7466L55.2057 37.7206L52.9462 37.7466L51.4138 37.5647L50.2191 37.5387L50.0892 37.1749L48.8426 36.889L47.3622 37.4348L45.5182 38.1624L44.713 38.6042L45.0767 39.4098L44.765 39.8256L45.2844 40.3973L45.648 41.2549L45.6221 41.8006L46.2194 42.8142L46.8427 43.3079L47.8037 43.4638L47.7777 43.9056L48.479 44.2175L47.7777 43.9056L47.8037 43.4638L46.8427 43.3079L46.2194 42.8142L45.9078 42.8921L46.2194 42.8142L45.6221 41.8006L45.648 41.2549L45.2844 40.3973L44.765 39.8256L45.0767 39.4098L44.713 38.6042L44.0897 38.1104L42.6613 37.4867L42.012 37.9285L40.7913 38.2144L40.7653 37.6686L39.4927 37.3048L39.4407 36.7071L39.0511 35.9275L39.8563 34.81L40.2199 34.9919L40.4796 34.3942L39.8043 34.1603L39.6225 33.7445L39.9602 33.2248L39.9342 32.4452L38.9992 32.861L38.6096 33.3027L37.5707 33.4067L37.2591 33.8485L37.0773 34.2643L37.1812 35.8495L37.7266 36.7331L38.6616 36.941L37.7266 36.7331L37.8305 37.6167L38.1421 38.1884L37.363 38.968L37.1032 38.6302L36.0903 38.7081L35.8566 39.046L34.8437 38.994L33.1555 39.6697L32.1426 41.9826L31.4933 42.4243L30.5064 42.7362L30.6882 43.3079L31.2595 43.3339L31.8829 43.9576L32.7659 44.7112L31.8829 43.9576L31.2595 43.3339L30.6882 43.3079L30.5064 42.7362L29.3896 43.048L29.026 44.3734L26.0911 45.6208L24.8964 44.9451L25.26 46.7642L23.1303 46.3484L21.4681 46.6863L21.572 47.8817L23.5199 48.5054L24.4549 49.311L25.7795 51.0002L25.5197 54.1966L24.8185 55.1582L25.3379 55.7819L27.7793 56.5095L25.3379 55.7819L24.8185 55.1582L22.6888 55.1062L21.598 55.1842L20.1955 54.9243H18.4294L16.8191 54.6384L14.8972 55.8079L15.4166 56.4835L15.3127 57.627L15.8062 57.2112L16.3516 56.9773L15.8062 57.2112L15.3127 57.627L15.3387 58.1727L15.5725 58.7444L15.5984 59.4461L15.2608 60.4336L15.1569 61.0833L14.5855 61.681L14.4297 62.7725L14.7414 63.3962L15.3387 63.5521L15.4426 64.5916L15.1829 65.917L15.9101 65.7351L16.6113 65.969L17.1827 65.5272L18.4294 65.787L18.793 66.7486L19.3124 67.3203L19.9617 67.4762L20.5071 66.8265L21.3642 66.2288L22.6628 66.2548H24.4029L25.3899 64.9554L26.4028 64.6176L26.7144 63.5261L27.4936 62.7725L26.9742 61.811L27.4936 60.4856L28.2987 59.576L28.4286 59.0303L30.1428 58.6925L31.3894 57.601L31.3115 56.6914L29.7532 56.8993L29.4155 56.7174L29.7532 56.8993L31.3115 56.6914L31.4414 55.7299L33.3633 55.2102L35.9605 55.626L37.1292 54.7424L37.6746 54.6124L38.4018 53.8848L38.9992 53.6509L40.09 54.1966L40.7653 54.3786L41.2588 55.9378L42.1938 56.8734L43.4664 57.9129L44.5572 58.6405L45.5701 58.7444L46.1675 59.3941L47.0505 59.706L47.492 60.4076L48.0634 60.6155L48.5309 61.4471L49.1283 62.4087L48.8426 62.7465L48.6348 63.6561L48.6608 64.1758L49.2062 64.0459L49.8555 62.5906L50.4009 62.4866L50.5048 61.6291L49.4919 61.0313L49.9854 59.9659L51.1541 60.2257L51.9592 61.0054L52.167 60.4076L52.0112 60.0958L50.7905 59.2642L49.7776 58.7704L48.5309 58.1727L48.8945 57.8609L48.5309 57.4971L47.492 57.523L45.9337 56.2237L45.1805 54.8983L43.9079 54.0927L43.4144 53.2871L43.5443 52.8193L43.4404 52.0397L44.4533 51.468L45.5182 51.7019L45.1546 51.0002L45.2325 50.2206L43.7261 49.8827L45.2325 50.2206L45.1546 51.0002L45.5182 51.7019L45.2325 51.8318L46.1415 51.8838L45.2325 51.8318L45.1805 51.8578V52.4295L45.6221 52.9493L45.9597 52.2736L46.8168 52.5335L46.8947 53.0532L47.544 53.7289L47.2843 53.8588L48.479 55.0282L49.7256 55.496L50.5308 56.0677L51.8294 56.6655L52.4267 56.9773L52.8423 57.523L53.128 57.627L52.9981 57.1332L53.5176 56.3276L52.9981 57.1332L53.128 57.627L53.3877 57.8869L53.2578 58.3806L53.2319 59.4981L53.4137 60.2777L54.1928 60.8234L54.2448 61.1873L54.5045 61.2912L55.0499 60.5116L55.0759 59.9659L55.4914 59.732V59.3162L54.8941 58.9004L54.6603 58.2247L54.7642 57.679L54.946 57.627V57.575V57.679H54.7642L54.6603 58.2247L54.8941 58.9004L55.4914 59.3162V59.732L55.0759 59.9659L55.0499 60.5116L54.5045 61.2912L54.6343 61.785L55.3875 62.7205L55.9849 63.5002L56.3225 64.6176L56.9199 65.943L58.1146 66.6966L58.9977 66.6706L58.3743 65.1893L59.2314 65.0074L58.7379 64.1498L60.0365 64.5916L59.9326 63.6301L59.2314 63.1623L58.4003 62.3827L58.8678 62.0189L58.1406 61.2392L57.725 60.2517L57.9588 59.9139L58.7379 60.7455H59.4911L60.1404 60.4856L59.1275 59.5501L60.7118 59.1343L61.413 59.2902L62.2442 59.3422L62.3221 59.732L62.7636 60.4336L64.2959 59.0563L65.8802 58.9524L66.062 58.5625L64.6855 58.0168L64.6336 57.2892L64.5297 57.2632L64.0622 56.5095L64.3998 55.3661L64.9712 54.7164L64.1921 54.5345L63.1532 53.9628L64.1921 54.5345L64.9712 54.7164L65.0751 52.7933L65.4907 52.9233L66.088 52.5854L65.9841 52.1696L66.8412 50.9742L67.1788 50.0906L68.3476 49.8827L68.5294 50.5064L70.6071 50.8962L71.0487 51.2601L69.8799 51.8058L69.6981 52.1177L71.2045 52.5854L71.0487 53.3391L71.8278 53.6769L73.4641 52.7414L74.8406 52.4555L74.9964 51.8838L73.6718 51.9877L72.9706 51.5979L72.7109 50.5844L73.7238 49.9867L74.9185 49.9087L75.6976 49.389L76.7106 49.259L76.6067 48.5314L77.1781 48.0896L76.6067 48.5314L76.7106 49.259L77.8014 48.9992L77.9053 49.337L76.1392 50.0127L76.9703 50.6364L76.1392 51.9877L75.2561 52.2476L76.5547 53.1831L78.165 53.8068L78.3468 47.9597H78.3987L78.4767 47.4139L78.3728 47.206ZM17.6762 57.575L17.4424 57.7829L17.6762 57.575ZM29.2337 56.6395L28.2728 56.1717L29.2337 56.6395ZM64.7894 35.7975L65.0491 36.5512L64.8933 36.967L65.8543 37.9805L66.4256 38.2663L66.3997 38.5522L67.2827 38.8381L67.7242 39.2539L67.3087 39.5917L67.7242 39.2539L67.2827 38.8381L66.3997 38.5522L66.4256 38.2663L65.8543 37.9805L64.8933 36.967L65.0491 36.5512L64.7894 35.7975L63.5428 35.4337L64.7894 35.7975ZM57.8029 57.4451L57.0757 56.9253L57.8029 57.4451L57.8289 57.549L57.8029 57.4451ZM46.9466 49.9607L48.0634 49.9347L48.2972 49.6488L48.0634 49.9347L46.9466 49.9607L46.3233 50.3245L46.9466 49.9607ZM48.9465 47.0501L49.1283 47.5958L49.8036 48.0116L50.297 48.1935L51.3619 47.9857L51.4398 47.6738L51.9333 47.6218L52.5306 47.362L52.6864 47.4659L53.2578 47.284L53.5176 46.8942L53.9331 46.7902L55.3616 47.284L55.5693 47.1541L55.3616 47.284L53.9331 46.7902L53.5176 46.8942L53.2578 47.284L52.6864 47.4659L52.5306 47.362L51.9333 47.6218L51.4398 47.6738L51.3619 47.9857L50.297 48.1935L49.8036 48.0116L49.1283 47.5958L48.9465 47.0501ZM59.6989 36.3953L58.7899 36.915L58.66 37.7986L57.4134 38.3703L58.66 37.7986L58.7899 36.915L59.6989 36.3953L59.4651 35.7196L58.1665 34.9659L57.5172 34.862L57.2835 34.5242L57.5172 34.862L58.1665 34.9659L59.4651 35.7196L59.6989 36.3953ZM65.6725 42.4763L65.153 42.3204L65.6725 42.4763ZM64.0362 42.3983L63.6466 42.0085L64.0362 42.3983ZM61.465 47.4399L61.5169 47.4659L61.465 47.4399ZM61.5689 47.362L61.7507 47.206L61.5689 47.362ZM56.4005 53.469L56.7641 53.1312L56.4005 53.469ZM57.1017 53.8588L57.5692 54.5345L57.1017 53.8588ZM56.1407 34.6801H55.9329H56.1407ZM50.6866 52.5335L49.6477 52.2996L50.6866 52.5335ZM48.6868 52.6374L48.1933 52.2736L48.6868 52.6374ZM52.219 52.8713L51.5956 52.5075L52.219 52.8713ZM51.8294 51.1821L51.3619 51.416L51.8294 51.1821L52.7903 50.7663L51.8294 51.1821ZM54.6084 50.5324L55.2836 49.415L55.7771 48.3235L56.5303 47.9857L57.0238 47.6478L56.5303 47.9857L55.7771 48.3235L55.2836 49.415L54.6084 50.5324L53.6214 50.8183L54.3746 51.468L54.5824 51.9617L55.4135 52.3515L55.4395 52.4295L55.4135 52.3515L54.5824 51.9617L54.3746 51.468L53.6214 50.8183L54.6084 50.5324ZM54.4785 56.0158L54.5305 55.7559L54.4785 56.0158L54.4525 56.0418L54.4785 56.0158ZM58.0627 54.4045L59.1015 54.6644L61.0494 54.7424L59.1015 54.6644L58.0627 54.4045ZM59.3093 48.2195L59.7249 47.9857L59.3093 48.2195ZM60.6599 47.8297L60.9196 47.4399L60.6599 47.8297ZM65.9322 41.3069L66.6854 41.2549L65.9322 41.3069ZM61.7247 42.0345L62.7116 42.0605L63.2311 42.2944L62.7116 42.0605L61.7247 42.0345L60.2703 41.6447L58.9717 41.5148L58.0107 41.5668L58.9717 41.5148L60.2703 41.6447L61.7247 42.0345ZM57.777 32.2633L58.9197 32.835L57.777 32.2633L57.2315 32.0813L57.777 32.2633ZM56.0888 46.0366L56.3745 46.1405L56.0888 46.0366L54.8162 45.4389L56.0888 46.0366ZM52.5826 45.8287L51.8813 45.257L52.5826 45.8287ZM49.5179 43.9836L49.6997 44.5033L50.6347 44.5813L51.3099 45.3869L51.3878 45.4909L51.3099 45.3869L50.6347 44.5813L49.6997 44.5033L49.5179 43.9836L48.6348 43.8277L49.5179 43.9836ZM49.0244 46.8422L48.9725 46.9981L49.0244 46.8422L48.427 46.5304L49.0244 46.8422ZM47.8297 46.6083L46.8427 46.1405L47.8297 46.6083ZM45.3104 42.7882L45.0247 43.1L45.3104 42.7882ZM44.1417 43.4119L43.7001 43.8017L44.1417 43.4119ZM38.298 48.0636L38.0382 48.4274L38.298 48.0636ZM36.2462 51.0522L36.8176 51.39L36.2462 51.0522ZM36.0124 48.5314L36.6098 48.6873L36.0124 48.5314ZM35.1034 43.2819L34.8697 41.8526L35.1034 43.2819ZM34.8956 44.3994L34.6619 44.4254L34.8956 44.3994ZM34.558 45.3349L33.4152 44.6073L34.558 45.3349ZM35.5709 41.6187L35.8566 41.021L35.5709 41.6187H34.8177H35.5709ZM32.4283 42.5543L33.5711 42.2164L33.597 42.2424L33.5711 42.2164L32.4283 42.5543ZM35.1553 50.5844L35.7787 50.3505L35.1553 50.5844ZM38.3759 51.0262L38.1421 50.7663L38.3759 51.0262L38.9992 50.9742L38.3759 51.0262ZM39.233 50.3245L40.2199 50.5324L39.233 50.3245ZM41.7782 49.5189L41.6483 49.8308L41.7782 49.5189L43.0249 49.233L41.7782 49.5189ZM44.1157 48.3755L43.856 47.336L44.1157 48.3755ZM44.6871 46.3744L43.9339 45.6988L43.2586 45.3089L43.0768 44.6333L42.8171 44.1395L43.0768 44.6333L43.2586 45.3089L43.9339 45.6988L44.6871 46.3744L45.674 46.8942L44.6871 46.3744ZM46.8168 51.8838L46.3493 51.6239L46.8168 51.8838L47.3362 51.9098L46.8168 51.8838ZM53.2838 55.496L53.076 55.2881L52.6864 55.0023L52.4527 55.1582L52.0631 55.522L51.9592 56.4056L52.0631 55.522L52.4527 55.1582L52.6864 55.0023L52.9981 54.9243L53.128 54.1707L52.4267 53.5729L52.6864 52.8713L52.4267 53.5729L53.128 54.1707L52.9981 54.9243L52.6864 55.0023L53.076 55.2881L53.2838 55.496L53.7513 55.6779L54.2707 55.9898L54.1928 56.0937L54.2707 55.9898L53.7513 55.6779L53.2838 55.496ZM53.5435 56.4316L53.6214 56.6395L53.5435 56.4316ZM57.5172 58.8484H57.5692H57.5172ZM61.0235 58.6665L60.0106 58.1207L61.0235 58.6665L62.2182 58.5106L61.0235 58.6665ZM64.7894 52.1436L65.3608 51.8838L64.7894 52.1436ZM65.9581 50.4804L65.179 50.4285L65.0232 50.1946L65.179 50.4285L65.9581 50.4804L66.2698 50.3505L65.9581 50.4804ZM66.997 41.2289L66.4776 40.2154L66.088 39.6957L66.2958 39.5397L66.088 39.6957L66.4776 40.2154L66.997 41.2289L67.4645 41.2809L66.997 41.2289ZM67.7242 40.9171L68.1138 40.995L67.7242 40.9171ZM71.9577 43.6457L71.9057 43.3339L71.3344 42.6322L70.2955 42.5803L70.1137 42.0865L70.3474 41.7487L69.3605 40.8651L70.3474 41.7487L70.1137 42.0865L70.2955 42.5803L71.3344 42.6322L71.9057 43.3339L71.9577 43.6457L73.6718 44.2175L71.9577 43.6457Z" fill="#FFAF3B"/>
<path d="M79.2818 17.9185L79.2559 18.8545L79.3857 18.8285L79.2818 17.9185Z" fill="#FFAF3B"/>
<path d="M40.5312 35.4597L40.765 36.1094L42.0896 36.993L42.7129 35.7196L42.2714 34.9399L40.5312 35.4597Z" fill="#FFAF3B"/>
<path d="M11.4949 19.4516L9.70279 19.3477L7.80683 20.1013L6.48226 19.7115L4.69019 20.4911L3.15784 19.5036L1.46966 19.7115L0.534668 20.673L2.79423 21.0109L2.76826 21.4267L0.742445 21.7125L3.02798 22.4142L1.83327 23.0639L4.87199 23.5317L6.32643 23.7396L7.33934 23.4797L10.6897 22.4662L12.274 21.3747L11.1313 20.3872L11.4949 19.4516Z" fill="#FFAF3B"/>
<path d="M39.6746 3.96349L41.155 4.32731L40.3759 4.7691L42.5575 5.52274L43.7003 5.47076L43.934 4.45725L44.7132 4.22336L45.0248 3.33979L47.2325 2.87202L43.986 2.01443L42.7393 1.59863L41.4147 1.65061L41.155 2.04042H39.8564L39.285 1.65061L36.8696 2.06641L37.7007 2.97597L39.6746 3.96349Z" fill="#FFAF3B"/>
<path d="M34.0387 31.1199L35.7009 31.8995L37.2592 31.5357L39.4668 29.7685L40.3239 30.7041L41.4147 32.887L42.5575 34.6282L43.0769 36.1094L44.4535 36.0315L45.0248 34.8101L46.5053 34.94L47.0247 33.5107L47.1805 30.912L48.3752 30.5741L49.2323 28.8589L47.9857 28.0014L47.0507 26.9619L47.5961 24.8569L49.5959 23.5835L51.1802 22.4141L50.8685 21.5045L51.7516 20.491L53.5696 20.1012L53.0762 19.5295L52.6346 17.3465L50.7647 16.385L49.2323 15.6833L50.7647 16.385L52.6346 17.3465L53.0762 19.5295L53.5696 20.1012L55.2318 20.7769L55.4656 21.3746L54.7903 21.6864L52.5308 23.2717L51.6737 24.2072L51.2841 25.0648L52.0373 26.4161L52.0113 27.8974L53.232 28.3912L54.0371 29.1968L55.8811 28.8849L57.829 28.3392L59.9068 28.2093L61.9586 26.2862L62.8157 25.4286L63.0494 24.675L61.1535 23.6615L61.3872 22.6999L60.1146 21.6344L60.5561 20.387L58.8939 18.7498L59.6211 17.6844L57.7511 16.7228L57.6472 15.7613L58.4783 15.6313L60.1406 15.0596L58.7381 14.202L59.9847 13.8382L56.4525 12.8247L54.6605 13.1106L52.7645 13.0326L51.4399 14.1761L49.6998 14.0981L47.4922 14.6958L44.869 16.4629L43.2068 17.5024L40.9213 20.2831L39.0773 22.3101L36.9735 23.8174L34.0647 25.0648L33.0518 26.0003L33.5452 29.4826L34.0387 31.1199ZM57.6472 15.7613L57.855 14.7738L57.6472 15.7613ZM46.3234 17.2426H46.3754H46.3234ZM48.1155 16.6189L48.583 16.6708L48.1155 16.6189ZM42.5315 22.9338L41.4147 22.9078L42.5315 22.9338Z" fill="#FFAF3B"/>
<path d="M48.6087 4.69141L50.5825 4.17134L49.1281 3.9113L48.6346 3.46924L46.7646 3.70327L47.4399 4.09332L46.8685 4.40537L48.6087 4.69141Z" fill="#FFAF3B"/>
<path d="M45.4404 1.83256L45.6741 2.17058L48.4272 2.3526L51.0503 2.22259L52.1671 1.59854L50.2712 1.20851L47.9077 0.948486L47.0766 1.26051L45.7001 1.00049L42.999 1.31252L44.1158 1.83256H45.4404Z" fill="#FFAF3B"/>
<path d="M39.6744 58.4328L40.064 57.1854L39.7783 55.834L38.9472 56.4317L38.6875 57.0294L39.0511 58.1209L39.6744 58.4328Z" fill="#FFAF3B"/>
<path d="M46.7646 67.2685L46.7907 67.2946L46.8688 67.3467L46.9469 67.3207V67.2685L46.8688 67.2424L46.7646 67.2685Z" fill="#FFAF3B"/>
<path d="M47.1287 67.4504L46.9985 67.4243L47.0246 67.5808L47.1287 67.6851H47.2588L47.3109 67.6329L47.2588 67.5808L47.1287 67.4504Z" fill="#FFAF3B"/>
<path d="M29.2859 62.7205L29.2599 62.7726L29.2339 62.8247V62.8768H29.364L29.4682 62.9029L29.4942 62.8768V62.8247H29.364L29.2859 62.7205Z" fill="#FFAF3B"/>
<path d="M29.1558 62.2009L29.1039 62.279V62.357L29.026 62.383L29 62.487L29.026 62.5391L29.2337 62.5651L29.2857 62.461H29.3636L29.5194 62.279V62.2009L29.4415 62.1489L29.1558 62.2009Z" fill="#FFAF3B"/>
<path d="M32.792 60.5637L32.5323 60.5897L32.5063 60.6157V60.7197L32.5323 60.7457L32.6882 60.7717L33.1037 60.9537H33.1297L33.1556 60.8497V60.8237L33.0258 60.6417L32.792 60.5637Z" fill="#FFAF3B"/>
<path d="M31.9087 61.0575L31.8308 61.0315L31.701 61.0835L31.5711 61.0315L31.5971 60.9535L31.6231 60.9015L31.649 60.8755L31.5971 60.8235V60.7975L31.649 60.7455L31.5971 60.7195L31.2594 60.8235L31.0776 60.9275L30.5322 61.3175V61.3955L30.5582 61.4476H30.6621L30.714 61.5516L30.8179 61.4476L30.8958 61.4215L30.9738 61.4476L31.0517 61.4996L31.0776 61.6556L31.1036 61.7076L31.2594 61.7336L31.4932 61.8376L31.5971 61.7856L31.7269 61.7076L31.7789 61.5516L31.8568 61.4215L31.9347 61.2915L32.0126 61.1875L31.9867 61.0835L31.9087 61.0575Z" fill="#FFAF3B"/>
<path d="M8.37833 78.6248L8.32638 78.7288L8.17055 78.7808L7.96278 78.8848L7.91083 78.9628L7.85889 79.1968L7.96278 79.2228L8.04069 79.1188L8.27444 79.0408L8.4043 78.9628L8.43027 78.7288L8.48222 78.6508L8.43027 78.5728L8.37833 78.6248Z" fill="#FFAF3B"/>
<path d="M4.09287 79.9503L4.01495 79.9763L3.75523 80.0023H3.62537L3.52148 80.0543L3.57343 80.1324L3.67732 80.3924L3.85912 80.6264L4.01495 80.5744L4.09287 80.5224L4.19676 80.3664L4.32662 80.0023L4.63828 79.7423V79.6643L4.37856 79.6903L4.09287 79.9503Z" fill="#FFAF3B"/>
<path d="M1.88567 81.016H1.72949L1.75552 81.0681L1.78155 81.1203L1.96376 81.2245L2.11994 80.9379L2.06788 80.8857L1.88567 81.016Z" fill="#FFAF3B"/>
<path d="M3.08001 80.2881H3.02795L2.97589 80.3402L2.92383 80.4444L3.00192 80.5747L3.05398 80.6007H3.10604L3.23619 80.4965V80.4444L3.21016 80.3662L3.08001 80.2881Z" fill="#FFAF3B"/>
<path d="M2.37874 79.3267L2.30083 79.2227H2.11903L2.01514 79.3787L2.17097 79.6908L2.19694 79.8208H2.22291L2.35277 79.6908L2.37874 79.6128L2.35277 79.4827L2.40472 79.4307L2.37874 79.3267Z" fill="#FFAF3B"/>
<path d="M7.80687 79.4045H7.70299L7.62507 79.4565L7.5991 79.6126L7.41729 79.9506L7.28743 80.2626L7.10563 80.4186L6.92383 80.4706L6.9498 80.4966L7.1316 80.5226L7.33938 80.3406L7.72896 80.2106L7.80687 79.9506L7.88479 79.6646V79.4826L7.83285 79.4045H7.80687Z" fill="#FFAF3B"/>
<path d="M5.62509 80.392V80.366H5.59912L5.57315 80.392L5.23552 80.366L5.18357 80.522L5.05371 80.626V80.808L5.18357 80.99L5.26149 81.016L5.39134 81.042L5.57315 80.938L5.62509 80.834L5.65106 80.626L5.62509 80.522V80.392Z" fill="#FFAF3B"/>
<path d="M62.7376 68.4643L61.7247 68.3343L60.6599 68.4383L59.8547 67.8662L59.647 68.5943L61.3611 68.9063V69.1924L63.335 69.0364L63.4649 68.5423L62.7376 68.7503V68.4643Z" fill="#FFAF3B"/>
</svg>
