<svg width="56" height="50" viewBox="0 0 56 50" fill="none" xmlns="http://www.w3.org/2000/svg">
<path d="M31.8643 31.6045L32.1072 31.047L32.2644 30.518V29.7888L31.8643 29.0596L31.5928 28.7022L31.1784 28.1446L31.2784 27.1867L31.0641 27.3297L30.8355 26.9293L30.4783 27.1295L30.3925 26.143L30.0782 25.5711L30.2211 25.3566L29.7781 24.9563L29.3209 24.5274L28.5636 24.0556L28.435 23.4408L28.6207 22.969L28.5636 22.1826L28.3778 22.0825L28.3492 21.625L28.3206 20.8387L28.4778 20.4384L28.1492 20.0809L27.9491 19.6949L27.3919 20.038L27.2204 19.3232L27.2918 18.9943L27.3061 18.4796L27.0775 18.0221L27.0918 17.6361L26.906 17.5217L26.9203 16.9641L26.7489 16.5066L26.4202 16.8497L26.3631 17.1071L26.1487 17.6075L25.8915 18.0936L25.9773 18.3938L25.8058 18.5797L25.5915 19.266L25.6058 19.795L25.5057 20.0523L25.5486 20.4955L25.1771 21.2104L24.9913 21.7108L24.7484 22.1254L24.5055 22.6115L23.9197 22.9118L23.2195 22.6115L23.1481 22.3256L22.7909 22.0968H22.5622L22.0907 21.5535L21.7335 21.239L21.1762 20.9531L20.6189 20.4526L20.6047 20.1953L20.9619 19.7521L21.2619 19.2946L21.2191 18.9228L21.4906 18.8942L21.8478 18.5368L22.1336 18.0507L21.8192 17.5932L21.6049 17.7648L21.3191 17.6933L20.819 17.9506L20.3617 17.6647L20.1188 17.7648L19.4758 17.536L19.09 17.15L18.5899 16.9355L18.147 17.0642L18.7042 17.3644L18.6614 17.8219L17.9755 17.9935L17.5754 17.8934L17.061 18.208L16.6466 18.737L16.7324 18.9514L16.3466 19.1945L15.8608 19.9236L15.9465 20.4241L15.4607 20.3383H14.9606L14.6033 19.795L14.0746 19.3804L13.6746 19.4947L13.3031 19.6234L13.2602 19.8522L12.9173 19.7521L12.8744 20.0094L12.4457 20.1667L12.2028 20.5241L11.7027 20.9674L11.5027 21.6536L11.174 21.4678L10.8597 21.911L11.074 22.3399L10.7025 22.5115L10.5024 21.7251L9.81657 22.4972L9.70226 22.9976L9.60224 23.355L9.05926 23.8268L8.77349 24.3129L8.27338 24.7132L7.40175 24.9849L6.9588 24.9563L6.74447 25.0421L6.58729 25.2422L6.08718 25.3423L5.41561 25.6855L5.21556 25.5711L4.84405 25.6426L4.18676 25.9714L3.72952 26.3574L3.04365 26.6577L2.6007 27.2868L2.65786 26.6005L2.2149 27.2582L2.20061 27.7872L2.01486 28.2447L1.80053 28.4591L1.61477 28.9881L1.74337 29.2598L1.75765 29.5457L1.98628 30.2606L1.88626 30.7324L1.74337 30.375L1.41473 30.1176L1.47188 30.9612L1.22897 30.5608L1.24326 30.9612L1.50046 31.676L1.41473 32.3909L1.65764 32.7483L1.60048 33.02L1.72908 33.6062L1.54332 34.1209L1.50046 34.6356L1.60048 35.5649L1.50046 36.0939L1.1861 36.723L1.10037 37.0518L0.886037 37.2663L0.471657 37.3807L0.257324 37.9097L0.60026 38.0812L1.17181 38.6674H1.68621L2.22919 38.7103L2.70072 38.4101L3.18654 38.1527L3.38659 38.1956L4.02959 37.7095L4.57256 37.6666L5.15841 37.5665L5.75853 37.7381L6.27294 37.6523L6.93022 37.6237L7.35889 37.252L7.68753 36.7802L8.43055 36.5657L9.41649 36.1082L10.1309 36.1654L11.1169 35.8651L12.2314 35.5363L13.6317 35.4505L14.2033 35.8937L14.7319 35.9223L15.4893 36.4656L15.2606 36.6801L15.5178 37.0232L15.7036 37.6809L15.475 38.167L15.8893 38.5387L16.5038 37.8096L17.1182 37.5093L18.0755 36.723L17.8469 37.395L17.3611 37.8525L17.0039 38.3815L16.3752 38.8819L17.1182 38.7103L17.7898 38.0812L17.6612 38.7675L17.2039 39.2107L17.8755 39.3251L18.0612 39.6968L18.0041 40.1686L17.7898 40.8692L17.9898 41.4411L18.5614 41.7127L18.9614 41.7699L19.3044 41.9129L19.8045 42.1703L20.8333 41.4983L21.3334 41.3267L20.9476 41.8128L21.3191 41.9701L21.7049 42.3704L22.3765 41.9844L22.9195 41.627L23.8197 41.2409L24.677 41.2123L25.2771 40.8835L25.4057 40.5976L25.8344 39.9542L26.3916 39.2679L26.906 38.8104L27.5348 38.0097L28.0063 37.5665L28.635 36.8517L29.4066 36.4084L30.121 35.5792L30.564 34.9358L30.764 34.4211L31.307 33.6062L31.6071 33.1916L31.9643 32.3766L31.8643 31.6045Z" fill="#C6C6C6"/>
<path d="M21.0619 44.1433L20.5761 44.272L20.0617 43.9575L19.633 43.886L19.3615 44.3006L19.2758 45.0727L18.9757 45.6446L18.9043 46.4023L19.333 46.4309L19.4473 46.4738L20.3903 45.859L20.4761 46.1021L21.0476 45.4015L21.5049 45.087L22.1479 44.0433L21.7478 43.9718L21.0619 44.1433Z" fill="#C6C6C6"/>
<path d="M55.255 21.7109L54.9835 21.7538L54.5405 21.9398L54.5691 22.2831L55.1264 22.0972L55.6836 21.8683L55.7837 21.4248L55.255 21.7109Z" fill="#C6C6C6"/>
<path d="M53.9832 22.7261L53.6546 22.6116L53.2688 22.9263L53.2402 23.3269L53.6546 23.4413L54.169 23.3126L54.4262 22.8405L54.2119 22.583L53.9832 22.7261Z" fill="#C6C6C6"/>
<path d="M40.3376 44.0719L40.4662 43.7002L39.6375 44.1148L39.1517 44.6009L38.6944 44.8297L37.8514 45.4874L37.0512 45.9449L36.051 46.4024L35.2651 46.7455L34.6507 46.9028L33.036 47.7749L32.1215 48.4326L31.9644 48.7614L32.6931 48.8186L32.9074 49.1189L33.5504 49.1332L34.122 48.8758L35.0222 48.4755L36.1796 47.5891L36.8511 47.0029L37.7371 46.674L38.3086 46.6597L38.3943 46.2451L39.0516 45.8877L40.0518 45.2443L40.652 44.8297L40.9521 44.458L41.0235 44.0862L40.2233 44.4437L40.3376 44.0719Z" fill="#C6C6C6"/>
<path d="M45.5244 41.3839L45.0672 41.3124L44.6528 41.0122L44.9814 40.3116L44.81 40.0542L44.3956 40.6833L44.4528 39.7111L44.7243 38.8962L44.2813 38.6531L44.167 38.1384L43.8383 38.2099L43.7812 38.8676L43.8955 39.6825L44.0241 40.0685L43.8955 40.2258L43.8098 40.8549L43.4668 41.4411L42.8667 42.1559L42.1094 42.4705L41.8665 42.8136L42.3952 43.171L42.2809 43.6714L41.2949 44.4006L41.495 44.5292L41.4378 44.758L42.2809 44.4006L43.1239 43.8001L43.7669 43.314L43.9955 43.1424L44.2099 42.7564L44.6099 42.4705L45.1529 42.4991L45.7531 41.9558L46.4818 41.1408L46.1817 41.0264L45.5244 41.3839Z" fill="#C6C6C6"/>
<path d="M25.7202 15.1055L26.5347 15.1341L26.9776 15.2913L27.6349 14.9768L27.5921 14.3048L28.1065 14.0046L28.8066 13.7472L29.8068 14.1476L30.1498 14.9482L30.5641 15.4486L31.1214 16.0205L31.9073 16.1635L32.5932 16.2636L32.7503 16.4923L33.2933 16.4351L33.4076 16.1778L32.6074 15.7917L32.8646 15.6202L32.2645 15.4629L32.336 15.0626L31.8787 15.0912L31.45 14.119L30.7785 13.5328L30.6499 12.918L31.3929 12.8179L31.2357 12.3461L29.9354 11.7742L29.8497 11.2452L29.4353 10.7877L28.9066 10.3159L27.4492 9.8012L26.0774 9.17212L25.9345 12.1316L25.7202 15.1055Z" fill="#C6C6C6"/>
<path d="M34.8362 9.9583L35.1791 10.2585L35.3506 10.6017L35.4649 11.145L35.7364 10.9019L35.6649 10.4301L35.3791 10.1299L35.0791 9.75814L34.7504 9.54369L34.4789 9.34353L34.0646 9.08618L33.8359 9.30064L34.3932 9.57228L34.8362 9.9583Z" fill="#C6C6C6"/>
<path d="M37.2369 12.7472L37.5513 13.1049L37.7799 13.019L37.9085 12.7615L37.5655 12.4468L37.2083 11.8746L36.9797 11.66L36.9083 11.3882L36.7939 11.4883L36.9225 12.175L37.2369 12.7472Z" fill="#C6C6C6"/>
<path d="M32.8789 12.5604H33.2933L33.722 12.346L34.1792 12.1172L34.3221 11.8599L34.7508 11.7884L35.0508 11.2308L35.108 10.7304L34.9508 10.5874L34.465 10.6017L34.5221 11.1307L34.0506 11.4595L33.8077 11.7741L33.3505 11.8456L33.2933 11.3595L33.179 11.3738L33.0361 11.817L32.5931 11.8885L31.8787 11.7598L31.793 12.0314L32.2359 12.2888L32.8789 12.5604Z" fill="#C6C6C6"/>
<path d="M45.5815 21.5108L45.7673 21.9114L46.0531 21.7827L45.6673 21.2676L45.5815 21.5108Z" fill="#C6C6C6"/>
<path d="M45.553 21.0106L45.7387 21.1251L45.7673 20.3957L45.4387 20.1096L45.3101 20.8104L45.3815 21.0679L45.553 21.0106Z" fill="#C6C6C6"/>
<path d="M44.996 26.4575L45.0103 26.5004H45.0389L45.1389 26.4718L45.1817 26.3145H45.1246L45.096 26.3002L45.0817 26.243L45.096 26.2144L45.0389 26.243L44.9531 26.2716L44.9674 26.386L44.9531 26.4432L44.996 26.4575Z" fill="#C6C6C6"/>
<path d="M44.4385 25.8427L44.4528 25.9142L44.4813 25.9714L44.5814 26L44.6242 26.0573H44.6671L44.71 25.9857L44.7243 25.9571L44.6957 25.857L44.6528 25.8141L44.6957 25.671L44.6814 25.6424L44.6242 25.6138L44.4956 25.6567L44.4813 25.6853L44.5528 25.6996L44.5814 25.7282L44.5099 25.8284L44.4385 25.8427Z" fill="#C6C6C6"/>
<path d="M44.1526 25.5999L44.1955 25.5427L44.1812 25.5284V25.4855L44.2098 25.4283L44.2526 25.414L44.2241 25.3854L44.1955 25.3711V25.414L44.1526 25.5141L44.1383 25.557L44.0669 25.6428H44.1098L44.1526 25.5999Z" fill="#C6C6C6"/>
<path d="M39.1943 24.3987L39.2086 24.3701L39.2372 24.3129L39.2515 24.1985L39.2229 24.2557L39.1943 24.3987Z" fill="#C6C6C6"/>
<path d="M44.4101 27.4172L44.4388 27.3882V27.3445L44.3813 27.3154L44.3525 27.3882V27.4027L44.3813 27.4172H44.4101Z" fill="#C6C6C6"/>
<path d="M42.4378 25.2852L42.3521 25.228L42.2664 25.1279L42.2521 25.1565L42.2378 25.2137V25.2566L42.2807 25.2852L42.2949 25.3138L42.2807 25.3853V25.4425L42.3664 25.5711L42.3807 25.6712L42.4235 25.757L42.495 25.8285L42.5521 25.9L42.6665 26.1001L42.695 26.1716L42.7522 26.2145L42.8951 26.3861L42.9522 26.4433L43.0094 26.4719L43.138 26.572L43.2237 26.6148L43.2666 26.6863L43.3523 26.7292L43.4666 26.7864L43.4809 26.815V26.8579L43.4952 26.9008L43.5667 26.958L43.6524 27.0009L43.6667 27.0295L43.681 27.0581L43.7238 27.0438L43.7667 27.0581L43.8953 27.1581L43.9525 27.1438H43.9953L44.0668 27.1153L44.1096 27.0581L44.0953 26.9008L44.0239 26.8293L43.9239 26.7721L43.8667 26.7006L43.8096 26.6291L43.6953 26.4862L43.5381 26.3432L43.4666 26.3146L43.4238 26.2574L43.3809 26.2431L43.3523 26.2002L43.2809 26.1573L43.238 26.0715L43.1523 25.9858L43.138 25.9429L43.1523 25.9L43.138 25.8571L43.0808 25.8142L43.0523 25.7427L43.0237 25.6998L42.9665 25.6712L42.8665 25.614L42.6379 25.3424L42.5379 25.2566L42.4378 25.2852Z" fill="#C6C6C6"/>
<path d="M46.9392 7.25635L46.9248 7.28485L46.9392 7.2991L46.9536 7.31335L46.9679 7.28485V7.25635H46.9536H46.9392Z" fill="#C6C6C6"/>
<path d="M39.4519 14.8347H39.4806L39.5238 14.8059L39.5094 14.7771L39.495 14.7051L39.4375 14.8059L39.4519 14.8347Z" fill="#C6C6C6"/>
<path d="M40.2231 14.991H40.1945L40.1516 15.0196L40.123 15.0625L40.1373 15.0912H40.1945L40.2374 15.1055L40.2802 15.0768V15.0196H40.2374L40.2231 14.991Z" fill="#C6C6C6"/>
<path d="M39.2516 14.6194L39.2373 14.6909L39.2659 14.7482L39.323 14.7768L39.4088 14.7053V14.6766V14.648L39.3802 14.6337L39.4373 14.5908L39.4231 14.5765L39.3373 14.5479L39.3087 14.5765L39.2802 14.5908L39.2659 14.6051L39.2516 14.6194Z" fill="#C6C6C6"/>
<path d="M38.9802 14.0474L38.9373 14.076L38.8516 14.1761L38.823 14.2333L38.7516 14.2762L38.7373 14.3191V14.3764L38.7945 14.3907L38.8373 14.3334L38.9659 14.3191L39.0088 14.3334V14.3907L39.0231 14.4908L39.066 14.5337L39.1374 14.5623L39.1945 14.6481L39.2088 14.6052H39.2374L39.266 14.548L39.2231 14.3764L39.1803 14.3048L39.0945 14.2762L39.066 14.2333V14.0903L38.9802 14.0474Z" fill="#C6C6C6"/>
<path d="M40.6237 14.4333L40.595 14.4477L40.5806 14.4909L40.595 14.5197L40.6525 14.5629L40.6956 14.5485L40.6669 14.4909V14.4621L40.6237 14.4333Z" fill="#C6C6C6"/>
<path d="M41.8092 16.092L41.7949 16.1636V16.2065H41.8807L41.9378 16.2351V16.3209L41.9664 16.3495V16.4211L42.1379 16.5498L42.2379 16.607L42.3379 16.6213L42.3951 16.6499L42.4665 16.6356L42.5379 16.6642L42.5951 16.6499L42.5379 16.607V16.5498L42.4665 16.3638L42.4236 16.3209L42.3522 16.3352L42.2807 16.3066H42.2236L42.1236 16.2637L42.1093 16.2351L42.0807 16.2208L41.9521 16.1206L41.8807 16.092H41.8092Z" fill="#C6C6C6"/>
<path d="M41.4662 14.648L41.5234 14.9628L41.5805 15.1344L41.6948 15.2489V15.2775L41.8091 15.349L41.8949 15.535L41.9235 15.5493L41.9377 15.5207V15.4349L41.8663 15.2775L41.8806 15.1631L41.852 15.1201V15.0772L41.8234 14.9628L41.7377 14.8626L41.6948 14.8483L41.6663 14.8054L41.6948 14.7196L41.7234 14.691L41.7377 14.648L41.5519 14.3762H41.5234L41.5091 14.3905H41.4805H41.4376L41.4233 14.4191L41.5091 14.5765L41.4662 14.648Z" fill="#C6C6C6"/>
<path d="M38.9799 14.7195H38.9513L38.8799 14.7338L38.8942 14.7482L38.9799 14.7911L39.0228 14.8055L39.0371 14.7768L39.0228 14.7482L38.9799 14.7195Z" fill="#C6C6C6"/>
<path d="M39.8659 13.7616L39.8802 13.8618L39.9516 13.919L40.0231 14.0048L40.0516 14.0191L40.0802 14.0477L40.1374 14.1192L40.2517 14.1765L40.366 14.2623L40.4089 14.2766L40.4517 14.3195L40.6661 14.4197L40.7375 14.5198L40.8375 14.577L40.8232 14.5055L40.7804 14.4483L40.8375 14.3768L40.5232 14.1049L40.4803 14.0763L40.4231 14.062L40.3517 14.0048L40.2803 13.9905L40.2088 13.9333L40.1802 13.8904L40.0945 13.8331L40.0088 13.7187L39.7944 13.6758L39.8087 13.7044L39.8659 13.7616Z" fill="#C6C6C6"/>
<path d="M41.0806 15.1055L41.0949 15.1484L41.1235 15.1341L41.1806 15.1627L41.2092 15.1198L41.1521 15.0482L41.0949 15.0053H41.0806L41.0378 14.991L40.9663 15.0196V15.0625L41.0235 15.0768L41.0806 15.1055Z" fill="#C6C6C6"/>
<path d="M38.2798 13.9618L38.3084 13.9761L38.3227 14.0333L38.337 14.019L38.3655 13.9761L38.437 13.876L38.4513 13.8331L38.3798 13.8045L38.3227 13.7329L38.2655 13.7043L38.2227 13.7615V13.8188L38.2941 13.9046L38.2798 13.9618Z" fill="#C6C6C6"/>
<path d="M37.5942 13.261L37.6514 13.2896L37.7228 13.261L37.7514 13.218L37.6514 13.1465L37.6228 13.1894L37.5942 13.261Z" fill="#C6C6C6"/>
<path d="M41.3806 15.8206L41.4521 15.792L41.4664 15.7777L41.4521 15.6919L41.4235 15.6489L41.3664 15.6203L41.3378 15.5345L41.2663 15.4773L41.1377 15.3772H40.9091L40.8234 15.3915L40.6662 15.2484L40.6233 15.2341L40.5662 15.277L40.5519 15.32L40.5376 15.4201V15.4773L40.5805 15.5774L40.6233 15.6489L40.6662 15.6919L40.6948 15.7205L40.8234 15.7348L41.0663 15.7491L41.1949 15.8063L41.3235 15.8349L41.3806 15.8206Z" fill="#C6C6C6"/>
<path d="M46.0536 17.4366L46.1255 17.4222L46.0968 17.3933L46.0824 17.3357H46.0392L45.9961 17.3501L46.0249 17.4366H46.0536Z" fill="#C6C6C6"/>
<path d="M40.952 17.4502L40.6805 17.2643L40.6233 17.25L40.609 17.2643L40.5947 17.3072L40.609 17.3358L40.6805 17.3501V17.3644L40.7233 17.393L40.8233 17.4216L40.8805 17.4645L40.8948 17.536L40.9377 17.5503L40.9805 17.5646L41.0377 17.536L41.0234 17.5074L40.952 17.4502Z" fill="#C6C6C6"/>
<path d="M45.3817 16.6638L45.4103 16.6781L45.4818 16.6066H45.5246H45.5389L45.6104 16.5923L45.6389 16.5352L45.6104 16.5209L45.5389 16.5066L45.4389 16.5209L45.396 16.5495L45.3674 16.5923H45.3389V16.6209L45.3532 16.6781L45.3817 16.6638Z" fill="#C6C6C6"/>
<path d="M41.9521 15.6201L41.9807 15.6487L42.0093 15.6201L42.0665 15.6917V15.6631V15.5629L41.9807 15.3341L41.9521 15.3198L41.9664 15.4056L41.9807 15.4628L41.9664 15.5343L41.9521 15.6201Z" fill="#C6C6C6"/>
<path d="M38.4229 13.0897L38.5801 13.3329L38.723 13.4759L38.8373 13.4902H38.8945V13.5045L38.9087 13.5332L38.9802 13.5618L39.0516 13.5045L39.0231 13.4759L38.9659 13.4616L38.9087 13.433L38.8087 13.3186L38.7802 13.2757L38.7516 13.1326L38.6944 13.0754L38.4944 12.9609L38.3801 12.8465L38.28 12.8179L38.2515 12.8465V12.918L38.28 12.9609L38.4229 13.0897Z" fill="#C6C6C6"/>
<path d="M38.737 14.1047V14.0331L38.7085 13.9759L38.6799 13.9473L38.6084 13.9616L38.5513 14.0331V14.1047L38.6084 14.1906H38.7085L38.737 14.1619V14.1047Z" fill="#C6C6C6"/>
<path d="M38.2656 14.1762L38.2514 14.0474L38.2228 14.0617V14.0903L38.2085 14.1476L38.2514 14.2477L38.2656 14.1762Z" fill="#C6C6C6"/>
<path d="M38.8371 14.5907L38.8657 14.5191L38.8514 14.4619L38.8228 14.4762L38.7228 14.5621L38.7085 14.605L38.7942 14.7195L38.8371 14.7338L38.7942 14.6765L38.8085 14.605L38.8371 14.5907Z" fill="#C6C6C6"/>
<path d="M11.1309 14.6768L11.2881 14.176L10.5451 14.5051L10.0021 14.5766L9.5163 14.3048L8.87331 14.4908L8.84473 14.8198L9.9021 14.9343L11.1309 14.6768Z" fill="#C6C6C6"/>
<path d="M0.872543 7.99963L1.27263 8.25698L1.37265 9.47225L2.02994 9.58664L2.54433 9.52945L2.83011 9.97266L3.78746 9.64382L4.18755 9.92977L4.75911 9.98696L5.04488 10.5446L5.97366 10.1299L6.08798 10.4588L6.4452 9.07193L6.48806 8.1569L7.27395 7.54211L7.24537 6.71287L7.50257 6.09808L8.45992 5.9837L7.53115 5.14016L7.65975 4.72553L7.04532 3.86769L7.47399 3.03844L8.04554 2.7382L7.87408 2.29498L8.41706 2.23779L8.45992 1.89466L7.77406 1.60871L7.23108 1.36565L7.17393 0.965328L6.73097 0.507812H6.40232L6.0451 1.22268L5.45926 1.85176L5.44498 2.29498L5.43068 2.88117L5.44498 2.29498L5.45926 1.85176L4.80198 2.35217L4.50191 2.69531L4.1304 3.2672L3.58743 3.98207L2.63007 4.18223L2.28713 4.3538L2.15854 5.12586L1.52983 5.29743L0.943988 4.98288L0.472448 5.58337L0.386719 6.42692L0.501028 7.22757L0.872543 7.99963ZM5.04488 2.85258L4.88771 3.16712L5.04488 2.85258Z" fill="#C6C6C6"/>
<path d="M7.54453 14.4192L7.27304 14.176L7.04442 14.4908L6.60147 14.5051L6.28711 15.0201L6.71577 15.0344L7.27304 14.9057L8.2161 14.734L8.04463 14.3334L7.54453 14.4192Z" fill="#C6C6C6"/>
<path d="M9.37343 16.1209L9.44488 15.8777L9.18767 15.6059L8.78758 15.3198L8.03027 15.5058L9.0305 16.1352L9.37343 16.1209Z" fill="#C6C6C6"/>
<path d="M15.5322 9.90153L16.0895 9.93015L16.5467 9.87292L17.204 9.94445L17.8756 10.3164L17.6041 9.61541L16.7325 9.35791L15.7466 9.40083L15.5322 9.90153Z" fill="#C6C6C6"/>
<path d="M15.7609 7.62793L15.9895 7.51355L15.6609 7.04174L15.7894 6.48416L16.2038 6.56994L16.2324 5.7836L16.1467 5.41187L15.6751 5.32608L15.6037 4.82568L15.3465 5.15452L15.2036 5.88368L15.4465 7.05604L15.7609 7.62793Z" fill="#C6C6C6"/>
<path d="M18.7472 8.28563L19.0472 8.81464L20.2332 8.82893L20.2904 9.05769L19.7188 9.04339L18.8329 9.37223L19.433 9.81545L19.4188 10.2158L19.5902 10.5446L19.8903 10.4731L20.1475 10.0299L21.3192 10.8735L21.9765 10.9449L23.4911 11.717L23.8197 12.4748L23.9626 13.4613L23.4339 13.7186L23.0338 14.4621L24.0483 14.4335L24.277 14.1761L25.0629 14.362L25.7201 15.1055L25.9345 12.1316L26.0774 9.17207L25.22 9.0005L24.6342 8.67166L23.9626 8.35712H23.2482L22.3051 8.90042L21.605 9.87264L20.7905 9.32934L20.6047 7.85671L20.4904 7.51358L19.2044 7.14185L18.7901 7.44209L17.7041 7.65655L18.0327 8.11406L18.7472 8.28563Z" fill="#C6C6C6"/>
<path d="M8.45909 9.97273L8.78773 9.98702L8.87347 10.8592L8.60198 11.7027L8.93062 11.9744L9.44502 11.8314L9.48789 10.5303L9.45931 9.47232L10.0023 9.20067L9.90226 10.0871L10.4595 10.6161L10.3452 10.9735L10.531 11.2166L11.3311 10.8735L10.9025 11.6169L11.2025 11.9315L11.6455 11.6598L11.6884 11.0736L11.0168 10.0156L11.174 9.70108L10.4452 8.54298L11.1597 8.18555L11.5312 7.65654L11.8741 7.78522L11.9456 7.3706L10.4452 7.67084L10.0023 8.08547L9.28784 7.28481L9.41644 6.59854L10.1166 6.45556L11.4455 6.41267L12.2171 6.59854L12.8315 6.41267L13.4602 5.51193L13.3173 5.31177L12.5314 5.96945L11.6026 6.01234L10.5881 5.88366L9.95942 5.61201L9.28784 6.29829L9.11637 6.67002L8.702 8.04257L8.5734 8.75744L8.23047 9.35794L8.45909 9.97273Z" fill="#C6C6C6"/>
<path d="M20.376 12.3892L20.4188 13.0758L20.8761 12.4607L20.9047 12.0316L20.7332 11.7598L20.5474 12.0745L20.376 12.3892Z" fill="#C6C6C6"/>
<path d="M14.7036 10.259L15.0179 9.95862L14.8179 9.6582L14.0034 9.70112L14.1463 10.0874L14.7036 10.259Z" fill="#C6C6C6"/>
<path d="M12.8741 14.8911L12.0597 15.2628L11.6596 15.8204L11.5596 16.1207L11.6453 16.235L12.3597 16.0349L12.9313 15.3486L13.6315 15.0913L14.4888 14.6909L14.8031 14.4479L14.5174 14.3335L14.2602 14.4479L13.6886 14.4765L12.9885 14.6766L12.8741 14.8911Z" fill="#C6C6C6"/>
</svg>
